<svg width="291" height="46" viewBox="0 0 291 46" fill="none" xmlns="http://www.w3.org/2000/svg">
<rect width="131" height="46" rx="23" fill="url(#paint0_linear_94_799)"/>
<path d="M37.2739 23.7794C37.0726 23.7794 36.9128 23.7024 36.7945 23.5485C36.6879 23.3828 36.6346 23.1638 36.6346 22.8915C36.6346 22.2878 36.8832 21.9859 37.3804 21.9859H39.2627C39.7007 21.9859 40.0085 21.8616 40.1861 21.613C40.3755 21.3644 40.4702 21.0921 40.4702 20.7962V17.884C40.4702 17.588 40.3755 17.3157 40.1861 17.0671C40.0085 16.8185 39.7007 16.6942 39.2627 16.6942H35.5337V28.2897C35.5337 28.8579 35.1785 29.1421 34.4683 29.1421C33.7816 29.1421 33.4383 28.8579 33.4383 28.2897V15.9662C33.4383 15.54 33.5449 15.2559 33.758 15.1138C33.9711 14.9718 34.2315 14.9008 34.5393 14.9008H39.7244C40.0203 14.9008 40.3341 14.9659 40.6655 15.0961C40.997 15.2263 41.3166 15.392 41.6244 15.5933H41.6067C41.9145 15.8182 42.1512 16.1142 42.3169 16.4812C42.4827 16.8363 42.5656 17.2506 42.5656 17.7242V20.9382C42.5656 21.8971 42.2459 22.6133 41.6067 23.0868C41.2989 23.3118 40.9852 23.4834 40.6655 23.6018C40.3459 23.7202 40.0322 23.7794 39.7244 23.7794H37.2739ZM50.787 18.3101C51.0948 18.3101 51.4085 18.3753 51.7281 18.5055C52.0596 18.6357 52.3792 18.8014 52.687 19.0027H52.6693C52.9771 19.2276 53.2138 19.5236 53.3796 19.8905C53.5453 20.2457 53.6282 20.66 53.6282 21.1335V26.1766C53.6282 27.1473 53.3085 27.8635 52.6693 28.3252C52.0419 28.7751 51.4144 29 50.787 29H47.9459C47.6381 29 47.3243 28.9467 47.0047 28.8402C46.6851 28.7336 46.3714 28.562 46.0636 28.3252C45.4243 27.8754 45.1047 27.1592 45.1047 26.1766V21.1335C45.1047 20.66 45.1876 20.2457 45.3533 19.8905C45.519 19.5236 45.7558 19.2276 46.0636 19.0027H46.0458C46.3418 18.8014 46.6555 18.6357 46.987 18.5055C47.3184 18.3753 47.6381 18.3101 47.9459 18.3101H50.787ZM50.4674 27.3308C50.9054 27.3308 51.2132 27.2065 51.3908 26.9579C51.5802 26.7093 51.6749 26.443 51.6749 26.1588V21.1513C51.6749 20.8554 51.5802 20.589 51.3908 20.3522C51.2132 20.1036 50.9054 19.9793 50.4674 19.9793H48.2655C47.8275 19.9793 47.5138 20.1036 47.3243 20.3522C47.1468 20.589 47.058 20.8554 47.058 21.1513V26.1588C47.058 26.443 47.1468 26.7093 47.3243 26.9579C47.5138 27.2065 47.8275 27.3308 48.2655 27.3308H50.4674ZM59.4604 29C59.0343 29 58.8093 28.7218 58.7857 28.1654C58.7857 27.609 59.0106 27.3308 59.4604 27.3308H61.2539C61.6919 27.3308 61.9997 27.2065 62.1773 26.9579C62.3667 26.7093 62.4614 26.443 62.4614 26.1588V21.1513C62.4614 20.8554 62.3667 20.5831 62.1773 20.3345C61.9997 20.074 61.686 19.9557 61.2362 19.9793H57.8268V30.6514C57.8268 31.2078 57.5012 31.486 56.8501 31.486C56.199 31.486 55.8735 31.2019 55.8735 30.6337V19.3578C55.8735 18.9435 55.98 18.6653 56.1931 18.5232C56.4062 18.3812 56.6666 18.3101 56.9744 18.3101H61.5736C61.8813 18.3101 62.1891 18.3634 62.4969 18.47C62.8166 18.5765 63.1421 18.7245 63.4736 18.9139C63.7577 19.1151 63.9826 19.3993 64.1483 19.7662C64.3259 20.1214 64.4147 20.5416 64.4147 21.027V26.2831C64.4147 27.2539 64.101 27.9464 63.4736 28.3607C62.8106 28.7869 62.1773 29 61.5736 29H59.4604ZM75.1835 26.1766C75.1835 26.6501 75.1006 27.0704 74.9349 27.4374C74.7692 27.8043 74.5324 28.1003 74.2246 28.3252H74.2424C73.9464 28.5265 73.6327 28.6922 73.3012 28.8224C72.9698 28.9408 72.6501 29 72.3423 29H69.4834C69.1875 29 68.8678 28.9408 68.5245 28.8224C68.1931 28.6922 67.8794 28.5265 67.5834 28.3252H67.6012C67.2934 28.1003 67.0566 27.8043 66.8909 27.4374C66.7251 27.0704 66.6423 26.6501 66.6423 26.1766V19.056C66.6423 18.4877 66.9678 18.2036 67.6189 18.2036C68.27 18.2036 68.5956 18.4877 68.5956 19.056V26.0345C68.5956 26.366 68.6784 26.656 68.8442 26.9046C68.9981 27.1888 69.3177 27.3308 69.8031 27.3308H72.0227C72.4962 27.3308 72.8099 27.1888 72.9638 26.9046L72.9461 26.9224C73.1355 26.6383 73.2302 26.3423 73.2302 26.0345V19.056C73.2302 18.4877 73.5558 18.2036 74.2068 18.2036C74.8579 18.2036 75.1835 18.4877 75.1835 19.056V26.1766ZM79.4354 28.3075C79.4354 28.8639 79.1098 29.1421 78.4587 29.1421C77.7958 29.1421 77.4643 28.8639 77.4643 28.3075V15.5755C77.4643 15.0191 77.7958 14.7409 78.4587 14.7409C79.1098 14.7409 79.4354 15.0191 79.4354 15.5755V28.3075ZM84.5664 29C84.1994 29 83.8502 28.9526 83.5187 28.8579C83.1872 28.7514 82.8676 28.6034 82.5598 28.414V28.4318C81.9798 28.0648 81.6897 27.39 81.6897 26.4074V25.5373C81.6897 25.052 81.7726 24.6317 81.9383 24.2766C82.1159 23.9096 82.3586 23.6196 82.6664 23.4065H82.6486C82.9446 23.2052 83.2583 23.0572 83.5897 22.9625C83.9212 22.856 84.2408 22.8027 84.5486 22.8027H88.473V21.1513C88.473 20.8554 88.3783 20.589 88.1889 20.3522C88.0113 20.1036 87.7035 19.9793 87.2655 19.9793H85.1879C84.738 19.9793 84.4243 20.0918 84.2468 20.3167C84.081 20.5298 83.9982 20.7843 83.9982 21.0803V21.2223C83.9982 21.8379 83.6667 22.1457 83.0038 22.1457C82.3408 22.1457 82.0093 21.8379 82.0093 21.2223V21.0625C82.0093 20.5772 82.0922 20.1687 82.2579 19.8373C82.4355 19.5058 82.6723 19.2276 82.9682 19.0027H82.9505C83.2583 18.8014 83.5779 18.6357 83.9094 18.5055C84.2527 18.3753 84.5782 18.3101 84.886 18.3101H87.5851C87.8811 18.3101 88.1948 18.3753 88.5262 18.5055C88.8696 18.6357 89.1892 18.8014 89.4851 19.0027H89.4674C89.7752 19.2276 90.0119 19.5236 90.1777 19.8905C90.3434 20.2457 90.4263 20.66 90.4263 21.1335V28.2542C90.4263 28.8224 90.1007 29.1065 89.4496 29.1065C89.3194 29.1065 89.1951 29.1006 89.0767 29.0888C88.9702 29.0769 88.8696 29.0474 88.7749 29C88.692 28.9408 88.621 28.8639 88.5618 28.7692C88.5144 28.6626 88.4907 28.5265 88.4907 28.3607L88.473 24.4719H84.886C84.6256 24.4719 84.4243 24.5015 84.2823 24.5607C84.1402 24.6199 84.0278 24.7146 83.9449 24.8448C83.8502 25.0461 83.7792 25.2059 83.7318 25.3243C83.6963 25.4308 83.6785 25.5551 83.6785 25.6972V26.3897C83.6785 26.6975 83.7673 26.9342 83.9449 27.1C84.1343 27.2539 84.4539 27.3308 84.9038 27.3308H86.8926C87.3306 27.3308 87.5496 27.609 87.5496 28.1654C87.5496 28.4022 87.4963 28.6034 87.3898 28.7692C87.2832 28.9231 87.1175 29 86.8926 29H84.5664ZM94.641 28.2542C94.641 28.8224 94.3154 29.1065 93.6643 29.1065C92.9896 29.1065 92.6522 28.8224 92.6522 28.2542V20.9027C92.6522 19.932 92.9422 19.2572 93.5223 18.8784C94.1023 18.4996 94.7712 18.3101 95.5288 18.3101H97.5532C97.9912 18.3101 98.2102 18.5883 98.2102 19.1447C98.2339 19.7011 98.0149 19.9793 97.5532 19.9793H95.6709C95.2447 19.9793 94.9665 20.0622 94.8363 20.2279C94.7061 20.3937 94.641 20.6245 94.641 20.9205V28.2542Z" fill="white"/>
<path d="M182.534 28.2542C182.534 28.8224 182.184 29.1065 181.486 29.1065C180.788 29.1065 180.438 28.8224 180.438 28.2542V15.9662C180.438 15.6939 180.515 15.4512 180.669 15.2381C180.823 15.0132 181.119 14.9008 181.557 14.9008H187.594C188.021 14.9008 188.246 15.1967 188.269 15.7886C188.293 16.3924 188.068 16.6942 187.594 16.6942H182.534V28.2542ZM187.08 21.6663C187.08 21.8675 187.038 22.0628 186.955 22.2523C186.884 22.4298 186.778 22.5837 186.636 22.7139C186.505 22.8442 186.351 22.9507 186.174 23.0336C185.996 23.1046 185.801 23.1401 185.588 23.1401C185.185 23.1401 184.842 22.9981 184.558 22.7139C184.274 22.4298 184.132 22.0806 184.132 21.6663C184.132 21.2519 184.274 20.9027 184.558 20.6186C184.842 20.3345 185.185 20.1924 185.588 20.1924C185.801 20.1924 185.996 20.2338 186.174 20.3167C186.351 20.3877 186.505 20.4943 186.636 20.6363C186.778 20.7666 186.884 20.9205 186.955 21.098C187.038 21.2756 187.08 21.465 187.08 21.6663ZM195.723 18.3101C196.031 18.3101 196.345 18.3753 196.665 18.5055C196.996 18.6357 197.316 18.8014 197.623 19.0027H197.606C197.913 19.2276 198.15 19.5236 198.316 19.8905C198.482 20.2457 198.565 20.66 198.565 21.1335V26.1766C198.565 27.1473 198.245 27.8635 197.606 28.3252C196.978 28.7751 196.351 29 195.723 29H192.882C192.574 29 192.261 28.9467 191.941 28.8402C191.622 28.7336 191.308 28.562 191 28.3252C190.361 27.8754 190.041 27.1592 190.041 26.1766V21.1335C190.041 20.66 190.124 20.2457 190.29 19.8905C190.455 19.5236 190.692 19.2276 191 19.0027H190.982C191.278 18.8014 191.592 18.6357 191.923 18.5055C192.255 18.3753 192.574 18.3101 192.882 18.3101H195.723ZM195.404 27.3308C195.842 27.3308 196.15 27.2065 196.327 26.9579C196.517 26.7093 196.611 26.443 196.611 26.1588V21.1513C196.611 20.8554 196.517 20.589 196.327 20.3522C196.15 20.1036 195.842 19.9793 195.404 19.9793H193.202C192.764 19.9793 192.45 20.1036 192.261 20.3522C192.083 20.589 191.994 20.8554 191.994 21.1513V26.1588C191.994 26.443 192.083 26.7093 192.261 26.9579C192.45 27.2065 192.764 27.3308 193.202 27.3308H195.404ZM202.834 28.3075C202.834 28.8639 202.509 29.1421 201.858 29.1421C201.195 29.1421 200.863 28.8639 200.863 28.3075V15.5755C200.863 15.0191 201.195 14.7409 201.858 14.7409C202.509 14.7409 202.834 15.0191 202.834 15.5755V28.3075ZM207.308 28.3075C207.308 28.8639 206.983 29.1421 206.332 29.1421C205.669 29.1421 205.337 28.8639 205.337 28.3075V15.5755C205.337 15.0191 205.669 14.7409 206.332 14.7409C206.983 14.7409 207.308 15.0191 207.308 15.5755V28.3075ZM215.44 18.3101C215.748 18.3101 216.062 18.3753 216.381 18.5055C216.713 18.6357 217.032 18.8014 217.34 19.0027H217.322C217.63 19.2276 217.867 19.5236 218.033 19.8905C218.198 20.2457 218.281 20.66 218.281 21.1335V26.1766C218.281 27.1473 217.962 27.8635 217.322 28.3252C216.695 28.7751 216.068 29 215.44 29H212.599C212.291 29 211.978 28.9467 211.658 28.8402C211.338 28.7336 211.025 28.562 210.717 28.3252C210.078 27.8754 209.758 27.1592 209.758 26.1766V21.1335C209.758 20.66 209.841 20.2457 210.006 19.8905C210.172 19.5236 210.409 19.2276 210.717 19.0027H210.699C210.995 18.8014 211.309 18.6357 211.64 18.5055C211.972 18.3753 212.291 18.3101 212.599 18.3101H215.44ZM215.121 27.3308C215.559 27.3308 215.866 27.2065 216.044 26.9579C216.233 26.7093 216.328 26.443 216.328 26.1588V21.1513C216.328 20.8554 216.233 20.589 216.044 20.3522C215.866 20.1036 215.559 19.9793 215.121 19.9793H212.919C212.481 19.9793 212.167 20.1036 211.978 20.3522C211.8 20.589 211.711 20.8554 211.711 21.1513V26.1588C211.711 26.443 211.8 26.7093 211.978 26.9579C212.167 27.2065 212.481 27.3308 212.919 27.3308H215.121ZM224.256 28.4495L224.273 28.4318C224.191 28.704 224.031 28.8816 223.794 28.9645C223.557 29.0474 223.32 29.0888 223.084 29.0888C222.859 29.0888 222.622 29.0474 222.373 28.9645C222.137 28.8816 221.983 28.704 221.912 28.4318L221.929 28.4495L219.603 19.2513C219.461 18.7541 219.692 18.4226 220.296 18.2569C220.876 18.103 221.249 18.3042 221.415 18.8606V18.8429L222.853 24.6317H223.332L224.771 18.8429C224.83 18.5943 224.96 18.4344 225.161 18.3634C225.374 18.2806 225.57 18.2391 225.747 18.2391C225.949 18.2391 226.144 18.2865 226.333 18.3812C226.535 18.464 226.671 18.6179 226.742 18.8429C226.848 19.269 226.943 19.6656 227.026 20.0326C227.121 20.3996 227.209 20.7547 227.292 21.098C227.375 21.4413 227.452 21.7787 227.523 22.1102C227.606 22.4417 227.695 22.785 227.789 23.1401L228.18 24.6495H228.659C228.896 23.6906 229.133 22.7258 229.37 21.7551C229.618 20.7725 229.861 19.8018 230.098 18.8429L230.08 18.8606C230.246 18.3042 230.619 18.103 231.199 18.2569C231.803 18.3989 232.033 18.7304 231.891 19.2513L229.583 28.4495L229.601 28.4318C229.53 28.704 229.37 28.8816 229.121 28.9645C228.884 29.0474 228.648 29.0888 228.411 29.0888C228.186 29.0888 227.955 29.0474 227.718 28.9645C227.482 28.8816 227.322 28.704 227.239 28.4318L227.257 28.4495L225.996 23.4597H225.516L224.256 28.4495ZM235.279 28.2542C235.279 28.8224 234.953 29.1065 234.302 29.1065C233.639 29.1065 233.308 28.8224 233.308 28.2542V19.0915C233.308 18.5232 233.639 18.2391 234.302 18.2391C234.953 18.2391 235.279 18.5232 235.279 19.0915V28.2542ZM235.652 16.0017C235.652 16.3805 235.522 16.7002 235.261 16.9606C235.001 17.221 234.681 17.3513 234.302 17.3513C233.923 17.3513 233.598 17.221 233.326 16.9606C233.065 16.7002 232.935 16.3805 232.935 16.0017C232.935 15.6111 233.065 15.2855 233.326 15.0251C233.598 14.7646 233.923 14.6344 234.302 14.6344C234.681 14.6344 235.001 14.7646 235.261 15.0251C235.522 15.2855 235.652 15.6111 235.652 16.0017ZM239.7 28.2542C239.7 28.8224 239.374 29.1065 238.723 29.1065C238.072 29.1065 237.746 28.8224 237.746 28.2542V21.1158C237.746 20.6304 237.823 20.2102 237.977 19.855C238.131 19.4999 238.374 19.2098 238.705 18.9849C239.333 18.5351 239.96 18.3101 240.587 18.3101H243.446C244.05 18.3101 244.678 18.5351 245.329 18.9849C245.968 19.4348 246.288 20.1451 246.288 21.1158V28.2542C246.288 28.8224 245.962 29.1065 245.311 29.1065C244.66 29.1065 244.334 28.8224 244.334 28.2542V21.2756C244.334 20.9678 244.24 20.6719 244.05 20.3877L244.068 20.4055C243.914 20.1214 243.6 19.9793 243.127 19.9793H240.907C240.422 19.9793 240.102 20.1214 239.948 20.4055C239.782 20.6541 239.7 20.9441 239.7 21.2756V28.2542ZM251.443 27.757C251.136 27.757 250.816 27.7037 250.484 27.5972C250.165 27.4906 249.851 27.3367 249.543 27.1355C248.904 26.7212 248.584 26.0227 248.584 25.0401V21.027C248.584 20.5298 248.667 20.1036 248.833 19.7485C249.011 19.3933 249.247 19.1151 249.543 18.9139C249.851 18.7245 250.165 18.5765 250.484 18.47C250.804 18.3634 251.118 18.3101 251.426 18.3101H254.409C254.705 18.3101 255.013 18.3753 255.332 18.5055C255.652 18.6357 255.948 18.8014 256.22 19.0027C256.492 19.2276 256.711 19.5236 256.877 19.8905C257.043 20.2575 257.126 20.6719 257.126 21.1335V28.6626C257.126 29.1598 257.043 29.5801 256.877 29.9234C256.723 30.2785 256.504 30.5745 256.22 30.8112C255.948 31.0362 255.652 31.2078 255.332 31.3262C255.024 31.4564 254.717 31.5215 254.409 31.5215H251.426C250.798 31.5215 250.165 31.338 249.526 30.9711C249.194 30.7816 248.951 30.539 248.798 30.243C248.655 29.9471 248.584 29.6037 248.584 29.2131V29C248.584 28.7632 248.661 28.5738 248.815 28.4318C248.969 28.2897 249.212 28.2187 249.543 28.2187C250.206 28.2897 250.538 28.5502 250.538 29V29.1953C250.538 29.3255 250.627 29.4676 250.804 29.6215C250.994 29.7754 251.307 29.8523 251.745 29.8523H253.965C254.403 29.8523 254.711 29.728 254.888 29.4794C255.078 29.2308 255.172 28.9526 255.172 28.6449V21.1513C255.172 20.8554 255.078 20.589 254.888 20.3522C254.711 20.1036 254.403 19.9793 253.965 19.9793H251.745C251.307 19.9793 250.994 20.1036 250.804 20.3522C250.627 20.589 250.538 20.8554 250.538 21.1513V24.8981C250.538 25.194 250.627 25.4722 250.804 25.7327C250.994 25.9813 251.307 26.1056 251.745 26.1056H253.592C254.018 26.1056 254.231 26.3778 254.231 26.9224C254.231 27.171 254.178 27.3723 254.071 27.5262C253.977 27.68 253.817 27.757 253.592 27.757H251.443Z" fill="white"/>
<rect x="148.387" y="1.38728" width="141.225" height="43.2254" rx="21.6127" stroke="url(#paint1_linear_94_799)" stroke-width="2.77457"/>
<defs>
<linearGradient id="paint0_linear_94_799" x1="-36.3468" y1="-53.1091" x2="106.04" y2="2.84026" gradientUnits="userSpaceOnUse">
<stop stop-color="#D0D0D0"/>
<stop offset="1" stop-color="#8F00FF"/>
</linearGradient>
<linearGradient id="paint1_linear_94_799" x1="107.046" y1="-53.1091" x2="259.32" y2="12.6631" gradientUnits="userSpaceOnUse">
<stop stop-color="#D0D0D0"/>
<stop offset="1" stop-color="#8F00FF"/>
</linearGradient>
</defs>
</svg>
