<svg width="208" height="56" viewBox="0 0 208 56" fill="none" xmlns="http://www.w3.org/2000/svg">
<path d="M99.9512 21.7831L99.9512 27.3038L107.365 27.3038L107.365 30.8054L99.9512 30.8054L99.9512 36.6415L108.311 36.6415L108.311 40.2378L95.5347 40.2378L95.5347 18.1869L108.311 18.1869L108.311 21.7831L99.9512 21.7831ZM131.789 40.2378L127.372 40.2378L117.372 25.1271L117.372 40.2378L112.955 40.2378L112.955 18.1869L117.372 18.1869L127.372 33.3291L127.372 18.1869L131.789 18.1869L131.789 40.2378ZM144.481 18.2184C146.795 18.2184 148.824 18.6706 150.57 19.5749C152.336 20.4792 153.693 21.7726 154.639 23.4551C155.607 25.1166 156.09 27.0514 156.09 29.2596C156.09 31.4679 155.607 33.4027 154.639 35.0642C153.693 36.7046 152.336 37.977 150.57 38.8813C148.824 39.7856 146.795 40.2378 144.481 40.2378L136.784 40.2378L136.784 18.2184L144.481 18.2184ZM144.324 36.4838C146.637 36.4838 148.425 35.8528 149.687 34.591C150.948 33.3291 151.579 31.552 151.579 29.2596C151.579 26.9673 150.948 25.1796 149.687 23.8968C148.425 22.5928 146.637 21.9409 144.324 21.9409L141.201 21.9409L141.201 36.4838L144.324 36.4838ZM173.624 18.2184L173.624 21.7831L164.444 21.7831L164.444 27.43L171.479 27.43L171.479 30.9316L164.444 30.9316L164.444 40.2378L160.027 40.2378L160.027 18.2184L173.624 18.2184ZM192.371 18.2184L192.371 21.7831L186.503 21.7831L186.503 40.2378L182.087 40.2378L182.087 21.7831L176.219 21.7831L176.219 18.2184L192.371 18.2184Z" fill="white"/>
<path d="M44.0493 31.0669C43.5165 33.06 42.3916 34.8505 40.8481 36.285L53.3517 47.348L57.9012 43.3227L44.0493 31.0669Z" fill="#52FF00"/>
<path d="M39.6494 1.47336L33.4347 -8.76847e-07L28.1976 17.2934L23.4693 1.6808L17.2545 3.15417L22.3631 20.0224L9.6389 8.76442L5.08941 12.7897L19.0463 25.1385L1.66523 21.0179L5.20875e-07 26.5164L18.9909 31.0188C18.7735 30.189 18.6585 29.3244 18.6585 28.4361C18.6585 22.1482 24.4196 17.0509 31.5264 17.0509C38.6332 17.0509 44.3943 22.1482 44.3943 28.4361C44.3943 29.3187 44.2807 30.178 44.066 31.0028L61.3253 35.0945L62.9904 29.596L43.9239 25.0757L61.3061 20.9548L59.6408 15.4562L40.5752 19.9762L53.2993 8.7182L48.7498 4.69291L34.9866 16.8704L39.6494 1.47336Z" fill="#52FF00"/>
<path d="M40.7216 36.4009C39.1595 37.8125 37.1854 38.8659 34.9717 39.4088L39.5215 54.4324L45.7361 52.959L40.7216 36.4009Z" fill="#52FF00"/>
<path d="M34.7397 39.4634C33.7126 39.697 32.6361 39.8211 31.5266 39.8211C30.3381 39.8211 29.1871 39.6785 28.0945 39.4116L23.5405 54.4489L29.7552 55.9222L34.7397 39.4634Z" fill="#52FF00"/>
<path d="M27.8744 39.3566C25.6944 38.7867 23.7554 37.7199 22.2252 36.3042L9.69092 47.3943L14.2404 51.4196L27.8744 39.3566Z" fill="#52FF00"/>
<path d="M22.1211 36.2058C20.6171 34.7812 19.5216 33.0146 19.0002 31.0522L1.68457 35.1574L3.34979 40.656L22.1211 36.2058Z" fill="#52FF00"/>
</svg>
