<svg width="439" height="89" viewBox="0 0 439 89" fill="none" xmlns="http://www.w3.org/2000/svg">
<path d="M9.108 1.454V2.786H5.688V14H4.05V2.786H0.612V1.454H9.108ZM16.0203 3.956C16.7643 3.956 17.4363 4.118 18.0363 4.442C18.6363 4.754 19.1043 5.228 19.4403 5.864C19.7883 6.5 19.9623 7.274 19.9623 8.186V14H18.3423V8.42C18.3423 7.436 18.0963 6.686 17.6043 6.17C17.1123 5.642 16.4403 5.378 15.5883 5.378C14.7243 5.378 14.0343 5.648 13.5183 6.188C13.0143 6.728 12.7623 7.514 12.7623 8.546V14H11.1243V0.68H12.7623V5.54C13.0863 5.036 13.5303 4.646 14.0943 4.37C14.6703 4.094 15.3123 3.956 16.0203 3.956ZM31.638 8.69C31.638 9.002 31.62 9.332 31.584 9.68H23.7C23.76 10.652 24.09 11.414 24.69 11.966C25.302 12.506 26.04 12.776 26.904 12.776C27.612 12.776 28.2 12.614 28.668 12.29C29.148 11.954 29.484 11.51 29.676 10.958H31.44C31.176 11.906 30.648 12.68 29.856 13.28C29.064 13.868 28.08 14.162 26.904 14.162C25.968 14.162 25.128 13.952 24.384 13.532C23.652 13.112 23.076 12.518 22.656 11.75C22.236 10.97 22.026 10.07 22.026 9.05C22.026 8.03 22.23 7.136 22.638 6.368C23.046 5.6 23.616 5.012 24.348 4.604C25.092 4.184 25.944 3.974 26.904 3.974C27.84 3.974 28.668 4.178 29.388 4.586C30.108 4.994 30.66 5.558 31.044 6.278C31.44 6.986 31.638 7.79 31.638 8.69ZM29.946 8.348C29.946 7.724 29.808 7.19 29.532 6.746C29.256 6.29 28.878 5.948 28.398 5.72C27.93 5.48 27.408 5.36 26.832 5.36C26.004 5.36 25.296 5.624 24.708 6.152C24.132 6.68 23.802 7.412 23.718 8.348H29.946ZM40.2369 12.668H44.6289V14H38.5989V1.454H40.2369V12.668ZM55.3684 8.69C55.3684 9.002 55.3504 9.332 55.3144 9.68H47.4304C47.4904 10.652 47.8204 11.414 48.4204 11.966C49.0324 12.506 49.7704 12.776 50.6344 12.776C51.3424 12.776 51.9304 12.614 52.3984 12.29C52.8784 11.954 53.2144 11.51 53.4064 10.958H55.1704C54.9064 11.906 54.3784 12.68 53.5864 13.28C52.7944 13.868 51.8104 14.162 50.6344 14.162C49.6984 14.162 48.8584 13.952 48.1144 13.532C47.3824 13.112 46.8064 12.518 46.3864 11.75C45.9664 10.97 45.7564 10.07 45.7564 9.05C45.7564 8.03 45.9604 7.136 46.3684 6.368C46.7764 5.6 47.3464 5.012 48.0784 4.604C48.8224 4.184 49.6744 3.974 50.6344 3.974C51.5704 3.974 52.3984 4.178 53.1184 4.586C53.8384 4.994 54.3904 5.558 54.7744 6.278C55.1704 6.986 55.3684 7.79 55.3684 8.69ZM53.6764 8.348C53.6764 7.724 53.5384 7.19 53.2624 6.746C52.9864 6.29 52.6084 5.948 52.1284 5.72C51.6604 5.48 51.1384 5.36 50.5624 5.36C49.7344 5.36 49.0264 5.624 48.4384 6.152C47.8624 6.68 47.5324 7.412 47.4484 8.348H53.6764ZM56.9185 9.032C56.9185 8.024 57.1225 7.142 57.5305 6.386C57.9385 5.618 58.4965 5.024 59.2045 4.604C59.9245 4.184 60.7225 3.974 61.5985 3.974C62.4625 3.974 63.2125 4.16 63.8485 4.532C64.4845 4.904 64.9585 5.372 65.2705 5.936V4.136H66.9265V14H65.2705V12.164C64.9465 12.74 64.4605 13.22 63.8125 13.604C63.1765 13.976 62.4325 14.162 61.5805 14.162C60.7045 14.162 59.9125 13.946 59.2045 13.514C58.4965 13.082 57.9385 12.476 57.5305 11.696C57.1225 10.916 56.9185 10.028 56.9185 9.032ZM65.2705 9.05C65.2705 8.306 65.1205 7.658 64.8205 7.106C64.5205 6.554 64.1125 6.134 63.5965 5.846C63.0925 5.546 62.5345 5.396 61.9225 5.396C61.3105 5.396 60.7525 5.54 60.2485 5.828C59.7445 6.116 59.3425 6.536 59.0425 7.088C58.7425 7.64 58.5925 8.288 58.5925 9.032C58.5925 9.788 58.7425 10.448 59.0425 11.012C59.3425 11.564 59.7445 11.99 60.2485 12.29C60.7525 12.578 61.3105 12.722 61.9225 12.722C62.5345 12.722 63.0925 12.578 63.5965 12.29C64.1125 11.99 64.5205 11.564 64.8205 11.012C65.1205 10.448 65.2705 9.794 65.2705 9.05ZM69.0826 9.032C69.0826 8.024 69.2866 7.142 69.6946 6.386C70.1026 5.618 70.6606 5.024 71.3686 4.604C72.0886 4.184 72.8926 3.974 73.7806 3.974C74.5486 3.974 75.2626 4.154 75.9226 4.514C76.5826 4.862 77.0866 5.324 77.4346 5.9V0.68H79.0906V14H77.4346V12.146C77.1106 12.734 76.6306 13.22 75.9946 13.604C75.3586 13.976 74.6146 14.162 73.7626 14.162C72.8866 14.162 72.0886 13.946 71.3686 13.514C70.6606 13.082 70.1026 12.476 69.6946 11.696C69.2866 10.916 69.0826 10.028 69.0826 9.032ZM77.4346 9.05C77.4346 8.306 77.2846 7.658 76.9846 7.106C76.6846 6.554 76.2766 6.134 75.7606 5.846C75.2566 5.546 74.6986 5.396 74.0866 5.396C73.4746 5.396 72.9166 5.54 72.4126 5.828C71.9086 6.116 71.5066 6.536 71.2066 7.088C70.9066 7.64 70.7566 8.288 70.7566 9.032C70.7566 9.788 70.9066 10.448 71.2066 11.012C71.5066 11.564 71.9086 11.99 72.4126 12.29C72.9166 12.578 73.4746 12.722 74.0866 12.722C74.6986 12.722 75.2566 12.578 75.7606 12.29C76.2766 11.99 76.6846 11.564 76.9846 11.012C77.2846 10.448 77.4346 9.794 77.4346 9.05ZM82.7047 2.534C82.3927 2.534 82.1287 2.426 81.9127 2.21C81.6967 1.994 81.5887 1.73 81.5887 1.418C81.5887 1.106 81.6967 0.842 81.9127 0.625999C82.1287 0.409999 82.3927 0.301999 82.7047 0.301999C83.0047 0.301999 83.2567 0.409999 83.4607 0.625999C83.6767 0.842 83.7847 1.106 83.7847 1.418C83.7847 1.73 83.6767 1.994 83.4607 2.21C83.2567 2.426 83.0047 2.534 82.7047 2.534ZM83.4967 4.136V14H81.8587V4.136H83.4967ZM91.0943 3.956C92.2943 3.956 93.2663 4.322 94.0103 5.054C94.7543 5.774 95.1263 6.818 95.1263 8.186V14H93.5063V8.42C93.5063 7.436 93.2603 6.686 92.7683 6.17C92.2763 5.642 91.6043 5.378 90.7523 5.378C89.8883 5.378 89.1983 5.648 88.6823 6.188C88.1783 6.728 87.9263 7.514 87.9263 8.546V14H86.2883V4.136H87.9263V5.54C88.2503 5.036 88.6883 4.646 89.2403 4.37C89.8043 4.094 90.4223 3.956 91.0943 3.956ZM101.87 3.974C102.722 3.974 103.466 4.16 104.102 4.532C104.75 4.904 105.23 5.372 105.542 5.936V4.136H107.198V14.216C107.198 15.116 107.006 15.914 106.622 16.61C106.238 17.318 105.686 17.87 104.966 18.266C104.258 18.662 103.43 18.86 102.482 18.86C101.186 18.86 100.106 18.554 99.242 17.942C98.378 17.33 97.868 16.496 97.712 15.44H99.332C99.512 16.04 99.884 16.52 100.448 16.88C101.012 17.252 101.69 17.438 102.482 17.438C103.382 17.438 104.114 17.156 104.678 16.592C105.254 16.028 105.542 15.236 105.542 14.216V12.146C105.218 12.722 104.738 13.202 104.102 13.586C103.466 13.97 102.722 14.162 101.87 14.162C100.994 14.162 100.196 13.946 99.476 13.514C98.768 13.082 98.21 12.476 97.802 11.696C97.394 10.916 97.19 10.028 97.19 9.032C97.19 8.024 97.394 7.142 97.802 6.386C98.21 5.618 98.768 5.024 99.476 4.604C100.196 4.184 100.994 3.974 101.87 3.974ZM105.542 9.05C105.542 8.306 105.392 7.658 105.092 7.106C104.792 6.554 104.384 6.134 103.868 5.846C103.364 5.546 102.806 5.396 102.194 5.396C101.582 5.396 101.024 5.54 100.52 5.828C100.016 6.116 99.614 6.536 99.314 7.088C99.014 7.64 98.864 8.288 98.864 9.032C98.864 9.788 99.014 10.448 99.314 11.012C99.614 11.564 100.016 11.99 100.52 12.29C101.024 12.578 101.582 12.722 102.194 12.722C102.806 12.722 103.364 12.578 103.868 12.29C104.384 11.99 104.792 11.564 105.092 11.012C105.392 10.448 105.542 9.794 105.542 9.05ZM124.629 14H122.991L116.403 4.01V14H114.765V1.436H116.403L122.991 11.408V1.436H124.629V14ZM134.513 1.454V2.786H129.059V7.016H133.487V8.348H129.059V14H127.421V1.454H134.513ZM144.213 1.454V2.786H140.793V14H139.155V2.786H135.717V1.454H144.213ZM163.755 1.544V14H162.117V4.712L157.977 14H156.825L152.667 4.694V14H151.029V1.544H152.793L157.401 11.84L162.009 1.544H163.755ZM165.92 9.032C165.92 8.024 166.124 7.142 166.532 6.386C166.94 5.618 167.498 5.024 168.206 4.604C168.926 4.184 169.724 3.974 170.6 3.974C171.464 3.974 172.214 4.16 172.85 4.532C173.486 4.904 173.96 5.372 174.272 5.936V4.136H175.928V14H174.272V12.164C173.948 12.74 173.462 13.22 172.814 13.604C172.178 13.976 171.434 14.162 170.582 14.162C169.706 14.162 168.914 13.946 168.206 13.514C167.498 13.082 166.94 12.476 166.532 11.696C166.124 10.916 165.92 10.028 165.92 9.032ZM174.272 9.05C174.272 8.306 174.122 7.658 173.822 7.106C173.522 6.554 173.114 6.134 172.598 5.846C172.094 5.546 171.536 5.396 170.924 5.396C170.312 5.396 169.754 5.54 169.25 5.828C168.746 6.116 168.344 6.536 168.044 7.088C167.744 7.64 167.594 8.288 167.594 9.032C167.594 9.788 167.744 10.448 168.044 11.012C168.344 11.564 168.746 11.99 169.25 12.29C169.754 12.578 170.312 12.722 170.924 12.722C171.536 12.722 172.094 12.578 172.598 12.29C173.114 11.99 173.522 11.564 173.822 11.012C174.122 10.448 174.272 9.794 174.272 9.05ZM180.335 5.738C180.623 5.174 181.031 4.736 181.559 4.424C182.099 4.112 182.753 3.956 183.521 3.956V5.648H183.089C181.253 5.648 180.335 6.644 180.335 8.636V14H178.697V4.136H180.335V5.738ZM190.919 14L187.049 9.644V14H185.411V0.68H187.049V8.51L190.847 4.136H193.133L188.489 9.05L193.151 14H190.919ZM203.675 8.69C203.675 9.002 203.657 9.332 203.621 9.68H195.737C195.797 10.652 196.127 11.414 196.727 11.966C197.339 12.506 198.077 12.776 198.941 12.776C199.649 12.776 200.237 12.614 200.705 12.29C201.185 11.954 201.521 11.51 201.713 10.958H203.477C203.213 11.906 202.685 12.68 201.893 13.28C201.101 13.868 200.117 14.162 198.941 14.162C198.005 14.162 197.165 13.952 196.421 13.532C195.689 13.112 195.113 12.518 194.693 11.75C194.273 10.97 194.063 10.07 194.063 9.05C194.063 8.03 194.267 7.136 194.675 6.368C195.083 5.6 195.653 5.012 196.385 4.604C197.129 4.184 197.981 3.974 198.941 3.974C199.877 3.974 200.705 4.178 201.425 4.586C202.145 4.994 202.697 5.558 203.081 6.278C203.477 6.986 203.675 7.79 203.675 8.69ZM201.983 8.348C201.983 7.724 201.845 7.19 201.569 6.746C201.293 6.29 200.915 5.948 200.435 5.72C199.967 5.48 199.445 5.36 198.869 5.36C198.041 5.36 197.333 5.624 196.745 6.152C196.169 6.68 195.839 7.412 195.755 8.348H201.983ZM207.835 5.486V11.3C207.835 11.78 207.937 12.122 208.141 12.326C208.345 12.518 208.699 12.614 209.203 12.614H210.409V14H208.933C208.021 14 207.337 13.79 206.881 13.37C206.425 12.95 206.197 12.26 206.197 11.3V5.486H204.919V4.136H206.197V1.652H207.835V4.136H210.409V5.486H207.835ZM214.032 5.954C214.356 5.39 214.836 4.922 215.472 4.55C216.12 4.166 216.87 3.974 217.722 3.974C218.598 3.974 219.39 4.184 220.098 4.604C220.818 5.024 221.382 5.618 221.79 6.386C222.198 7.142 222.402 8.024 222.402 9.032C222.402 10.028 222.198 10.916 221.79 11.696C221.382 12.476 220.818 13.082 220.098 13.514C219.39 13.946 218.598 14.162 217.722 14.162C216.882 14.162 216.138 13.976 215.49 13.604C214.854 13.22 214.368 12.746 214.032 12.182V18.68H212.394V4.136H214.032V5.954ZM220.728 9.032C220.728 8.288 220.578 7.64 220.278 7.088C219.978 6.536 219.57 6.116 219.054 5.828C218.55 5.54 217.992 5.396 217.38 5.396C216.78 5.396 216.222 5.546 215.706 5.846C215.202 6.134 214.794 6.56 214.482 7.124C214.182 7.676 214.032 8.318 214.032 9.05C214.032 9.794 214.182 10.448 214.482 11.012C214.794 11.564 215.202 11.99 215.706 12.29C216.222 12.578 216.78 12.722 217.38 12.722C217.992 12.722 218.55 12.578 219.054 12.29C219.57 11.99 219.978 11.564 220.278 11.012C220.578 10.448 220.728 9.788 220.728 9.032ZM226.196 0.68V14H224.558V0.68H226.196ZM228.376 9.032C228.376 8.024 228.58 7.142 228.988 6.386C229.396 5.618 229.954 5.024 230.662 4.604C231.382 4.184 232.18 3.974 233.056 3.974C233.92 3.974 234.67 4.16 235.306 4.532C235.942 4.904 236.416 5.372 236.728 5.936V4.136H238.384V14H236.728V12.164C236.404 12.74 235.918 13.22 235.27 13.604C234.634 13.976 233.89 14.162 233.038 14.162C232.162 14.162 231.37 13.946 230.662 13.514C229.954 13.082 229.396 12.476 228.988 11.696C228.58 10.916 228.376 10.028 228.376 9.032ZM236.728 9.05C236.728 8.306 236.578 7.658 236.278 7.106C235.978 6.554 235.57 6.134 235.054 5.846C234.55 5.546 233.992 5.396 233.38 5.396C232.768 5.396 232.21 5.54 231.706 5.828C231.202 6.116 230.8 6.536 230.5 7.088C230.2 7.64 230.05 8.288 230.05 9.032C230.05 9.788 230.2 10.448 230.5 11.012C230.8 11.564 231.202 11.99 231.706 12.29C232.21 12.578 232.768 12.722 233.38 12.722C233.992 12.722 234.55 12.578 235.054 12.29C235.57 11.99 235.978 11.564 236.278 11.012C236.578 10.448 236.728 9.794 236.728 9.05ZM240.54 9.05C240.54 8.03 240.744 7.142 241.152 6.386C241.56 5.618 242.124 5.024 242.844 4.604C243.576 4.184 244.41 3.974 245.346 3.974C246.558 3.974 247.554 4.268 248.334 4.856C249.126 5.444 249.648 6.26 249.9 7.304H248.136C247.968 6.704 247.638 6.23 247.146 5.882C246.666 5.534 246.066 5.36 245.346 5.36C244.41 5.36 243.654 5.684 243.078 6.332C242.502 6.968 242.214 7.874 242.214 9.05C242.214 10.238 242.502 11.156 243.078 11.804C243.654 12.452 244.41 12.776 245.346 12.776C246.066 12.776 246.666 12.608 247.146 12.272C247.626 11.936 247.956 11.456 248.136 10.832H249.9C249.636 11.84 249.108 12.65 248.316 13.262C247.524 13.862 246.534 14.162 245.346 14.162C244.41 14.162 243.576 13.952 242.844 13.532C242.124 13.112 241.56 12.518 241.152 11.75C240.744 10.982 240.54 10.082 240.54 9.05ZM261.085 8.69C261.085 9.002 261.067 9.332 261.031 9.68H253.147C253.207 10.652 253.537 11.414 254.137 11.966C254.749 12.506 255.487 12.776 256.351 12.776C257.059 12.776 257.647 12.614 258.115 12.29C258.595 11.954 258.931 11.51 259.123 10.958H260.887C260.623 11.906 260.095 12.68 259.303 13.28C258.511 13.868 257.527 14.162 256.351 14.162C255.415 14.162 254.575 13.952 253.831 13.532C253.099 13.112 252.523 12.518 252.103 11.75C251.683 10.97 251.473 10.07 251.473 9.05C251.473 8.03 251.677 7.136 252.085 6.368C252.493 5.6 253.063 5.012 253.795 4.604C254.539 4.184 255.391 3.974 256.351 3.974C257.287 3.974 258.115 4.178 258.835 4.586C259.555 4.994 260.107 5.558 260.491 6.278C260.887 6.986 261.085 7.79 261.085 8.69ZM259.393 8.348C259.393 7.724 259.255 7.19 258.979 6.746C258.703 6.29 258.325 5.948 257.845 5.72C257.377 5.48 256.855 5.36 256.279 5.36C255.451 5.36 254.743 5.624 254.155 6.152C253.579 6.68 253.249 7.412 253.165 8.348H259.393ZM273.734 14.126C272.57 14.126 271.508 13.856 270.548 13.316C269.588 12.764 268.826 12.002 268.262 11.03C267.71 10.046 267.434 8.942 267.434 7.718C267.434 6.494 267.71 5.396 268.262 4.424C268.826 3.44 269.588 2.678 270.548 2.138C271.508 1.586 272.57 1.31 273.734 1.31C274.91 1.31 275.978 1.586 276.938 2.138C277.898 2.678 278.654 3.434 279.206 4.406C279.758 5.378 280.034 6.482 280.034 7.718C280.034 8.954 279.758 10.058 279.206 11.03C278.654 12.002 277.898 12.764 276.938 13.316C275.978 13.856 274.91 14.126 273.734 14.126ZM273.734 12.704C274.61 12.704 275.396 12.5 276.092 12.092C276.8 11.684 277.352 11.102 277.748 10.346C278.156 9.59 278.36 8.714 278.36 7.718C278.36 6.71 278.156 5.834 277.748 5.09C277.352 4.334 276.806 3.752 276.11 3.344C275.414 2.936 274.622 2.732 273.734 2.732C272.846 2.732 272.054 2.936 271.358 3.344C270.662 3.752 270.11 4.334 269.702 5.09C269.306 5.834 269.108 6.71 269.108 7.718C269.108 8.714 269.306 9.59 269.702 10.346C270.11 11.102 270.662 11.684 271.358 12.092C272.066 12.5 272.858 12.704 273.734 12.704ZM287.003 3.956C288.203 3.956 289.175 4.322 289.919 5.054C290.663 5.774 291.035 6.818 291.035 8.186V14H289.415V8.42C289.415 7.436 289.169 6.686 288.677 6.17C288.185 5.642 287.513 5.378 286.661 5.378C285.797 5.378 285.107 5.648 284.591 6.188C284.087 6.728 283.835 7.514 283.835 8.546V14H282.197V4.136H283.835V5.54C284.159 5.036 284.597 4.646 285.149 4.37C285.713 4.094 286.331 3.956 287.003 3.956ZM300.147 2.786V6.98H304.719V8.33H300.147V12.65H305.259V14H298.509V1.436H305.259V2.786H300.147ZM309.736 5.486V11.3C309.736 11.78 309.838 12.122 310.042 12.326C310.246 12.518 310.6 12.614 311.104 12.614H312.31V14H310.834C309.922 14 309.238 13.79 308.782 13.37C308.326 12.95 308.098 12.26 308.098 11.3V5.486H306.82V4.136H308.098V1.652H309.736V4.136H312.31V5.486H309.736ZM319.19 3.956C319.934 3.956 320.606 4.118 321.206 4.442C321.806 4.754 322.274 5.228 322.61 5.864C322.958 6.5 323.132 7.274 323.132 8.186V14H321.512V8.42C321.512 7.436 321.266 6.686 320.774 6.17C320.282 5.642 319.61 5.378 318.758 5.378C317.894 5.378 317.204 5.648 316.688 6.188C316.184 6.728 315.932 7.514 315.932 8.546V14H314.294V0.68H315.932V5.54C316.256 5.036 316.7 4.646 317.264 4.37C317.84 4.094 318.482 3.956 319.19 3.956ZM334.808 8.69C334.808 9.002 334.79 9.332 334.754 9.68H326.87C326.93 10.652 327.26 11.414 327.86 11.966C328.472 12.506 329.21 12.776 330.074 12.776C330.782 12.776 331.37 12.614 331.838 12.29C332.318 11.954 332.654 11.51 332.846 10.958H334.61C334.346 11.906 333.818 12.68 333.026 13.28C332.234 13.868 331.25 14.162 330.074 14.162C329.138 14.162 328.298 13.952 327.554 13.532C326.822 13.112 326.246 12.518 325.826 11.75C325.406 10.97 325.196 10.07 325.196 9.05C325.196 8.03 325.4 7.136 325.808 6.368C326.216 5.6 326.786 5.012 327.518 4.604C328.262 4.184 329.114 3.974 330.074 3.974C331.01 3.974 331.838 4.178 332.558 4.586C333.278 4.994 333.83 5.558 334.214 6.278C334.61 6.986 334.808 7.79 334.808 8.69ZM333.116 8.348C333.116 7.724 332.978 7.19 332.702 6.746C332.426 6.29 332.048 5.948 331.568 5.72C331.1 5.48 330.578 5.36 330.002 5.36C329.174 5.36 328.466 5.624 327.878 6.152C327.302 6.68 326.972 7.412 326.888 8.348H333.116ZM338.608 5.738C338.896 5.174 339.304 4.736 339.832 4.424C340.372 4.112 341.026 3.956 341.794 3.956V5.648H341.362C339.526 5.648 338.608 6.644 338.608 8.636V14H336.97V4.136H338.608V5.738ZM352.685 8.69C352.685 9.002 352.667 9.332 352.631 9.68H344.747C344.807 10.652 345.137 11.414 345.737 11.966C346.349 12.506 347.087 12.776 347.951 12.776C348.659 12.776 349.247 12.614 349.715 12.29C350.195 11.954 350.531 11.51 350.723 10.958H352.487C352.223 11.906 351.695 12.68 350.903 13.28C350.111 13.868 349.127 14.162 347.951 14.162C347.015 14.162 346.175 13.952 345.431 13.532C344.699 13.112 344.123 12.518 343.703 11.75C343.283 10.97 343.073 10.07 343.073 9.05C343.073 8.03 343.277 7.136 343.685 6.368C344.093 5.6 344.663 5.012 345.395 4.604C346.139 4.184 346.991 3.974 347.951 3.974C348.887 3.974 349.715 4.178 350.435 4.586C351.155 4.994 351.707 5.558 352.091 6.278C352.487 6.986 352.685 7.79 352.685 8.69ZM350.993 8.348C350.993 7.724 350.855 7.19 350.579 6.746C350.303 6.29 349.925 5.948 349.445 5.72C348.977 5.48 348.455 5.36 347.879 5.36C347.051 5.36 346.343 5.624 345.755 6.152C345.179 6.68 344.849 7.412 344.765 8.348H350.993ZM363.595 4.136V14H361.957V12.542C361.645 13.046 361.207 13.442 360.643 13.73C360.091 14.006 359.479 14.144 358.807 14.144C358.039 14.144 357.349 13.988 356.737 13.676C356.125 13.352 355.639 12.872 355.279 12.236C354.931 11.6 354.757 10.826 354.757 9.914V4.136H356.377V9.698C356.377 10.67 356.623 11.42 357.115 11.948C357.607 12.464 358.279 12.722 359.131 12.722C360.007 12.722 360.697 12.452 361.201 11.912C361.705 11.372 361.957 10.586 361.957 9.554V4.136H363.595ZM378.223 3.956C378.991 3.956 379.675 4.118 380.275 4.442C380.875 4.754 381.349 5.228 381.697 5.864C382.045 6.5 382.219 7.274 382.219 8.186V14H380.599V8.42C380.599 7.436 380.353 6.686 379.861 6.17C379.381 5.642 378.727 5.378 377.899 5.378C377.047 5.378 376.369 5.654 375.865 6.206C375.361 6.746 375.109 7.532 375.109 8.564V14H373.489V8.42C373.489 7.436 373.243 6.686 372.751 6.17C372.271 5.642 371.617 5.378 370.789 5.378C369.937 5.378 369.259 5.654 368.755 6.206C368.251 6.746 367.999 7.532 367.999 8.564V14H366.361V4.136H367.999V5.558C368.323 5.042 368.755 4.646 369.295 4.37C369.847 4.094 370.453 3.956 371.113 3.956C371.941 3.956 372.673 4.142 373.309 4.514C373.945 4.886 374.419 5.432 374.731 6.152C375.007 5.456 375.463 4.916 376.099 4.532C376.735 4.148 377.443 3.956 378.223 3.956ZM11.052 38.454V51H9.414V45.312H3.024V51H1.386V38.454H3.024V43.962H9.414V38.454H11.052ZM18.1509 51.162C17.2269 51.162 16.3869 50.952 15.6309 50.532C14.8869 50.112 14.2989 49.518 13.8669 48.75C13.4469 47.97 13.2369 47.07 13.2369 46.05C13.2369 45.042 13.4529 44.154 13.8849 43.386C14.3289 42.606 14.9289 42.012 15.6849 41.604C16.4409 41.184 17.2869 40.974 18.2229 40.974C19.1589 40.974 20.0049 41.184 20.7609 41.604C21.5169 42.012 22.1109 42.6 22.5429 43.368C22.9869 44.136 23.2089 45.03 23.2089 46.05C23.2089 47.07 22.9809 47.97 22.5249 48.75C22.0809 49.518 21.4749 50.112 20.7069 50.532C19.9389 50.952 19.0869 51.162 18.1509 51.162ZM18.1509 49.722C18.7389 49.722 19.2909 49.584 19.8069 49.308C20.3229 49.032 20.7369 48.618 21.0489 48.066C21.3729 47.514 21.5349 46.842 21.5349 46.05C21.5349 45.258 21.3789 44.586 21.0669 44.034C20.7549 43.482 20.3469 43.074 19.8429 42.81C19.3389 42.534 18.7929 42.396 18.2049 42.396C17.6049 42.396 17.0529 42.534 16.5489 42.81C16.0569 43.074 15.6609 43.482 15.3609 44.034C15.0609 44.586 14.9109 45.258 14.9109 46.05C14.9109 46.854 15.0549 47.532 15.3429 48.084C15.6429 48.636 16.0389 49.05 16.5309 49.326C17.0229 49.59 17.5629 49.722 18.1509 49.722ZM37.2246 40.956C37.9926 40.956 38.6766 41.118 39.2766 41.442C39.8766 41.754 40.3506 42.228 40.6986 42.864C41.0466 43.5 41.2206 44.274 41.2206 45.186V51H39.6006V45.42C39.6006 44.436 39.3546 43.686 38.8626 43.17C38.3826 42.642 37.7286 42.378 36.9006 42.378C36.0486 42.378 35.3706 42.654 34.8666 43.206C34.3626 43.746 34.1106 44.532 34.1106 45.564V51H32.4906V45.42C32.4906 44.436 32.2446 43.686 31.7526 43.17C31.2726 42.642 30.6186 42.378 29.7906 42.378C28.9386 42.378 28.2606 42.654 27.7566 43.206C27.2526 43.746 27.0006 44.532 27.0006 45.564V51H25.3626V41.136H27.0006V42.558C27.3246 42.042 27.7566 41.646 28.2966 41.37C28.8486 41.094 29.4546 40.956 30.1146 40.956C30.9426 40.956 31.6746 41.142 32.3106 41.514C32.9466 41.886 33.4206 42.432 33.7326 43.152C34.0086 42.456 34.4646 41.916 35.1006 41.532C35.7366 41.148 36.4446 40.956 37.2246 40.956ZM52.9075 45.69C52.9075 46.002 52.8895 46.332 52.8535 46.68H44.9695C45.0295 47.652 45.3595 48.414 45.9595 48.966C46.5715 49.506 47.3095 49.776 48.1735 49.776C48.8815 49.776 49.4695 49.614 49.9375 49.29C50.4175 48.954 50.7535 48.51 50.9455 47.958H52.7095C52.4455 48.906 51.9175 49.68 51.1255 50.28C50.3335 50.868 49.3495 51.162 48.1735 51.162C47.2375 51.162 46.3975 50.952 45.6535 50.532C44.9215 50.112 44.3455 49.518 43.9255 48.75C43.5055 47.97 43.2955 47.07 43.2955 46.05C43.2955 45.03 43.4995 44.136 43.9075 43.368C44.3155 42.6 44.8855 42.012 45.6175 41.604C46.3615 41.184 47.2135 40.974 48.1735 40.974C49.1095 40.974 49.9375 41.178 50.6575 41.586C51.3775 41.994 51.9295 42.558 52.3135 43.278C52.7095 43.986 52.9075 44.79 52.9075 45.69ZM51.2155 45.348C51.2155 44.724 51.0775 44.19 50.8015 43.746C50.5255 43.29 50.1475 42.948 49.6675 42.72C49.1995 42.48 48.6775 42.36 48.1015 42.36C47.2735 42.36 46.5655 42.624 45.9775 43.152C45.4015 43.68 45.0715 44.412 44.9875 45.348H51.2155ZM67.5904 38.454V39.786H64.1704V51H62.5324V39.786H59.0944V38.454H67.5904ZM73.9087 51.162C72.9847 51.162 72.1447 50.952 71.3887 50.532C70.6447 50.112 70.0567 49.518 69.6247 48.75C69.2047 47.97 68.9947 47.07 68.9947 46.05C68.9947 45.042 69.2107 44.154 69.6427 43.386C70.0867 42.606 70.6867 42.012 71.4427 41.604C72.1987 41.184 73.0447 40.974 73.9807 40.974C74.9167 40.974 75.7627 41.184 76.5187 41.604C77.2747 42.012 77.8687 42.6 78.3007 43.368C78.7447 44.136 78.9667 45.03 78.9667 46.05C78.9667 47.07 78.7387 47.97 78.2827 48.75C77.8387 49.518 77.2327 50.112 76.4647 50.532C75.6967 50.952 74.8447 51.162 73.9087 51.162ZM73.9087 49.722C74.4967 49.722 75.0487 49.584 75.5647 49.308C76.0807 49.032 76.4947 48.618 76.8067 48.066C77.1307 47.514 77.2927 46.842 77.2927 46.05C77.2927 45.258 77.1367 44.586 76.8247 44.034C76.5127 43.482 76.1047 43.074 75.6007 42.81C75.0967 42.534 74.5507 42.396 73.9627 42.396C73.3627 42.396 72.8107 42.534 72.3067 42.81C71.8147 43.074 71.4187 43.482 71.1187 44.034C70.8187 44.586 70.6687 45.258 70.6687 46.05C70.6687 46.854 70.8127 47.532 71.1007 48.084C71.4007 48.636 71.7967 49.05 72.2887 49.326C72.7807 49.59 73.3207 49.722 73.9087 49.722ZM93.6412 38.454V39.786H90.2212V51H88.5832V39.786H85.1452V38.454H93.6412ZM100.553 40.956C101.297 40.956 101.969 41.118 102.569 41.442C103.169 41.754 103.637 42.228 103.973 42.864C104.321 43.5 104.495 44.274 104.495 45.186V51H102.875V45.42C102.875 44.436 102.629 43.686 102.137 43.17C101.645 42.642 100.973 42.378 100.121 42.378C99.2575 42.378 98.5675 42.648 98.0515 43.188C97.5475 43.728 97.2955 44.514 97.2955 45.546V51H95.6575V37.68H97.2955V42.54C97.6195 42.036 98.0635 41.646 98.6275 41.37C99.2035 41.094 99.8455 40.956 100.553 40.956ZM116.171 45.69C116.171 46.002 116.153 46.332 116.117 46.68H108.233C108.293 47.652 108.623 48.414 109.223 48.966C109.835 49.506 110.573 49.776 111.437 49.776C112.145 49.776 112.733 49.614 113.201 49.29C113.681 48.954 114.017 48.51 114.209 47.958H115.973C115.709 48.906 115.181 49.68 114.389 50.28C113.597 50.868 112.613 51.162 111.437 51.162C110.501 51.162 109.661 50.952 108.917 50.532C108.185 50.112 107.609 49.518 107.189 48.75C106.769 47.97 106.559 47.07 106.559 46.05C106.559 45.03 106.763 44.136 107.171 43.368C107.579 42.6 108.149 42.012 108.881 41.604C109.625 41.184 110.477 40.974 111.437 40.974C112.373 40.974 113.201 41.178 113.921 41.586C114.641 41.994 115.193 42.558 115.577 43.278C115.973 43.986 116.171 44.79 116.171 45.69ZM114.479 45.348C114.479 44.724 114.341 44.19 114.065 43.746C113.789 43.29 113.411 42.948 112.931 42.72C112.463 42.48 111.941 42.36 111.365 42.36C110.537 42.36 109.829 42.624 109.241 43.152C108.665 43.68 108.335 44.412 108.251 45.348H114.479ZM132.996 51H131.358L124.77 41.01V51H123.132V38.436H124.77L131.358 48.408V38.436H132.996V51ZM144.788 45.69C144.788 46.002 144.77 46.332 144.734 46.68H136.85C136.91 47.652 137.24 48.414 137.84 48.966C138.452 49.506 139.19 49.776 140.054 49.776C140.762 49.776 141.35 49.614 141.818 49.29C142.298 48.954 142.634 48.51 142.826 47.958H144.59C144.326 48.906 143.798 49.68 143.006 50.28C142.214 50.868 141.23 51.162 140.054 51.162C139.118 51.162 138.278 50.952 137.534 50.532C136.802 50.112 136.226 49.518 135.806 48.75C135.386 47.97 135.176 47.07 135.176 46.05C135.176 45.03 135.38 44.136 135.788 43.368C136.196 42.6 136.766 42.012 137.498 41.604C138.242 41.184 139.094 40.974 140.054 40.974C140.99 40.974 141.818 41.178 142.538 41.586C143.258 41.994 143.81 42.558 144.194 43.278C144.59 43.986 144.788 44.79 144.788 45.69ZM143.096 45.348C143.096 44.724 142.958 44.19 142.682 43.746C142.406 43.29 142.028 42.948 141.548 42.72C141.08 42.48 140.558 42.36 139.982 42.36C139.154 42.36 138.446 42.624 137.858 43.152C137.282 43.68 136.952 44.412 136.868 45.348H143.096ZM152.098 51L149.758 47.328L147.508 51H145.798L148.984 46.104L145.798 41.136H147.652L149.992 44.79L152.224 41.136H153.934L150.766 46.014L153.952 51H152.098ZM157.562 42.486V48.3C157.562 48.78 157.664 49.122 157.868 49.326C158.072 49.518 158.426 49.614 158.93 49.614H160.136V51H158.66C157.748 51 157.064 50.79 156.608 50.37C156.152 49.95 155.924 49.26 155.924 48.3V42.486H154.646V41.136H155.924V38.652H157.562V41.136H160.136V42.486H157.562ZM176.423 42.09C176.075 41.358 175.571 40.794 174.911 40.398C174.251 39.99 173.483 39.786 172.607 39.786C171.731 39.786 170.939 39.99 170.231 40.398C169.535 40.794 168.983 41.37 168.575 42.126C168.179 42.87 167.981 43.734 167.981 44.718C167.981 45.702 168.179 46.566 168.575 47.31C168.983 48.054 169.535 48.63 170.231 49.038C170.939 49.434 171.731 49.632 172.607 49.632C173.831 49.632 174.839 49.266 175.631 48.534C176.423 47.802 176.885 46.812 177.017 45.564H172.013V44.232H178.763V45.492C178.667 46.524 178.343 47.472 177.791 48.336C177.239 49.188 176.513 49.866 175.613 50.37C174.713 50.862 173.711 51.108 172.607 51.108C171.443 51.108 170.381 50.838 169.421 50.298C168.461 49.746 167.699 48.984 167.135 48.012C166.583 47.04 166.307 45.942 166.307 44.718C166.307 43.494 166.583 42.396 167.135 41.424C167.699 40.44 168.461 39.678 169.421 39.138C170.381 38.586 171.443 38.31 172.607 38.31C173.939 38.31 175.115 38.64 176.135 39.3C177.167 39.96 177.917 40.89 178.385 42.09H176.423ZM189.929 45.69C189.929 46.002 189.911 46.332 189.875 46.68H181.991C182.051 47.652 182.381 48.414 182.981 48.966C183.593 49.506 184.331 49.776 185.195 49.776C185.903 49.776 186.491 49.614 186.959 49.29C187.439 48.954 187.775 48.51 187.967 47.958H189.731C189.467 48.906 188.939 49.68 188.147 50.28C187.355 50.868 186.371 51.162 185.195 51.162C184.259 51.162 183.419 50.952 182.675 50.532C181.943 50.112 181.367 49.518 180.947 48.75C180.527 47.97 180.317 47.07 180.317 46.05C180.317 45.03 180.521 44.136 180.929 43.368C181.337 42.6 181.907 42.012 182.639 41.604C183.383 41.184 184.235 40.974 185.195 40.974C186.131 40.974 186.959 41.178 187.679 41.586C188.399 41.994 188.951 42.558 189.335 43.278C189.731 43.986 189.929 44.79 189.929 45.69ZM188.237 45.348C188.237 44.724 188.099 44.19 187.823 43.746C187.547 43.29 187.169 42.948 186.689 42.72C186.221 42.48 185.699 42.36 185.123 42.36C184.295 42.36 183.587 42.624 182.999 43.152C182.423 43.68 182.093 44.412 182.009 45.348H188.237ZM196.897 40.956C198.097 40.956 199.069 41.322 199.813 42.054C200.557 42.774 200.929 43.818 200.929 45.186V51H199.309V45.42C199.309 44.436 199.063 43.686 198.571 43.17C198.079 42.642 197.407 42.378 196.555 42.378C195.691 42.378 195.001 42.648 194.485 43.188C193.981 43.728 193.729 44.514 193.729 45.546V51H192.091V41.136H193.729V42.54C194.053 42.036 194.491 41.646 195.043 41.37C195.607 41.094 196.225 40.956 196.897 40.956ZM212.605 45.69C212.605 46.002 212.587 46.332 212.551 46.68H204.667C204.727 47.652 205.057 48.414 205.657 48.966C206.269 49.506 207.007 49.776 207.871 49.776C208.579 49.776 209.167 49.614 209.635 49.29C210.115 48.954 210.451 48.51 210.643 47.958H212.407C212.143 48.906 211.615 49.68 210.823 50.28C210.031 50.868 209.047 51.162 207.871 51.162C206.935 51.162 206.095 50.952 205.351 50.532C204.619 50.112 204.043 49.518 203.623 48.75C203.203 47.97 202.993 47.07 202.993 46.05C202.993 45.03 203.197 44.136 203.605 43.368C204.013 42.6 204.583 42.012 205.315 41.604C206.059 41.184 206.911 40.974 207.871 40.974C208.807 40.974 209.635 41.178 210.355 41.586C211.075 41.994 211.627 42.558 212.011 43.278C212.407 43.986 212.605 44.79 212.605 45.69ZM210.913 45.348C210.913 44.724 210.775 44.19 210.499 43.746C210.223 43.29 209.845 42.948 209.365 42.72C208.897 42.48 208.375 42.36 207.799 42.36C206.971 42.36 206.263 42.624 205.675 43.152C205.099 43.68 204.769 44.412 204.685 45.348H210.913ZM216.405 42.738C216.693 42.174 217.101 41.736 217.629 41.424C218.169 41.112 218.823 40.956 219.591 40.956V42.648H219.159C217.323 42.648 216.405 43.644 216.405 45.636V51H214.767V41.136H216.405V42.738ZM220.87 46.032C220.87 45.024 221.074 44.142 221.482 43.386C221.89 42.618 222.448 42.024 223.156 41.604C223.876 41.184 224.674 40.974 225.55 40.974C226.414 40.974 227.164 41.16 227.8 41.532C228.436 41.904 228.91 42.372 229.222 42.936V41.136H230.878V51H229.222V49.164C228.898 49.74 228.412 50.22 227.764 50.604C227.128 50.976 226.384 51.162 225.532 51.162C224.656 51.162 223.864 50.946 223.156 50.514C222.448 50.082 221.89 49.476 221.482 48.696C221.074 47.916 220.87 47.028 220.87 46.032ZM229.222 46.05C229.222 45.306 229.072 44.658 228.772 44.106C228.472 43.554 228.064 43.134 227.548 42.846C227.044 42.546 226.486 42.396 225.874 42.396C225.262 42.396 224.704 42.54 224.2 42.828C223.696 43.116 223.294 43.536 222.994 44.088C222.694 44.64 222.544 45.288 222.544 46.032C222.544 46.788 222.694 47.448 222.994 48.012C223.294 48.564 223.696 48.99 224.2 49.29C224.704 49.578 225.262 49.722 225.874 49.722C226.486 49.722 227.044 49.578 227.548 49.29C228.064 48.99 228.472 48.564 228.772 48.012C229.072 47.448 229.222 46.794 229.222 46.05ZM235.644 42.486V48.3C235.644 48.78 235.746 49.122 235.95 49.326C236.154 49.518 236.508 49.614 237.012 49.614H238.218V51H236.742C235.83 51 235.146 50.79 234.69 50.37C234.234 49.95 234.006 49.26 234.006 48.3V42.486H232.728V41.136H234.006V38.652H235.644V41.136H238.218V42.486H235.644ZM241.048 39.534C240.736 39.534 240.472 39.426 240.256 39.21C240.04 38.994 239.932 38.73 239.932 38.418C239.932 38.106 240.04 37.842 240.256 37.626C240.472 37.41 240.736 37.302 241.048 37.302C241.348 37.302 241.6 37.41 241.804 37.626C242.02 37.842 242.128 38.106 242.128 38.418C242.128 38.73 242.02 38.994 241.804 39.21C241.6 39.426 241.348 39.534 241.048 39.534ZM241.84 41.136V51H240.202V41.136H241.84ZM248.934 51.162C248.01 51.162 247.17 50.952 246.414 50.532C245.67 50.112 245.082 49.518 244.65 48.75C244.23 47.97 244.02 47.07 244.02 46.05C244.02 45.042 244.236 44.154 244.668 43.386C245.112 42.606 245.712 42.012 246.468 41.604C247.224 41.184 248.07 40.974 249.006 40.974C249.942 40.974 250.788 41.184 251.544 41.604C252.3 42.012 252.894 42.6 253.326 43.368C253.77 44.136 253.992 45.03 253.992 46.05C253.992 47.07 253.764 47.97 253.308 48.75C252.864 49.518 252.258 50.112 251.49 50.532C250.722 50.952 249.87 51.162 248.934 51.162ZM248.934 49.722C249.522 49.722 250.074 49.584 250.59 49.308C251.106 49.032 251.52 48.618 251.832 48.066C252.156 47.514 252.318 46.842 252.318 46.05C252.318 45.258 252.162 44.586 251.85 44.034C251.538 43.482 251.13 43.074 250.626 42.81C250.122 42.534 249.576 42.396 248.988 42.396C248.388 42.396 247.836 42.534 247.332 42.81C246.84 43.074 246.444 43.482 246.144 44.034C245.844 44.586 245.694 45.258 245.694 46.05C245.694 46.854 245.838 47.532 246.126 48.084C246.426 48.636 246.822 49.05 247.314 49.326C247.806 49.59 248.346 49.722 248.934 49.722ZM260.952 40.956C262.152 40.956 263.124 41.322 263.868 42.054C264.612 42.774 264.984 43.818 264.984 45.186V51H263.364V45.42C263.364 44.436 263.118 43.686 262.626 43.17C262.134 42.642 261.462 42.378 260.61 42.378C259.746 42.378 259.056 42.648 258.54 43.188C258.036 43.728 257.784 44.514 257.784 45.546V51H256.146V41.136H257.784V42.54C258.108 42.036 258.546 41.646 259.098 41.37C259.662 41.094 260.28 40.956 260.952 40.956ZM278.146 51.126C276.982 51.126 275.92 50.856 274.96 50.316C274 49.764 273.238 49.002 272.674 48.03C272.122 47.046 271.846 45.942 271.846 44.718C271.846 43.494 272.122 42.396 272.674 41.424C273.238 40.44 274 39.678 274.96 39.138C275.92 38.586 276.982 38.31 278.146 38.31C279.322 38.31 280.39 38.586 281.35 39.138C282.31 39.678 283.066 40.434 283.618 41.406C284.17 42.378 284.446 43.482 284.446 44.718C284.446 45.954 284.17 47.058 283.618 48.03C283.066 49.002 282.31 49.764 281.35 50.316C280.39 50.856 279.322 51.126 278.146 51.126ZM278.146 49.704C279.022 49.704 279.808 49.5 280.504 49.092C281.212 48.684 281.764 48.102 282.16 47.346C282.568 46.59 282.772 45.714 282.772 44.718C282.772 43.71 282.568 42.834 282.16 42.09C281.764 41.334 281.218 40.752 280.522 40.344C279.826 39.936 279.034 39.732 278.146 39.732C277.258 39.732 276.466 39.936 275.77 40.344C275.074 40.752 274.522 41.334 274.114 42.09C273.718 42.834 273.52 43.71 273.52 44.718C273.52 45.714 273.718 46.59 274.114 47.346C274.522 48.102 275.074 48.684 275.77 49.092C276.478 49.5 277.27 49.704 278.146 49.704ZM290.623 42.486H288.553V51H286.915V42.486H285.637V41.136H286.915V40.434C286.915 39.33 287.197 38.526 287.761 38.022C288.337 37.506 289.255 37.248 290.515 37.248V38.616C289.795 38.616 289.285 38.76 288.985 39.048C288.697 39.324 288.553 39.786 288.553 40.434V41.136H290.623V42.486ZM301.237 38.454C302.605 38.454 303.787 38.712 304.783 39.228C305.791 39.732 306.559 40.458 307.087 41.406C307.627 42.354 307.897 43.47 307.897 44.754C307.897 46.038 307.627 47.154 307.087 48.102C306.559 49.038 305.791 49.758 304.783 50.262C303.787 50.754 302.605 51 301.237 51H297.331V38.454H301.237ZM301.237 49.65C302.857 49.65 304.093 49.224 304.945 48.372C305.797 47.508 306.223 46.302 306.223 44.754C306.223 43.194 305.791 41.976 304.927 41.1C304.075 40.224 302.845 39.786 301.237 39.786H298.969V49.65H301.237ZM310.904 39.534C310.592 39.534 310.328 39.426 310.112 39.21C309.896 38.994 309.788 38.73 309.788 38.418C309.788 38.106 309.896 37.842 310.112 37.626C310.328 37.41 310.592 37.302 310.904 37.302C311.204 37.302 311.456 37.41 311.66 37.626C311.876 37.842 311.984 38.106 311.984 38.418C311.984 38.73 311.876 38.994 311.66 39.21C311.456 39.426 311.204 39.534 310.904 39.534ZM311.696 41.136V51H310.058V41.136H311.696ZM318.556 40.974C319.408 40.974 320.152 41.16 320.788 41.532C321.436 41.904 321.916 42.372 322.228 42.936V41.136H323.884V51.216C323.884 52.116 323.692 52.914 323.308 53.61C322.924 54.318 322.372 54.87 321.652 55.266C320.944 55.662 320.116 55.86 319.168 55.86C317.872 55.86 316.792 55.554 315.928 54.942C315.064 54.33 314.554 53.496 314.398 52.44H316.018C316.198 53.04 316.57 53.52 317.134 53.88C317.698 54.252 318.376 54.438 319.168 54.438C320.068 54.438 320.8 54.156 321.364 53.592C321.94 53.028 322.228 52.236 322.228 51.216V49.146C321.904 49.722 321.424 50.202 320.788 50.586C320.152 50.97 319.408 51.162 318.556 51.162C317.68 51.162 316.882 50.946 316.162 50.514C315.454 50.082 314.896 49.476 314.488 48.696C314.08 47.916 313.876 47.028 313.876 46.032C313.876 45.024 314.08 44.142 314.488 43.386C314.896 42.618 315.454 42.024 316.162 41.604C316.882 41.184 317.68 40.974 318.556 40.974ZM322.228 46.05C322.228 45.306 322.078 44.658 321.778 44.106C321.478 43.554 321.07 43.134 320.554 42.846C320.05 42.546 319.492 42.396 318.88 42.396C318.268 42.396 317.71 42.54 317.206 42.828C316.702 43.116 316.3 43.536 316 44.088C315.7 44.64 315.55 45.288 315.55 46.032C315.55 46.788 315.7 47.448 316 48.012C316.3 48.564 316.702 48.99 317.206 49.29C317.71 49.578 318.268 49.722 318.88 49.722C319.492 49.722 320.05 49.578 320.554 49.29C321.07 48.99 321.478 48.564 321.778 48.012C322.078 47.448 322.228 46.794 322.228 46.05ZM327.498 39.534C327.186 39.534 326.922 39.426 326.706 39.21C326.49 38.994 326.382 38.73 326.382 38.418C326.382 38.106 326.49 37.842 326.706 37.626C326.922 37.41 327.186 37.302 327.498 37.302C327.798 37.302 328.05 37.41 328.254 37.626C328.47 37.842 328.578 38.106 328.578 38.418C328.578 38.73 328.47 38.994 328.254 39.21C328.05 39.426 327.798 39.534 327.498 39.534ZM328.29 41.136V51H326.652V41.136H328.29ZM333.079 42.486V48.3C333.079 48.78 333.181 49.122 333.385 49.326C333.589 49.518 333.943 49.614 334.447 49.614H335.653V51H334.177C333.265 51 332.581 50.79 332.125 50.37C331.669 49.95 331.441 49.26 331.441 48.3V42.486H330.163V41.136H331.441V38.652H333.079V41.136H335.653V42.486H333.079ZM337.026 46.032C337.026 45.024 337.23 44.142 337.638 43.386C338.046 42.618 338.604 42.024 339.312 41.604C340.032 41.184 340.83 40.974 341.706 40.974C342.57 40.974 343.32 41.16 343.956 41.532C344.592 41.904 345.066 42.372 345.378 42.936V41.136H347.034V51H345.378V49.164C345.054 49.74 344.568 50.22 343.92 50.604C343.284 50.976 342.54 51.162 341.688 51.162C340.812 51.162 340.02 50.946 339.312 50.514C338.604 50.082 338.046 49.476 337.638 48.696C337.23 47.916 337.026 47.028 337.026 46.032ZM345.378 46.05C345.378 45.306 345.228 44.658 344.928 44.106C344.628 43.554 344.22 43.134 343.704 42.846C343.2 42.546 342.642 42.396 342.03 42.396C341.418 42.396 340.86 42.54 340.356 42.828C339.852 43.116 339.45 43.536 339.15 44.088C338.85 44.64 338.7 45.288 338.7 46.032C338.7 46.788 338.85 47.448 339.15 48.012C339.45 48.564 339.852 48.99 340.356 49.29C340.86 49.578 341.418 49.722 342.03 49.722C342.642 49.722 343.2 49.578 343.704 49.29C344.22 48.99 344.628 48.564 344.928 48.012C345.228 47.448 345.378 46.794 345.378 46.05ZM351.44 37.68V51H349.802V37.68H351.44ZM358.419 44.718C358.419 43.494 358.695 42.396 359.247 41.424C359.799 40.44 360.549 39.672 361.497 39.12C362.457 38.568 363.519 38.292 364.683 38.292C366.051 38.292 367.245 38.622 368.265 39.282C369.285 39.942 370.029 40.878 370.497 42.09H368.535C368.187 41.334 367.683 40.752 367.023 40.344C366.375 39.936 365.595 39.732 364.683 39.732C363.807 39.732 363.021 39.936 362.325 40.344C361.629 40.752 361.083 41.334 360.687 42.09C360.291 42.834 360.093 43.71 360.093 44.718C360.093 45.714 360.291 46.59 360.687 47.346C361.083 48.09 361.629 48.666 362.325 49.074C363.021 49.482 363.807 49.686 364.683 49.686C365.595 49.686 366.375 49.488 367.023 49.092C367.683 48.684 368.187 48.102 368.535 47.346H370.497C370.029 48.546 369.285 49.476 368.265 50.136C367.245 50.784 366.051 51.108 364.683 51.108C363.519 51.108 362.457 50.838 361.497 50.298C360.549 49.746 359.799 48.984 359.247 48.012C358.695 47.04 358.419 45.942 358.419 44.718ZM374.573 42.738C374.861 42.174 375.269 41.736 375.797 41.424C376.337 41.112 376.991 40.956 377.759 40.956V42.648H377.327C375.491 42.648 374.573 43.644 374.573 45.636V51H372.935V41.136H374.573V42.738ZM388.65 45.69C388.65 46.002 388.632 46.332 388.596 46.68H380.712C380.772 47.652 381.102 48.414 381.702 48.966C382.314 49.506 383.052 49.776 383.916 49.776C384.624 49.776 385.212 49.614 385.68 49.29C386.16 48.954 386.496 48.51 386.688 47.958H388.452C388.188 48.906 387.66 49.68 386.868 50.28C386.076 50.868 385.092 51.162 383.916 51.162C382.98 51.162 382.14 50.952 381.396 50.532C380.664 50.112 380.088 49.518 379.668 48.75C379.248 47.97 379.038 47.07 379.038 46.05C379.038 45.03 379.242 44.136 379.65 43.368C380.058 42.6 380.628 42.012 381.36 41.604C382.104 41.184 382.956 40.974 383.916 40.974C384.852 40.974 385.68 41.178 386.4 41.586C387.12 41.994 387.672 42.558 388.056 43.278C388.452 43.986 388.65 44.79 388.65 45.69ZM386.958 45.348C386.958 44.724 386.82 44.19 386.544 43.746C386.268 43.29 385.89 42.948 385.41 42.72C384.942 42.48 384.42 42.36 383.844 42.36C383.016 42.36 382.308 42.624 381.72 43.152C381.144 43.68 380.814 44.412 380.73 45.348H386.958ZM390.2 46.032C390.2 45.024 390.404 44.142 390.812 43.386C391.22 42.618 391.778 42.024 392.486 41.604C393.206 41.184 394.004 40.974 394.88 40.974C395.744 40.974 396.494 41.16 397.13 41.532C397.766 41.904 398.24 42.372 398.552 42.936V41.136H400.208V51H398.552V49.164C398.228 49.74 397.742 50.22 397.094 50.604C396.458 50.976 395.714 51.162 394.862 51.162C393.986 51.162 393.194 50.946 392.486 50.514C391.778 50.082 391.22 49.476 390.812 48.696C390.404 47.916 390.2 47.028 390.2 46.032ZM398.552 46.05C398.552 45.306 398.402 44.658 398.102 44.106C397.802 43.554 397.394 43.134 396.878 42.846C396.374 42.546 395.816 42.396 395.204 42.396C394.592 42.396 394.034 42.54 393.53 42.828C393.026 43.116 392.624 43.536 392.324 44.088C392.024 44.64 391.874 45.288 391.874 46.032C391.874 46.788 392.024 47.448 392.324 48.012C392.624 48.564 393.026 48.99 393.53 49.29C394.034 49.578 394.592 49.722 395.204 49.722C395.816 49.722 396.374 49.578 396.878 49.29C397.394 48.99 397.802 48.564 398.102 48.012C398.402 47.448 398.552 46.794 398.552 46.05ZM404.974 42.486V48.3C404.974 48.78 405.076 49.122 405.28 49.326C405.484 49.518 405.838 49.614 406.342 49.614H407.548V51H406.072C405.16 51 404.476 50.79 404.02 50.37C403.564 49.95 403.336 49.26 403.336 48.3V42.486H402.058V41.136H403.336V38.652H404.974V41.136H407.548V42.486H404.974ZM413.834 51.162C412.91 51.162 412.07 50.952 411.314 50.532C410.57 50.112 409.982 49.518 409.55 48.75C409.13 47.97 408.92 47.07 408.92 46.05C408.92 45.042 409.136 44.154 409.568 43.386C410.012 42.606 410.612 42.012 411.368 41.604C412.124 41.184 412.97 40.974 413.906 40.974C414.842 40.974 415.688 41.184 416.444 41.604C417.2 42.012 417.794 42.6 418.226 43.368C418.67 44.136 418.892 45.03 418.892 46.05C418.892 47.07 418.664 47.97 418.208 48.75C417.764 49.518 417.158 50.112 416.39 50.532C415.622 50.952 414.77 51.162 413.834 51.162ZM413.834 49.722C414.422 49.722 414.974 49.584 415.49 49.308C416.006 49.032 416.42 48.618 416.732 48.066C417.056 47.514 417.218 46.842 417.218 46.05C417.218 45.258 417.062 44.586 416.75 44.034C416.438 43.482 416.03 43.074 415.526 42.81C415.022 42.534 414.476 42.396 413.888 42.396C413.288 42.396 412.736 42.534 412.232 42.81C411.74 43.074 411.344 43.482 411.044 44.034C410.744 44.586 410.594 45.258 410.594 46.05C410.594 46.854 410.738 47.532 411.026 48.084C411.326 48.636 411.722 49.05 412.214 49.326C412.706 49.59 413.246 49.722 413.834 49.722ZM422.684 42.738C422.972 42.174 423.38 41.736 423.908 41.424C424.448 41.112 425.102 40.956 425.87 40.956V42.648H425.438C423.602 42.648 422.684 43.644 422.684 45.636V51H421.046V41.136H422.684V42.738ZM431.253 51.162C430.497 51.162 429.819 51.036 429.219 50.784C428.619 50.52 428.145 50.16 427.797 49.704C427.449 49.236 427.257 48.702 427.221 48.102H428.913C428.961 48.594 429.189 48.996 429.597 49.308C430.017 49.62 430.563 49.776 431.235 49.776C431.859 49.776 432.351 49.638 432.711 49.362C433.071 49.086 433.251 48.738 433.251 48.318C433.251 47.886 433.059 47.568 432.675 47.364C432.291 47.148 431.697 46.938 430.893 46.734C430.161 46.542 429.561 46.35 429.093 46.158C428.637 45.954 428.241 45.66 427.905 45.276C427.581 44.88 427.419 44.364 427.419 43.728C427.419 43.224 427.569 42.762 427.869 42.342C428.169 41.922 428.595 41.592 429.147 41.352C429.699 41.1 430.329 40.974 431.037 40.974C432.129 40.974 433.011 41.25 433.683 41.802C434.355 42.354 434.715 43.11 434.763 44.07H433.125C433.089 43.554 432.879 43.14 432.495 42.828C432.123 42.516 431.619 42.36 430.983 42.36C430.395 42.36 429.927 42.486 429.579 42.738C429.231 42.99 429.057 43.32 429.057 43.728C429.057 44.052 429.159 44.322 429.363 44.538C429.579 44.742 429.843 44.91 430.155 45.042C430.479 45.162 430.923 45.3 431.487 45.456C432.195 45.648 432.771 45.84 433.215 46.032C433.659 46.212 434.037 46.488 434.349 46.86C434.673 47.232 434.841 47.718 434.853 48.318C434.853 48.858 434.703 49.344 434.403 49.776C434.103 50.208 433.677 50.55 433.125 50.802C432.585 51.042 431.961 51.162 431.253 51.162ZM437.687 51.108C437.375 51.108 437.111 51 436.895 50.784C436.679 50.568 436.571 50.304 436.571 49.992C436.571 49.68 436.679 49.416 436.895 49.2C437.111 48.984 437.375 48.876 437.687 48.876C437.987 48.876 438.239 48.984 438.443 49.2C438.659 49.416 438.767 49.68 438.767 49.992C438.767 50.304 438.659 50.568 438.443 50.784C438.239 51 437.987 51.108 437.687 51.108ZM5.292 75.454C6.66 75.454 7.842 75.712 8.838 76.228C9.846 76.732 10.614 77.458 11.142 78.406C11.682 79.354 11.952 80.47 11.952 81.754C11.952 83.038 11.682 84.154 11.142 85.102C10.614 86.038 9.846 86.758 8.838 87.262C7.842 87.754 6.66 88 5.292 88H1.386V75.454H5.292ZM5.292 86.65C6.912 86.65 8.148 86.224 9 85.372C9.852 84.508 10.278 83.302 10.278 81.754C10.278 80.194 9.846 78.976 8.982 78.1C8.13 77.224 6.9 76.786 5.292 76.786H3.024V86.65H5.292ZM14.9586 76.534C14.6466 76.534 14.3826 76.426 14.1666 76.21C13.9506 75.994 13.8426 75.73 13.8426 75.418C13.8426 75.106 13.9506 74.842 14.1666 74.626C14.3826 74.41 14.6466 74.302 14.9586 74.302C15.2586 74.302 15.5106 74.41 15.7146 74.626C15.9306 74.842 16.0386 75.106 16.0386 75.418C16.0386 75.73 15.9306 75.994 15.7146 76.21C15.5106 76.426 15.2586 76.534 14.9586 76.534ZM15.7506 78.136V88H14.1126V78.136H15.7506ZM22.0343 88.162C21.2783 88.162 20.6003 88.036 20.0003 87.784C19.4003 87.52 18.9263 87.16 18.5783 86.704C18.2303 86.236 18.0383 85.702 18.0023 85.102H19.6943C19.7423 85.594 19.9703 85.996 20.3783 86.308C20.7983 86.62 21.3443 86.776 22.0163 86.776C22.6403 86.776 23.1323 86.638 23.4923 86.362C23.8523 86.086 24.0323 85.738 24.0323 85.318C24.0323 84.886 23.8403 84.568 23.4563 84.364C23.0723 84.148 22.4783 83.938 21.6743 83.734C20.9423 83.542 20.3423 83.35 19.8743 83.158C19.4183 82.954 19.0223 82.66 18.6863 82.276C18.3623 81.88 18.2003 81.364 18.2003 80.728C18.2003 80.224 18.3503 79.762 18.6503 79.342C18.9503 78.922 19.3763 78.592 19.9283 78.352C20.4803 78.1 21.1103 77.974 21.8183 77.974C22.9103 77.974 23.7923 78.25 24.4643 78.802C25.1363 79.354 25.4963 80.11 25.5443 81.07H23.9063C23.8703 80.554 23.6603 80.14 23.2763 79.828C22.9043 79.516 22.4003 79.36 21.7643 79.36C21.1763 79.36 20.7083 79.486 20.3603 79.738C20.0123 79.99 19.8383 80.32 19.8383 80.728C19.8383 81.052 19.9403 81.322 20.1443 81.538C20.3603 81.742 20.6243 81.91 20.9363 82.042C21.2603 82.162 21.7043 82.3 22.2683 82.456C22.9763 82.648 23.5523 82.84 23.9963 83.032C24.4403 83.212 24.8183 83.488 25.1303 83.86C25.4543 84.232 25.6223 84.718 25.6343 85.318C25.6343 85.858 25.4843 86.344 25.1843 86.776C24.8843 87.208 24.4583 87.55 23.9063 87.802C23.3663 88.042 22.7423 88.162 22.0343 88.162ZM27.3345 83.05C27.3345 82.03 27.5385 81.142 27.9465 80.386C28.3545 79.618 28.9185 79.024 29.6385 78.604C30.3705 78.184 31.2045 77.974 32.1405 77.974C33.3525 77.974 34.3485 78.268 35.1285 78.856C35.9205 79.444 36.4425 80.26 36.6945 81.304H34.9305C34.7625 80.704 34.4325 80.23 33.9405 79.882C33.4605 79.534 32.8605 79.36 32.1405 79.36C31.2045 79.36 30.4485 79.684 29.8725 80.332C29.2965 80.968 29.0085 81.874 29.0085 83.05C29.0085 84.238 29.2965 85.156 29.8725 85.804C30.4485 86.452 31.2045 86.776 32.1405 86.776C32.8605 86.776 33.4605 86.608 33.9405 86.272C34.4205 85.936 34.7505 85.456 34.9305 84.832H36.6945C36.4305 85.84 35.9025 86.65 35.1105 87.262C34.3185 87.862 33.3285 88.162 32.1405 88.162C31.2045 88.162 30.3705 87.952 29.6385 87.532C28.9185 87.112 28.3545 86.518 27.9465 85.75C27.5385 84.982 27.3345 84.082 27.3345 83.05ZM43.1821 88.162C42.2581 88.162 41.4181 87.952 40.6621 87.532C39.9181 87.112 39.3301 86.518 38.8981 85.75C38.4781 84.97 38.2681 84.07 38.2681 83.05C38.2681 82.042 38.4841 81.154 38.9161 80.386C39.3601 79.606 39.9601 79.012 40.7161 78.604C41.4721 78.184 42.3181 77.974 43.2541 77.974C44.1901 77.974 45.0361 78.184 45.7921 78.604C46.5481 79.012 47.1421 79.6 47.5741 80.368C48.0181 81.136 48.2401 82.03 48.2401 83.05C48.2401 84.07 48.0121 84.97 47.5561 85.75C47.1121 86.518 46.5061 87.112 45.7381 87.532C44.9701 87.952 44.1181 88.162 43.1821 88.162ZM43.1821 86.722C43.7701 86.722 44.3221 86.584 44.8381 86.308C45.3541 86.032 45.7681 85.618 46.0801 85.066C46.4041 84.514 46.5661 83.842 46.5661 83.05C46.5661 82.258 46.4101 81.586 46.0981 81.034C45.7861 80.482 45.3781 80.074 44.8741 79.81C44.3701 79.534 43.8241 79.396 43.2361 79.396C42.6361 79.396 42.0841 79.534 41.5801 79.81C41.0881 80.074 40.6921 80.482 40.3921 81.034C40.0921 81.586 39.9421 82.258 39.9421 83.05C39.9421 83.854 40.0861 84.532 40.3741 85.084C40.6741 85.636 41.0701 86.05 41.5621 86.326C42.0541 86.59 42.5941 86.722 43.1821 86.722ZM54.0658 86.488L57.1258 78.136H58.8718L55.0018 88H53.0938L49.2238 78.136H50.9878L54.0658 86.488ZM69.4837 82.69C69.4837 83.002 69.4657 83.332 69.4297 83.68H61.5457C61.6057 84.652 61.9357 85.414 62.5357 85.966C63.1477 86.506 63.8857 86.776 64.7497 86.776C65.4577 86.776 66.0457 86.614 66.5137 86.29C66.9937 85.954 67.3297 85.51 67.5217 84.958H69.2857C69.0217 85.906 68.4937 86.68 67.7017 87.28C66.9097 87.868 65.9257 88.162 64.7497 88.162C63.8137 88.162 62.9737 87.952 62.2297 87.532C61.4977 87.112 60.9217 86.518 60.5017 85.75C60.0817 84.97 59.8717 84.07 59.8717 83.05C59.8717 82.03 60.0757 81.136 60.4837 80.368C60.8917 79.6 61.4617 79.012 62.1937 78.604C62.9377 78.184 63.7897 77.974 64.7497 77.974C65.6857 77.974 66.5137 78.178 67.2337 78.586C67.9537 78.994 68.5057 79.558 68.8897 80.278C69.2857 80.986 69.4837 81.79 69.4837 82.69ZM67.7917 82.348C67.7917 81.724 67.6537 81.19 67.3777 80.746C67.1017 80.29 66.7237 79.948 66.2437 79.72C65.7757 79.48 65.2537 79.36 64.6777 79.36C63.8497 79.36 63.1417 79.624 62.5537 80.152C61.9777 80.68 61.6477 81.412 61.5637 82.348H67.7917ZM73.2838 79.738C73.5718 79.174 73.9798 78.736 74.5078 78.424C75.0478 78.112 75.7018 77.956 76.4698 77.956V79.648H76.0378C74.2018 79.648 73.2838 80.644 73.2838 82.636V88H71.6458V78.136H73.2838V79.738ZM90.8814 75.454V76.786H87.4614V88H85.8234V76.786H82.3854V75.454H90.8814ZM97.7937 77.956C98.5377 77.956 99.2097 78.118 99.8097 78.442C100.41 78.754 100.878 79.228 101.214 79.864C101.562 80.5 101.736 81.274 101.736 82.186V88H100.116V82.42C100.116 81.436 99.8697 80.686 99.3777 80.17C98.8857 79.642 98.2137 79.378 97.3617 79.378C96.4977 79.378 95.8077 79.648 95.2917 80.188C94.7877 80.728 94.5357 81.514 94.5357 82.546V88H92.8977V74.68H94.5357V79.54C94.8597 79.036 95.3037 78.646 95.8677 78.37C96.4437 78.094 97.0857 77.956 97.7937 77.956ZM113.411 82.69C113.411 83.002 113.393 83.332 113.357 83.68H105.473C105.533 84.652 105.863 85.414 106.463 85.966C107.075 86.506 107.813 86.776 108.677 86.776C109.385 86.776 109.973 86.614 110.441 86.29C110.921 85.954 111.257 85.51 111.449 84.958H113.213C112.949 85.906 112.421 86.68 111.629 87.28C110.837 87.868 109.853 88.162 108.677 88.162C107.741 88.162 106.901 87.952 106.157 87.532C105.425 87.112 104.849 86.518 104.429 85.75C104.009 84.97 103.799 84.07 103.799 83.05C103.799 82.03 104.003 81.136 104.411 80.368C104.819 79.6 105.389 79.012 106.121 78.604C106.865 78.184 107.717 77.974 108.677 77.974C109.613 77.974 110.441 78.178 111.161 78.586C111.881 78.994 112.433 79.558 112.817 80.278C113.213 80.986 113.411 81.79 113.411 82.69ZM111.719 82.348C111.719 81.724 111.581 81.19 111.305 80.746C111.029 80.29 110.651 79.948 110.171 79.72C109.703 79.48 109.181 79.36 108.605 79.36C107.777 79.36 107.069 79.624 106.481 80.152C105.905 80.68 105.575 81.412 105.491 82.348H111.719ZM126.654 81.538C127.11 81.61 127.524 81.796 127.896 82.096C128.28 82.396 128.58 82.768 128.796 83.212C129.024 83.656 129.138 84.13 129.138 84.634C129.138 85.27 128.976 85.846 128.652 86.362C128.328 86.866 127.854 87.268 127.23 87.568C126.618 87.856 125.892 88 125.052 88H120.372V75.454H124.872C125.724 75.454 126.45 75.598 127.05 75.886C127.65 76.162 128.1 76.54 128.4 77.02C128.7 77.5 128.85 78.04 128.85 78.64C128.85 79.384 128.646 80.002 128.238 80.494C127.842 80.974 127.314 81.322 126.654 81.538ZM122.01 80.872H124.764C125.532 80.872 126.126 80.692 126.546 80.332C126.966 79.972 127.176 79.474 127.176 78.838C127.176 78.202 126.966 77.704 126.546 77.344C126.126 76.984 125.52 76.804 124.728 76.804H122.01V80.872ZM124.908 86.65C125.724 86.65 126.36 86.458 126.816 86.074C127.272 85.69 127.5 85.156 127.5 84.472C127.5 83.776 127.26 83.23 126.78 82.834C126.3 82.426 125.658 82.222 124.854 82.222H122.01V86.65H124.908ZM140.411 82.69C140.411 83.002 140.393 83.332 140.357 83.68H132.473C132.533 84.652 132.863 85.414 133.463 85.966C134.075 86.506 134.813 86.776 135.677 86.776C136.385 86.776 136.973 86.614 137.441 86.29C137.921 85.954 138.257 85.51 138.449 84.958H140.213C139.949 85.906 139.421 86.68 138.629 87.28C137.837 87.868 136.853 88.162 135.677 88.162C134.741 88.162 133.901 87.952 133.157 87.532C132.425 87.112 131.849 86.518 131.429 85.75C131.009 84.97 130.799 84.07 130.799 83.05C130.799 82.03 131.003 81.136 131.411 80.368C131.819 79.6 132.389 79.012 133.121 78.604C133.865 78.184 134.717 77.974 135.677 77.974C136.613 77.974 137.441 78.178 138.161 78.586C138.881 78.994 139.433 79.558 139.817 80.278C140.213 80.986 140.411 81.79 140.411 82.69ZM138.719 82.348C138.719 81.724 138.581 81.19 138.305 80.746C138.029 80.29 137.651 79.948 137.171 79.72C136.703 79.48 136.181 79.36 135.605 79.36C134.777 79.36 134.069 79.624 133.481 80.152C132.905 80.68 132.575 81.412 132.491 82.348H138.719ZM146.066 88.162C145.31 88.162 144.632 88.036 144.032 87.784C143.432 87.52 142.958 87.16 142.61 86.704C142.262 86.236 142.07 85.702 142.034 85.102H143.726C143.774 85.594 144.002 85.996 144.41 86.308C144.83 86.62 145.376 86.776 146.048 86.776C146.672 86.776 147.164 86.638 147.524 86.362C147.884 86.086 148.064 85.738 148.064 85.318C148.064 84.886 147.872 84.568 147.488 84.364C147.104 84.148 146.51 83.938 145.706 83.734C144.974 83.542 144.374 83.35 143.906 83.158C143.45 82.954 143.054 82.66 142.718 82.276C142.394 81.88 142.232 81.364 142.232 80.728C142.232 80.224 142.382 79.762 142.682 79.342C142.982 78.922 143.408 78.592 143.96 78.352C144.512 78.1 145.142 77.974 145.85 77.974C146.942 77.974 147.824 78.25 148.496 78.802C149.168 79.354 149.528 80.11 149.576 81.07H147.938C147.902 80.554 147.692 80.14 147.308 79.828C146.936 79.516 146.432 79.36 145.796 79.36C145.208 79.36 144.74 79.486 144.392 79.738C144.044 79.99 143.87 80.32 143.87 80.728C143.87 81.052 143.972 81.322 144.176 81.538C144.392 81.742 144.656 81.91 144.968 82.042C145.292 82.162 145.736 82.3 146.3 82.456C147.008 82.648 147.584 82.84 148.028 83.032C148.472 83.212 148.85 83.488 149.162 83.86C149.486 84.232 149.654 84.718 149.666 85.318C149.666 85.858 149.516 86.344 149.216 86.776C148.916 87.208 148.49 87.55 147.938 87.802C147.398 88.042 146.774 88.162 146.066 88.162ZM153.976 79.486V85.3C153.976 85.78 154.078 86.122 154.282 86.326C154.486 86.518 154.84 86.614 155.344 86.614H156.55V88H155.074C154.162 88 153.478 87.79 153.022 87.37C152.566 86.95 152.338 86.26 152.338 85.3V79.486H151.06V78.136H152.338V75.652H153.976V78.136H156.55V79.486H153.976ZM173.197 88H171.559L164.971 78.01V88H163.333V75.436H164.971L171.559 85.408V75.436H173.197V88ZM183.082 75.454V76.786H177.628V81.016H182.056V82.348H177.628V88H175.99V75.454H183.082ZM192.782 75.454V76.786H189.362V88H187.724V76.786H184.286V75.454H192.782ZM198.985 81.718C198.985 80.494 199.261 79.396 199.813 78.424C200.365 77.44 201.115 76.672 202.063 76.12C203.023 75.568 204.085 75.292 205.249 75.292C206.617 75.292 207.811 75.622 208.831 76.282C209.851 76.942 210.595 77.878 211.063 79.09H209.101C208.753 78.334 208.249 77.752 207.589 77.344C206.941 76.936 206.161 76.732 205.249 76.732C204.373 76.732 203.587 76.936 202.891 77.344C202.195 77.752 201.649 78.334 201.253 79.09C200.857 79.834 200.659 80.71 200.659 81.718C200.659 82.714 200.857 83.59 201.253 84.346C201.649 85.09 202.195 85.666 202.891 86.074C203.587 86.482 204.373 86.686 205.249 86.686C206.161 86.686 206.941 86.488 207.589 86.092C208.249 85.684 208.753 85.102 209.101 84.346H211.063C210.595 85.546 209.851 86.476 208.831 87.136C207.811 87.784 206.617 88.108 205.249 88.108C204.085 88.108 203.023 87.838 202.063 87.298C201.115 86.746 200.365 85.984 199.813 85.012C199.261 84.04 198.985 82.942 198.985 81.718ZM217.803 88.162C216.879 88.162 216.039 87.952 215.283 87.532C214.539 87.112 213.951 86.518 213.519 85.75C213.099 84.97 212.889 84.07 212.889 83.05C212.889 82.042 213.105 81.154 213.537 80.386C213.981 79.606 214.581 79.012 215.337 78.604C216.093 78.184 216.939 77.974 217.875 77.974C218.811 77.974 219.657 78.184 220.413 78.604C221.169 79.012 221.763 79.6 222.195 80.368C222.639 81.136 222.861 82.03 222.861 83.05C222.861 84.07 222.633 84.97 222.177 85.75C221.733 86.518 221.127 87.112 220.359 87.532C219.591 87.952 218.739 88.162 217.803 88.162ZM217.803 86.722C218.391 86.722 218.943 86.584 219.459 86.308C219.975 86.032 220.389 85.618 220.701 85.066C221.025 84.514 221.187 83.842 221.187 83.05C221.187 82.258 221.031 81.586 220.719 81.034C220.407 80.482 219.999 80.074 219.495 79.81C218.991 79.534 218.445 79.396 217.857 79.396C217.257 79.396 216.705 79.534 216.201 79.81C215.709 80.074 215.313 80.482 215.013 81.034C214.713 81.586 214.563 82.258 214.563 83.05C214.563 83.854 214.707 84.532 214.995 85.084C215.295 85.636 215.691 86.05 216.183 86.326C216.675 86.59 217.215 86.722 217.803 86.722ZM226.653 74.68V88H225.015V74.68H226.653ZM231.083 74.68V88H229.445V74.68H231.083ZM242.874 82.69C242.874 83.002 242.856 83.332 242.82 83.68H234.936C234.996 84.652 235.326 85.414 235.926 85.966C236.538 86.506 237.276 86.776 238.14 86.776C238.848 86.776 239.436 86.614 239.904 86.29C240.384 85.954 240.72 85.51 240.912 84.958H242.676C242.412 85.906 241.884 86.68 241.092 87.28C240.3 87.868 239.316 88.162 238.14 88.162C237.204 88.162 236.364 87.952 235.62 87.532C234.888 87.112 234.312 86.518 233.892 85.75C233.472 84.97 233.262 84.07 233.262 83.05C233.262 82.03 233.466 81.136 233.874 80.368C234.282 79.6 234.852 79.012 235.584 78.604C236.328 78.184 237.18 77.974 238.14 77.974C239.076 77.974 239.904 78.178 240.624 78.586C241.344 78.994 241.896 79.558 242.28 80.278C242.676 80.986 242.874 81.79 242.874 82.69ZM241.182 82.348C241.182 81.724 241.044 81.19 240.768 80.746C240.492 80.29 240.114 79.948 239.634 79.72C239.166 79.48 238.644 79.36 238.068 79.36C237.24 79.36 236.532 79.624 235.944 80.152C235.368 80.68 235.038 81.412 234.954 82.348H241.182ZM244.424 83.05C244.424 82.03 244.628 81.142 245.036 80.386C245.444 79.618 246.008 79.024 246.728 78.604C247.46 78.184 248.294 77.974 249.23 77.974C250.442 77.974 251.438 78.268 252.218 78.856C253.01 79.444 253.532 80.26 253.784 81.304H252.02C251.852 80.704 251.522 80.23 251.03 79.882C250.55 79.534 249.95 79.36 249.23 79.36C248.294 79.36 247.538 79.684 246.962 80.332C246.386 80.968 246.098 81.874 246.098 83.05C246.098 84.238 246.386 85.156 246.962 85.804C247.538 86.452 248.294 86.776 249.23 86.776C249.95 86.776 250.55 86.608 251.03 86.272C251.51 85.936 251.84 85.456 252.02 84.832H253.784C253.52 85.84 252.992 86.65 252.2 87.262C251.408 87.862 250.418 88.162 249.23 88.162C248.294 88.162 247.46 87.952 246.728 87.532C246.008 87.112 245.444 86.518 245.036 85.75C244.628 84.982 244.424 84.082 244.424 83.05ZM257.968 79.486V85.3C257.968 85.78 258.07 86.122 258.274 86.326C258.478 86.518 258.832 86.614 259.336 86.614H260.542V88H259.066C258.154 88 257.47 87.79 257.014 87.37C256.558 86.95 256.33 86.26 256.33 85.3V79.486H255.052V78.136H256.33V75.652H257.968V78.136H260.542V79.486H257.968ZM263.373 76.534C263.061 76.534 262.797 76.426 262.581 76.21C262.365 75.994 262.257 75.73 262.257 75.418C262.257 75.106 262.365 74.842 262.581 74.626C262.797 74.41 263.061 74.302 263.373 74.302C263.673 74.302 263.925 74.41 264.129 74.626C264.345 74.842 264.453 75.106 264.453 75.418C264.453 75.73 264.345 75.994 264.129 76.21C263.925 76.426 263.673 76.534 263.373 76.534ZM264.165 78.136V88H262.527V78.136H264.165ZM271.258 88.162C270.334 88.162 269.494 87.952 268.738 87.532C267.994 87.112 267.406 86.518 266.974 85.75C266.554 84.97 266.344 84.07 266.344 83.05C266.344 82.042 266.56 81.154 266.992 80.386C267.436 79.606 268.036 79.012 268.792 78.604C269.548 78.184 270.394 77.974 271.33 77.974C272.266 77.974 273.112 78.184 273.868 78.604C274.624 79.012 275.218 79.6 275.65 80.368C276.094 81.136 276.316 82.03 276.316 83.05C276.316 84.07 276.088 84.97 275.632 85.75C275.188 86.518 274.582 87.112 273.814 87.532C273.046 87.952 272.194 88.162 271.258 88.162ZM271.258 86.722C271.846 86.722 272.398 86.584 272.914 86.308C273.43 86.032 273.844 85.618 274.156 85.066C274.48 84.514 274.642 83.842 274.642 83.05C274.642 82.258 274.486 81.586 274.174 81.034C273.862 80.482 273.454 80.074 272.95 79.81C272.446 79.534 271.9 79.396 271.312 79.396C270.712 79.396 270.16 79.534 269.656 79.81C269.164 80.074 268.768 80.482 268.468 81.034C268.168 81.586 268.018 82.258 268.018 83.05C268.018 83.854 268.162 84.532 268.45 85.084C268.75 85.636 269.146 86.05 269.638 86.326C270.13 86.59 270.67 86.722 271.258 86.722ZM283.276 77.956C284.476 77.956 285.448 78.322 286.192 79.054C286.936 79.774 287.308 80.818 287.308 82.186V88H285.688V82.42C285.688 81.436 285.442 80.686 284.95 80.17C284.458 79.642 283.786 79.378 282.934 79.378C282.07 79.378 281.38 79.648 280.864 80.188C280.36 80.728 280.108 81.514 280.108 82.546V88H278.47V78.136H280.108V79.54C280.432 79.036 280.87 78.646 281.422 78.37C281.986 78.094 282.604 77.956 283.276 77.956ZM293.476 88.162C292.72 88.162 292.042 88.036 291.442 87.784C290.842 87.52 290.368 87.16 290.02 86.704C289.672 86.236 289.48 85.702 289.444 85.102H291.136C291.184 85.594 291.412 85.996 291.82 86.308C292.24 86.62 292.786 86.776 293.458 86.776C294.082 86.776 294.574 86.638 294.934 86.362C295.294 86.086 295.474 85.738 295.474 85.318C295.474 84.886 295.282 84.568 294.898 84.364C294.514 84.148 293.92 83.938 293.116 83.734C292.384 83.542 291.784 83.35 291.316 83.158C290.86 82.954 290.464 82.66 290.128 82.276C289.804 81.88 289.642 81.364 289.642 80.728C289.642 80.224 289.792 79.762 290.092 79.342C290.392 78.922 290.818 78.592 291.37 78.352C291.922 78.1 292.552 77.974 293.26 77.974C294.352 77.974 295.234 78.25 295.906 78.802C296.578 79.354 296.938 80.11 296.986 81.07H295.348C295.312 80.554 295.102 80.14 294.718 79.828C294.346 79.516 293.842 79.36 293.206 79.36C292.618 79.36 292.15 79.486 291.802 79.738C291.454 79.99 291.28 80.32 291.28 80.728C291.28 81.052 291.382 81.322 291.586 81.538C291.802 81.742 292.066 81.91 292.378 82.042C292.702 82.162 293.146 82.3 293.71 82.456C294.418 82.648 294.994 82.84 295.438 83.032C295.882 83.212 296.26 83.488 296.572 83.86C296.896 84.232 297.064 84.718 297.076 85.318C297.076 85.858 296.926 86.344 296.626 86.776C296.326 87.208 295.9 87.55 295.348 87.802C294.808 88.042 294.184 88.162 293.476 88.162ZM299.91 88.108C299.598 88.108 299.334 88 299.118 87.784C298.902 87.568 298.794 87.304 298.794 86.992C298.794 86.68 298.902 86.416 299.118 86.2C299.334 85.984 299.598 85.876 299.91 85.876C300.21 85.876 300.462 85.984 300.666 86.2C300.882 86.416 300.99 86.68 300.99 86.992C300.99 87.304 300.882 87.568 300.666 87.784C300.462 88 300.21 88.108 299.91 88.108Z" fill="white"/>
</svg>
