<svg width="1295" height="45" viewBox="0 0 1295 45" fill="none" xmlns="http://www.w3.org/2000/svg">
<path d="M40.5874 25.257C40.5874 26.2159 40.2678 26.9321 39.6285 27.4056C39.3207 27.6305 39.0011 27.8081 38.6696 27.9383C38.35 28.0567 38.0363 28.1159 37.7285 28.1159H33.8574C33.5496 28.1159 33.23 28.0567 32.8985 27.9383C32.5789 27.8081 32.2652 27.6305 31.9574 27.4056C31.6496 27.1688 31.4129 26.8788 31.2471 26.5355C31.0814 26.1804 30.9985 25.7542 30.9985 25.257V16.8223C30.9985 16.3488 31.0814 15.9344 31.2471 15.5793C31.4129 15.2123 31.6496 14.9164 31.9574 14.6914H31.9397C32.2474 14.4902 32.5671 14.3245 32.8985 14.1942C33.23 14.064 33.5496 13.9989 33.8574 13.9989H37.7285C38.0363 13.9989 38.3559 14.064 38.6874 14.1942C39.0189 14.3245 39.3385 14.4902 39.6463 14.6914H39.6285C39.9363 14.9164 40.1731 15.2123 40.3388 15.5793C40.5046 15.9344 40.5874 16.3488 40.5874 16.8223V18.0476C40.5874 18.6158 40.2323 18.8999 39.522 18.8999C38.8235 18.8999 38.4743 18.6158 38.4743 18.0476V16.9821C38.4743 16.6862 38.3855 16.4139 38.208 16.1653C38.0304 15.9167 37.7226 15.7924 37.2846 15.7924H34.3014C33.8634 15.7924 33.5556 15.9167 33.378 16.1653C33.2004 16.4139 33.1116 16.6862 33.1116 16.9821V25.1149C33.1116 25.4227 33.2004 25.7009 33.378 25.9495C33.5556 26.1981 33.8634 26.3224 34.3014 26.3224H37.2846C37.7226 26.3224 38.0304 26.1981 38.208 25.9495C38.3855 25.7009 38.4743 25.4227 38.4743 25.1149V24.085C38.4743 23.5286 38.8235 23.2504 39.522 23.2504C40.2323 23.2504 40.5874 23.5286 40.5874 24.085V25.257ZM48.6775 17.4083C48.9853 17.4083 49.299 17.4734 49.6186 17.6036C49.9501 17.7338 50.2697 17.8996 50.5775 18.1008H50.5598C50.8676 18.3258 51.1043 18.6217 51.2701 18.9887C51.4358 19.3438 51.5187 19.7582 51.5187 20.2317V25.2747C51.5187 26.2455 51.199 26.9617 50.5598 27.4234C49.9324 27.8732 49.3049 28.0981 48.6775 28.0981H45.8364C45.5286 28.0981 45.2148 28.0449 44.8952 27.9383C44.5756 27.8318 44.2619 27.6601 43.9541 27.4234C43.3148 26.9735 42.9952 26.2573 42.9952 25.2747V20.2317C42.9952 19.7582 43.0781 19.3438 43.2438 18.9887C43.4095 18.6217 43.6463 18.3258 43.9541 18.1008H43.9363C44.2323 17.8996 44.546 17.7338 44.8775 17.6036C45.2089 17.4734 45.5286 17.4083 45.8364 17.4083H48.6775ZM48.3579 26.429C48.7959 26.429 49.1037 26.3047 49.2813 26.0561C49.4707 25.8075 49.5654 25.5411 49.5654 25.257V20.2494C49.5654 19.9535 49.4707 19.6871 49.2813 19.4504C49.1037 19.2018 48.7959 19.0775 48.3579 19.0775H46.156C45.718 19.0775 45.4043 19.2018 45.2148 19.4504C45.0373 19.6871 44.9485 19.9535 44.9485 20.2494V25.257C44.9485 25.5411 45.0373 25.8075 45.2148 26.0561C45.4043 26.3047 45.718 26.429 46.156 26.429H48.3579ZM55.7883 27.4056C55.7883 27.962 55.4628 28.2402 54.8117 28.2402C54.1487 28.2402 53.8173 27.962 53.8173 27.4056V14.6737C53.8173 14.1173 54.1487 13.8391 54.8117 13.8391C55.4628 13.8391 55.7883 14.1173 55.7883 14.6737V27.4056ZM60.2623 27.4056C60.2623 27.962 59.9367 28.2402 59.2856 28.2402C58.6227 28.2402 58.2912 27.962 58.2912 27.4056V14.6737C58.2912 14.1173 58.6227 13.8391 59.2856 13.8391C59.9367 13.8391 60.2623 14.1173 60.2623 14.6737V27.4056ZM64.6653 25.257C64.6653 25.5411 64.754 25.8075 64.9316 26.0561C65.121 26.3047 65.4347 26.429 65.8727 26.429H68.0924C68.5304 26.429 68.8382 26.3224 69.0158 26.1093C69.2052 25.8844 69.2999 25.6299 69.2999 25.3458V25.1504C69.2999 24.5941 69.6254 24.3159 70.2765 24.3159C70.9276 24.3159 71.2532 24.5941 71.2532 25.1504V25.3635C71.2532 25.8607 71.1703 26.2692 71.0046 26.5888C70.8507 26.9084 70.6139 27.1866 70.2943 27.4234C69.6669 27.8732 69.0395 28.0981 68.412 28.0981H65.4288C64.8014 28.0981 64.1917 27.8732 63.5998 27.4234C63.3157 27.1866 63.0967 26.8907 62.9428 26.5355C62.7889 26.1685 62.712 25.7483 62.712 25.2747V20.2139C62.712 19.255 63.0079 18.5448 63.5998 18.0831C63.8958 17.87 64.1976 17.7042 64.5054 17.5859C64.8251 17.4556 65.1329 17.3905 65.4288 17.3905H68.412C68.6961 17.3905 69.0099 17.4497 69.3532 17.5681C69.6965 17.6747 70.0161 17.8226 70.3121 18.012C70.5962 18.2133 70.8211 18.4915 70.9868 18.8466C71.1644 19.2018 71.2532 19.622 71.2532 20.1074V22.5046C71.2532 22.7769 71.1703 23.0196 71.0046 23.2327C70.8507 23.4458 70.5607 23.5523 70.1345 23.5523H66.2989C65.8727 23.5523 65.6478 23.2741 65.6241 22.7177C65.6241 22.1613 65.8491 21.8831 66.2989 21.8831H69.3177L69.2999 20.2317C69.2999 19.9357 69.2052 19.6694 69.0158 19.4326C68.8382 19.184 68.5304 19.0597 68.0924 19.0597H65.8727C65.4347 19.0597 65.121 19.184 64.9316 19.4326C64.754 19.6694 64.6653 19.9357 64.6653 20.2317V25.257ZM82.0567 25.2747C82.0567 26.2455 81.737 26.9617 81.0978 27.4234C80.4703 27.8732 79.8429 28.0981 79.2155 28.0981H76.2323C75.6049 28.0981 74.9952 27.8732 74.4033 27.4234C74.1192 27.1866 73.9002 26.8907 73.7463 26.5355C73.5924 26.1685 73.5154 25.7483 73.5154 25.2747V20.2139C73.5154 19.255 73.8114 18.5448 74.4033 18.0831C74.6992 17.87 75.0011 17.7042 75.3089 17.5859C75.6285 17.4556 75.9363 17.3905 76.2323 17.3905H79.2155C79.4996 17.3905 79.8133 17.4497 80.1566 17.5681C80.4999 17.6747 80.8196 17.8226 81.1155 18.012C81.3996 18.2133 81.6246 18.4915 81.7903 18.8466C81.9679 19.2018 82.0567 19.622 82.0567 20.1074V20.9953C82.0567 21.5635 81.7311 21.8476 81.08 21.8476C80.4289 21.8476 80.1034 21.5635 80.1034 20.9953V20.2317C80.1034 19.9357 80.0087 19.6694 79.8192 19.4326C79.6417 19.184 79.3339 19.0597 78.8959 19.0597H76.6762C76.2382 19.0597 75.9245 19.184 75.7351 19.4326C75.5575 19.6694 75.4687 19.9357 75.4687 20.2317V25.257C75.4687 25.5411 75.5575 25.8075 75.7351 26.0561C75.9245 26.3047 76.2382 26.429 76.6762 26.429H78.8959C79.3339 26.429 79.6417 26.3047 79.8192 26.0561C80.0087 25.8075 80.1034 25.5411 80.1034 25.257V24.4402C80.1034 23.8838 80.4289 23.6056 81.08 23.6056C81.7311 23.6056 82.0567 23.8838 82.0567 24.4402V25.2747ZM86.6104 19.0775V25.5411C86.6104 25.8489 86.6755 26.0857 86.8057 26.2514C86.936 26.4171 87.2142 26.5 87.6403 26.5H88.102C88.5637 26.5 88.7827 26.7723 88.759 27.3168C88.759 27.8732 88.54 28.1514 88.102 28.1514H87.516C87.1372 28.1514 86.7821 28.1041 86.4506 28.0094C86.1191 27.9028 85.7995 27.7548 85.4917 27.5654V27.5832C84.9116 27.2044 84.6216 26.5296 84.6216 25.5589V19.0775H83.9291C83.5029 19.0775 83.278 18.7993 83.2543 18.2429C83.2543 17.6865 83.4792 17.4083 83.9291 17.4083H84.6216V15.5083C84.6216 14.94 84.959 14.6559 85.6338 14.6559C86.2849 14.6559 86.6104 14.94 86.6104 15.5083V17.4083H88.0843C88.546 17.4083 88.765 17.6865 88.7413 18.2429C88.7413 18.7993 88.5223 19.0775 88.0843 19.0775H86.6104ZM92.3081 27.3523C92.3081 27.9206 91.9826 28.2047 91.3315 28.2047C90.6685 28.2047 90.3371 27.9206 90.3371 27.3523V18.1896C90.3371 17.6214 90.6685 17.3373 91.3315 17.3373C91.9826 17.3373 92.3081 17.6214 92.3081 18.1896V27.3523ZM92.681 15.0999C92.681 15.4787 92.5508 15.7983 92.2904 16.0587C92.0299 16.3192 91.7103 16.4494 91.3315 16.4494C90.9527 16.4494 90.6271 16.3192 90.3548 16.0587C90.0944 15.7983 89.9642 15.4787 89.9642 15.0999C89.9642 14.7092 90.0944 14.3836 90.3548 14.1232C90.6271 13.8628 90.9527 13.7325 91.3315 13.7325C91.7103 13.7325 92.0299 13.8628 92.2904 14.1232C92.5508 14.3836 92.681 14.7092 92.681 15.0999ZM96.7111 27.3523C96.7111 27.6365 96.6105 27.8495 96.4092 27.9916C96.208 28.1337 95.989 28.2047 95.7522 28.2047C95.1011 28.2047 94.7755 27.9206 94.7755 27.3523V14.7447C94.7755 14.1765 95.1011 13.8924 95.7522 13.8924C96.4033 13.8924 96.7288 14.1765 96.7288 14.7447V17.4083H100.476C101.079 17.4083 101.707 17.6332 102.358 18.0831C102.997 18.5329 103.317 19.2432 103.317 20.2139V25.5056C103.317 26.4882 103.027 27.1629 102.447 27.5299C101.867 27.9087 101.204 28.0981 100.458 28.0981H98.3625C97.9363 28.0981 97.7114 27.8199 97.6877 27.2636C97.6877 26.7072 97.9127 26.429 98.3625 26.429H100.138C100.576 26.429 100.89 26.352 101.079 26.1981C101.269 26.0324 101.363 25.7956 101.363 25.4878V20.3738C101.363 20.066 101.269 19.77 101.079 19.4859L101.097 19.5036C100.943 19.2195 100.63 19.0775 100.156 19.0775H96.7288L96.7111 27.3523ZM107.517 27.4056C107.517 27.962 107.191 28.2402 106.54 28.2402C105.877 28.2402 105.546 27.962 105.546 27.4056V14.6737C105.546 14.1173 105.877 13.8391 106.54 13.8391C107.191 13.8391 107.517 14.1173 107.517 14.6737V27.4056ZM111.92 25.257C111.92 25.5411 112.008 25.8075 112.186 26.0561C112.375 26.3047 112.689 26.429 113.127 26.429H115.347C115.785 26.429 116.093 26.3224 116.27 26.1093C116.46 25.8844 116.554 25.6299 116.554 25.3458V25.1504C116.554 24.5941 116.88 24.3159 117.531 24.3159C118.182 24.3159 118.508 24.5941 118.508 25.1504V25.3635C118.508 25.8607 118.425 26.2692 118.259 26.5888C118.105 26.9084 117.868 27.1866 117.549 27.4234C116.921 27.8732 116.294 28.0981 115.666 28.0981H112.683C112.056 28.0981 111.446 27.8732 110.854 27.4234C110.57 27.1866 110.351 26.8907 110.197 26.5355C110.043 26.1685 109.966 25.7483 109.966 25.2747V20.2139C109.966 19.255 110.262 18.5448 110.854 18.0831C111.15 17.87 111.452 17.7042 111.76 17.5859C112.079 17.4556 112.387 17.3905 112.683 17.3905H115.666C115.95 17.3905 116.264 17.4497 116.608 17.5681C116.951 17.6747 117.27 17.8226 117.566 18.012C117.851 18.2133 118.075 18.4915 118.241 18.8466C118.419 19.2018 118.508 19.622 118.508 20.1074V22.5046C118.508 22.7769 118.425 23.0196 118.259 23.2327C118.105 23.4458 117.815 23.5523 117.389 23.5523H113.553C113.127 23.5523 112.902 23.2741 112.878 22.7177C112.878 22.1613 113.103 21.8831 113.553 21.8831H116.572L116.554 20.2317C116.554 19.9357 116.46 19.6694 116.27 19.4326C116.093 19.184 115.785 19.0597 115.347 19.0597H113.127C112.689 19.0597 112.375 19.184 112.186 19.4326C112.008 19.6694 111.92 19.9357 111.92 20.2317V25.257ZM126.541 21.8831C126.837 21.8831 127.151 21.9541 127.482 22.0962C127.825 22.2264 128.145 22.3922 128.441 22.5934H128.423C128.731 22.8183 128.968 23.1084 129.133 23.4635C129.299 23.8187 129.382 24.2448 129.382 24.742V25.2747C129.382 26.2455 129.062 26.9617 128.423 27.4234C128.115 27.6601 127.802 27.8318 127.482 27.9383C127.162 28.0449 126.849 28.0981 126.541 28.0981H123.522C123.214 28.0981 122.901 28.0449 122.581 27.9383C122.261 27.8318 121.948 27.6601 121.64 27.4234C121.001 26.9735 120.681 26.2573 120.681 25.2747V25.0617C120.681 24.5526 121.007 24.304 121.658 24.3159C122.321 24.3159 122.652 24.5645 122.652 25.0617V25.257C122.652 25.5411 122.741 25.8075 122.918 26.0561C123.096 26.3047 123.41 26.429 123.86 26.429H126.203C126.653 26.429 126.967 26.3047 127.145 26.0561C127.322 25.8075 127.411 25.5411 127.411 25.257V24.7598C127.411 24.6059 127.387 24.4579 127.34 24.3159C127.304 24.1738 127.239 24.0495 127.145 23.943C127.05 23.8246 126.926 23.7299 126.772 23.6588C126.618 23.5878 126.428 23.5523 126.203 23.5523H123.611C123.007 23.5523 122.374 23.3392 121.711 22.913C121.083 22.5105 120.77 21.818 120.77 20.8354V20.2317C120.77 19.7582 120.853 19.3438 121.018 18.9887C121.184 18.6217 121.421 18.3258 121.729 18.1008H121.711C122.007 17.8996 122.321 17.7338 122.652 17.6036C122.984 17.4734 123.303 17.4083 123.611 17.4083H126.452C126.76 17.4083 127.074 17.4734 127.393 17.6036C127.725 17.7338 128.044 17.8996 128.352 18.1008H128.334C128.642 18.3258 128.879 18.6217 129.045 18.9887C129.21 19.3438 129.293 19.7582 129.293 20.2317V20.3915C129.293 20.6401 129.21 20.8236 129.045 20.942C128.879 21.0485 128.636 21.1077 128.317 21.1196C127.665 21.1314 127.34 20.8887 127.34 20.3915V20.2494C127.34 19.9535 127.245 19.6871 127.056 19.4504C126.878 19.2018 126.57 19.0775 126.132 19.0775H123.931C123.493 19.0775 123.179 19.2018 122.989 19.4504C122.812 19.6871 122.723 19.9535 122.723 20.2494V20.6756C122.723 20.9834 122.812 21.2616 122.989 21.5102C123.179 21.7588 123.493 21.8831 123.931 21.8831H126.541Z" fill="white"/>
<rect x="1.38728" y="1.38728" width="157.416" height="41.422" rx="20.711" stroke="url(#paint0_linear_63_1630)" stroke-width="2.77457"/>
<rect x="181.19" width="88.8902" height="44.1965" rx="22.0983" fill="url(#paint1_linear_63_1630)"/>
<path d="M218.726 15.7391L214.838 27.672V27.6542C214.767 27.8318 214.666 27.9798 214.536 28.0981C214.417 28.2047 214.269 28.258 214.092 28.258C213.997 28.258 213.902 28.2461 213.808 28.2224C213.725 28.2106 213.636 28.1928 213.541 28.1692H213.559C212.884 27.9561 212.636 27.5773 212.813 27.0327L216.862 14.727C216.921 14.5375 217.022 14.3777 217.164 14.2475C217.318 14.1173 217.495 14.0403 217.697 14.0167C217.898 13.9811 218.093 13.9575 218.283 13.9456C218.472 13.922 218.62 13.9101 218.726 13.9101C218.833 13.9101 218.981 13.922 219.17 13.9456C219.36 13.9575 219.555 13.9752 219.756 13.9989C219.922 14.0226 220.082 14.1114 220.236 14.2653C220.402 14.4192 220.526 14.5731 220.609 14.727C221.272 16.7631 221.941 18.817 222.615 20.8887C223.302 22.9485 223.977 24.9965 224.64 27.0327C224.805 27.5773 224.557 27.9561 223.894 28.1692C223.799 28.1928 223.71 28.2106 223.627 28.2224C223.556 28.2461 223.474 28.258 223.379 28.258C223.213 28.258 223.059 28.2047 222.917 28.0981C222.787 27.9798 222.692 27.8318 222.633 27.6542V27.672L218.726 15.7391ZM220.058 23.8364C220.058 24.2152 219.922 24.5408 219.65 24.8131C219.389 25.0735 219.07 25.2037 218.691 25.2037C218.312 25.2037 217.993 25.0735 217.732 24.8131C217.472 24.5408 217.341 24.2152 217.341 23.8364C217.341 23.4576 217.472 23.138 217.732 22.8775C217.993 22.6052 218.312 22.4691 218.691 22.4691C219.07 22.4691 219.389 22.6052 219.65 22.8775C219.922 23.138 220.058 23.4576 220.058 23.8364ZM227.988 27.3523C227.988 27.9206 227.662 28.2047 227.011 28.2047C226.336 28.2047 225.999 27.9206 225.999 27.3523V20.0008C225.999 19.0301 226.289 18.3553 226.869 17.9765C227.449 17.5977 228.118 17.4083 228.876 17.4083H230.9C231.338 17.4083 231.557 17.6865 231.557 18.2429C231.581 18.7993 231.362 19.0775 230.9 19.0775H229.018C228.591 19.0775 228.313 19.1603 228.183 19.3261C228.053 19.4918 227.988 19.7227 227.988 20.0186V27.3523ZM235.385 19.0775V25.5411C235.385 25.8489 235.45 26.0857 235.58 26.2514C235.71 26.4171 235.988 26.5 236.414 26.5H236.876C237.338 26.5 237.557 26.7723 237.533 27.3168C237.533 27.8732 237.314 28.1514 236.876 28.1514H236.29C235.911 28.1514 235.556 28.1041 235.225 28.0094C234.893 27.9028 234.574 27.7548 234.266 27.5654V27.5832C233.686 27.2044 233.396 26.5296 233.396 25.5589V19.0775H232.703C232.277 19.0775 232.052 18.7993 232.028 18.2429C232.028 17.6865 232.253 17.4083 232.703 17.4083H233.396V15.5083C233.396 14.94 233.733 14.6559 234.408 14.6559C235.059 14.6559 235.385 14.94 235.385 15.5083V17.4083H236.858C237.32 17.4083 237.539 17.6865 237.515 18.2429C237.515 18.7993 237.296 19.0775 236.858 19.0775H235.385Z" fill="white"/>
<path d="M335.396 21.6878C335.396 21.1077 335.751 20.8177 336.461 20.8177C337.159 20.8177 337.509 21.0959 337.509 21.6523V25.257C337.509 26.2159 337.189 26.9321 336.55 27.4056C336.242 27.6305 335.922 27.8081 335.591 27.9383C335.271 28.0567 334.958 28.1159 334.65 28.1159H330.956C330.648 28.1159 330.329 28.0567 329.997 27.9383C329.678 27.8081 329.364 27.6305 329.056 27.4056C328.748 27.1688 328.512 26.8788 328.346 26.5355C328.18 26.1804 328.097 25.7542 328.097 25.257V16.8223C328.097 16.3369 328.18 15.9167 328.346 15.5615C328.524 15.2064 328.76 14.9164 329.056 14.6914H329.038C329.346 14.4902 329.666 14.3245 329.997 14.1942C330.329 14.064 330.648 13.9989 330.956 13.9989H334.472C334.78 13.9989 335.1 14.064 335.431 14.1942C335.763 14.3245 336.082 14.4902 336.39 14.6914H336.372C337 15.1531 337.313 15.8634 337.313 16.8223V18.0476C337.313 18.6158 336.964 18.8999 336.266 18.8999C335.567 18.8999 335.218 18.6158 335.218 18.0476V16.9821C335.218 16.6862 335.129 16.4139 334.952 16.1653C334.774 15.9167 334.466 15.7924 334.028 15.7924H331.418C330.968 15.7924 330.654 15.9167 330.477 16.1653C330.299 16.4139 330.21 16.6862 330.21 16.9821V25.1149C330.21 25.2688 330.228 25.4168 330.264 25.5589C330.311 25.7009 330.382 25.8311 330.477 25.9495C330.572 26.0561 330.696 26.1448 330.85 26.2159C331.004 26.2869 331.193 26.3224 331.418 26.3224H334.206C334.644 26.3224 334.952 26.1981 335.129 25.9495C335.307 25.7009 335.396 25.4227 335.396 25.1149V21.6878ZM334.561 21.4925C334.561 21.6937 334.52 21.889 334.437 22.0784C334.366 22.256 334.259 22.4099 334.117 22.5401C333.987 22.6704 333.833 22.7769 333.655 22.8598C333.478 22.9308 333.282 22.9663 333.069 22.9663C332.667 22.9663 332.324 22.8242 332.039 22.5401C331.755 22.256 331.613 21.9068 331.613 21.4925C331.613 21.09 331.755 20.7467 332.039 20.4625C332.324 20.1784 332.667 20.0364 333.069 20.0364C333.282 20.0364 333.478 20.0778 333.655 20.1607C333.833 20.2317 333.987 20.3323 334.117 20.4625C334.259 20.5928 334.366 20.7467 334.437 20.9242C334.52 21.1018 334.561 21.2912 334.561 21.4925ZM342.758 28.0981C342.391 28.0981 342.041 28.0508 341.71 27.9561C341.378 27.8495 341.059 27.7016 340.751 27.5122V27.5299C340.171 27.1629 339.881 26.4882 339.881 25.5056V24.6355C339.881 24.1501 339.964 23.7299 340.13 23.3747C340.307 23.0077 340.55 22.7177 340.858 22.5046H340.84C341.136 22.3034 341.449 22.1554 341.781 22.0607C342.112 21.9541 342.432 21.9009 342.74 21.9009H346.664V20.2494C346.664 19.9535 346.569 19.6871 346.38 19.4504C346.202 19.2018 345.895 19.0775 345.457 19.0775H343.379C342.929 19.0775 342.616 19.1899 342.438 19.4149C342.272 19.6279 342.189 19.8825 342.189 20.1784V20.3205C342.189 20.9361 341.858 21.2439 341.195 21.2439C340.532 21.2439 340.201 20.9361 340.201 20.3205V20.1607C340.201 19.6753 340.283 19.2669 340.449 18.9354C340.627 18.6039 340.863 18.3258 341.159 18.1008H341.142C341.449 17.8996 341.769 17.7338 342.101 17.6036C342.444 17.4734 342.769 17.4083 343.077 17.4083H345.776C346.072 17.4083 346.386 17.4734 346.717 17.6036C347.061 17.7338 347.38 17.8996 347.676 18.1008H347.659C347.966 18.3258 348.203 18.6217 348.369 18.9887C348.535 19.3438 348.617 19.7582 348.617 20.2317V27.3523C348.617 27.9206 348.292 28.2047 347.641 28.2047C347.511 28.2047 347.386 28.1988 347.268 28.1869C347.161 28.1751 347.061 28.1455 346.966 28.0981C346.883 28.039 346.812 27.962 346.753 27.8673C346.706 27.7608 346.682 27.6246 346.682 27.4589L346.664 23.5701H343.077C342.817 23.5701 342.616 23.5996 342.473 23.6588C342.331 23.718 342.219 23.8127 342.136 23.943C342.041 24.1442 341.97 24.304 341.923 24.4224C341.887 24.5289 341.87 24.6532 341.87 24.7953V25.4878C341.87 25.7956 341.959 26.0324 342.136 26.1981C342.325 26.352 342.645 26.429 343.095 26.429H345.084C345.522 26.429 345.741 26.7072 345.741 27.2636C345.741 27.5003 345.688 27.7016 345.581 27.8673C345.474 28.0212 345.309 28.0981 345.084 28.0981H342.758ZM356.419 20.3738C356.419 20.2199 356.395 20.0719 356.348 19.9298C356.301 19.7759 356.242 19.6339 356.171 19.5036C356.017 19.2195 355.697 19.0775 355.212 19.0775H354.075C353.59 19.0775 353.264 19.2195 353.099 19.5036C352.956 19.7759 352.885 20.066 352.885 20.3738V27.4056C352.885 27.962 352.56 28.2402 351.909 28.2402C351.234 28.2402 350.897 27.962 350.897 27.4056V20.2139C350.897 19.2432 351.216 18.5329 351.856 18.0831C352.507 17.6332 353.14 17.4083 353.756 17.4083H355.549C355.821 17.4083 356.123 17.4616 356.455 17.5681C356.786 17.6747 357.106 17.8404 357.414 18.0653C357.709 17.8404 358.017 17.6747 358.337 17.5681C358.668 17.4616 358.982 17.4083 359.278 17.4083H361.054C361.681 17.4083 362.309 17.6332 362.936 18.0831C363.587 18.5211 363.913 19.2314 363.913 20.2139V27.4056C363.913 27.962 363.581 28.2402 362.918 28.2402C362.255 28.2402 361.924 27.962 361.924 27.4056V20.3738C361.924 20.2199 361.906 20.066 361.871 19.9121C361.835 19.7582 361.77 19.6161 361.675 19.4859L361.693 19.5036C361.598 19.3498 361.48 19.2432 361.338 19.184C361.196 19.113 360.989 19.0775 360.716 19.0775H359.598C359.1 19.0775 358.775 19.2195 358.621 19.5036C358.467 19.7641 358.39 20.0541 358.39 20.3738V27.4056C358.39 27.962 358.065 28.2402 357.414 28.2402C356.751 28.2402 356.419 27.962 356.419 27.4056V20.3738ZM368.077 27.3523C368.077 27.9206 367.751 28.2047 367.1 28.2047C366.437 28.2047 366.106 27.9206 366.106 27.3523V18.1896C366.106 17.6214 366.437 17.3373 367.1 17.3373C367.751 17.3373 368.077 17.6214 368.077 18.1896V27.3523ZM368.45 15.0999C368.45 15.4787 368.32 15.7983 368.059 16.0587C367.799 16.3192 367.479 16.4494 367.1 16.4494C366.722 16.4494 366.396 16.3192 366.124 16.0587C365.863 15.7983 365.733 15.4787 365.733 15.0999C365.733 14.7092 365.863 14.3836 366.124 14.1232C366.396 13.8628 366.722 13.7325 367.1 13.7325C367.479 13.7325 367.799 13.8628 368.059 14.1232C368.32 14.3836 368.45 14.7092 368.45 15.0999ZM372.498 27.3523C372.498 27.9206 372.172 28.2047 371.521 28.2047C370.87 28.2047 370.544 27.9206 370.544 27.3523V20.2139C370.544 19.7286 370.621 19.3083 370.775 18.9532C370.929 18.598 371.172 18.308 371.503 18.0831C372.131 17.6332 372.758 17.4083 373.386 17.4083H376.245C376.848 17.4083 377.476 17.6332 378.127 18.0831C378.766 18.5329 379.086 19.2432 379.086 20.2139V27.3523C379.086 27.9206 378.76 28.2047 378.109 28.2047C377.458 28.2047 377.132 27.9206 377.132 27.3523V20.3738C377.132 20.066 377.038 19.77 376.848 19.4859L376.866 19.5036C376.712 19.2195 376.398 19.0775 375.925 19.0775H373.705C373.22 19.0775 372.9 19.2195 372.746 19.5036C372.581 19.7522 372.498 20.0423 372.498 20.3738V27.3523ZM384.242 26.8551C383.934 26.8551 383.614 26.8019 383.283 26.6953C382.963 26.5888 382.649 26.4349 382.342 26.2336C381.702 25.8193 381.383 25.1208 381.383 24.1383V20.1251C381.383 19.6279 381.465 19.2018 381.631 18.8466C381.809 18.4915 382.046 18.2133 382.342 18.012C382.649 17.8226 382.963 17.6747 383.283 17.5681C383.602 17.4616 383.916 17.4083 384.224 17.4083H387.207C387.503 17.4083 387.811 17.4734 388.13 17.6036C388.45 17.7338 388.746 17.8996 389.018 18.1008C389.29 18.3258 389.51 18.6217 389.675 18.9887C389.841 19.3557 389.924 19.77 389.924 20.2317V27.7608C389.924 28.258 389.841 28.6782 389.675 29.0215C389.521 29.3767 389.302 29.6726 389.018 29.9094C388.746 30.1343 388.45 30.306 388.13 30.4243C387.823 30.5546 387.515 30.6197 387.207 30.6197H384.224C383.596 30.6197 382.963 30.4362 382.324 30.0692C381.992 29.8798 381.75 29.6371 381.596 29.3412C381.454 29.0452 381.383 28.7019 381.383 28.3112V28.0981C381.383 27.8614 381.46 27.672 381.613 27.5299C381.767 27.3879 382.01 27.3168 382.342 27.3168C383.004 27.3879 383.336 27.6483 383.336 28.0981V28.2935C383.336 28.4237 383.425 28.5658 383.602 28.7196C383.792 28.8735 384.105 28.9505 384.543 28.9505H386.763C387.201 28.9505 387.509 28.8262 387.686 28.5776C387.876 28.329 387.971 28.0508 387.971 27.743V20.2494C387.971 19.9535 387.876 19.6871 387.686 19.4504C387.509 19.2018 387.201 19.0775 386.763 19.0775H384.543C384.105 19.0775 383.792 19.2018 383.602 19.4504C383.425 19.6871 383.336 19.9535 383.336 20.2494V23.9962C383.336 24.2922 383.425 24.5704 383.602 24.8308C383.792 25.0794 384.105 25.2037 384.543 25.2037H386.39C386.816 25.2037 387.029 25.476 387.029 26.0205C387.029 26.2692 386.976 26.4704 386.87 26.6243C386.775 26.7782 386.615 26.8551 386.39 26.8551H384.242Z" fill="white"/>
<rect x="298.468" y="1.38728" width="121.416" height="41.422" rx="20.711" stroke="url(#paint2_linear_63_1630)" stroke-width="2.77457"/>
<path d="M484.018 19.9831C484.326 19.9831 484.645 20.0482 484.977 20.1784C485.308 20.3086 485.628 20.4803 485.936 20.6934H485.918C486.226 20.9065 486.462 21.1965 486.628 21.5635C486.794 21.9305 486.877 22.3507 486.877 22.8242V25.257C486.877 26.2159 486.557 26.9321 485.918 27.4056C485.61 27.6305 485.29 27.8081 484.959 27.9383C484.639 28.0567 484.326 28.1159 484.018 28.1159H480.147C479.839 28.1159 479.519 28.0567 479.188 27.9383C478.868 27.8081 478.554 27.6305 478.247 27.4056C477.607 26.9321 477.288 26.2159 477.288 25.257V24.085C477.288 23.5286 477.637 23.2504 478.335 23.2504C479.046 23.2504 479.401 23.5286 479.401 24.085V25.1149C479.401 25.4227 479.49 25.7009 479.667 25.9495C479.845 26.1981 480.153 26.3224 480.591 26.3224H483.574C484.012 26.3224 484.32 26.1981 484.497 25.9495C484.675 25.7009 484.764 25.4227 484.764 25.1149V22.9663C484.764 22.6704 484.675 22.3981 484.497 22.1495C484.32 21.889 484.012 21.7588 483.574 21.7588H480.147C479.531 21.7588 478.898 21.5339 478.247 21.084C477.607 20.5868 477.288 19.8706 477.288 18.9354V16.8223C477.288 16.3488 477.371 15.9344 477.536 15.5793C477.702 15.2123 477.939 14.9164 478.247 14.6914H478.229C478.537 14.4902 478.856 14.3245 479.188 14.1942C479.519 14.064 479.839 13.9989 480.147 13.9989H484.018C484.326 13.9989 484.645 14.064 484.977 14.1942C485.308 14.3245 485.628 14.4902 485.936 14.6914H485.918C486.226 14.9164 486.462 15.2123 486.628 15.5793C486.794 15.9344 486.877 16.3488 486.877 16.8223V17.87C486.877 18.4264 486.522 18.7046 485.811 18.7046C485.113 18.7046 484.764 18.4264 484.764 17.87V16.9821C484.764 16.6862 484.675 16.4139 484.497 16.1653C484.32 15.9167 484.012 15.7924 483.574 15.7924H480.591C480.153 15.7924 479.845 15.9167 479.667 16.1653C479.49 16.4139 479.401 16.6862 479.401 16.9821V18.7934C479.401 19.1011 479.49 19.3793 479.667 19.6279C479.845 19.8647 480.153 19.9831 480.591 19.9831H484.018ZM493.096 28.0981C492.67 28.0981 492.445 27.8199 492.422 27.2636C492.422 26.7072 492.647 26.429 493.096 26.429H494.89C495.328 26.429 495.636 26.3047 495.813 26.0561C496.003 25.8075 496.097 25.5411 496.097 25.257V20.2494C496.097 19.9535 496.003 19.6812 495.813 19.4326C495.636 19.1722 495.322 19.0538 494.872 19.0775H491.463V29.7496C491.463 30.306 491.137 30.5842 490.486 30.5842C489.835 30.5842 489.509 30.3 489.509 29.7318V18.456C489.509 18.0416 489.616 17.7634 489.829 17.6214C490.042 17.4793 490.303 17.4083 490.61 17.4083H495.21C495.517 17.4083 495.825 17.4616 496.133 17.5681C496.453 17.6747 496.778 17.8226 497.11 18.012C497.394 18.2133 497.619 18.4974 497.784 18.8644C497.962 19.2195 498.051 19.6398 498.051 20.1251V25.3813C498.051 26.352 497.737 27.0445 497.11 27.4589C496.447 27.8851 495.813 28.0981 495.21 28.0981H493.096ZM505.961 17.4083C506.268 17.4083 506.582 17.4734 506.902 17.6036C507.233 17.7338 507.553 17.8996 507.861 18.1008H507.843C508.151 18.3258 508.387 18.6217 508.553 18.9887C508.719 19.3438 508.802 19.7582 508.802 20.2317V25.2747C508.802 26.2455 508.482 26.9617 507.843 27.4234C507.215 27.8732 506.588 28.0981 505.961 28.0981H503.119C502.812 28.0981 502.498 28.0449 502.178 27.9383C501.859 27.8318 501.545 27.6601 501.237 27.4234C500.598 26.9735 500.278 26.2573 500.278 25.2747V20.2317C500.278 19.7582 500.361 19.3438 500.527 18.9887C500.693 18.6217 500.929 18.3258 501.237 18.1008H501.219C501.515 17.8996 501.829 17.7338 502.161 17.6036C502.492 17.4734 502.812 17.4083 503.119 17.4083H505.961ZM505.641 26.429C506.079 26.429 506.387 26.3047 506.564 26.0561C506.754 25.8075 506.848 25.5411 506.848 25.257V20.2494C506.848 19.9535 506.754 19.6871 506.564 19.4504C506.387 19.2018 506.079 19.0775 505.641 19.0775H503.439C503.001 19.0775 502.687 19.2018 502.498 19.4504C502.32 19.6871 502.232 19.9535 502.232 20.2494V25.257C502.232 25.5411 502.32 25.8075 502.498 26.0561C502.687 26.3047 503.001 26.429 503.439 26.429H505.641ZM512.965 27.3523C512.965 27.9206 512.639 28.2047 511.988 28.2047C511.313 28.2047 510.976 27.9206 510.976 27.3523V20.0008C510.976 19.0301 511.266 18.3553 511.846 17.9765C512.426 17.5977 513.095 17.4083 513.853 17.4083H515.877C516.315 17.4083 516.534 17.6865 516.534 18.2429C516.558 18.7993 516.339 19.0775 515.877 19.0775H513.995C513.569 19.0775 513.29 19.1603 513.16 19.3261C513.03 19.4918 512.965 19.7227 512.965 20.0186V27.3523ZM520.362 19.0775V25.5411C520.362 25.8489 520.427 26.0857 520.557 26.2514C520.687 26.4171 520.965 26.5 521.392 26.5H521.853C522.315 26.5 522.534 26.7723 522.51 27.3168C522.51 27.8732 522.291 28.1514 521.853 28.1514H521.267C520.888 28.1514 520.533 28.1041 520.202 28.0094C519.87 27.9028 519.551 27.7548 519.243 27.5654V27.5832C518.663 27.2044 518.373 26.5296 518.373 25.5589V19.0775H517.68C517.254 19.0775 517.029 18.7993 517.006 18.2429C517.006 17.6865 517.23 17.4083 517.68 17.4083H518.373V15.5083C518.373 14.94 518.71 14.6559 519.385 14.6559C520.036 14.6559 520.362 14.94 520.362 15.5083V17.4083H521.836C522.297 17.4083 522.516 17.6865 522.493 18.2429C522.493 18.7993 522.274 19.0775 521.836 19.0775H520.362ZM529.824 21.8831C530.12 21.8831 530.434 21.9541 530.765 22.0962C531.108 22.2264 531.428 22.3922 531.724 22.5934H531.706C532.014 22.8183 532.251 23.1084 532.416 23.4635C532.582 23.8187 532.665 24.2448 532.665 24.742V25.2747C532.665 26.2455 532.345 26.9617 531.706 27.4234C531.398 27.6601 531.085 27.8318 530.765 27.9383C530.445 28.0449 530.132 28.0981 529.824 28.0981H526.805C526.497 28.0981 526.184 28.0449 525.864 27.9383C525.544 27.8318 525.231 27.6601 524.923 27.4234C524.284 26.9735 523.964 26.2573 523.964 25.2747V25.0617C523.964 24.5526 524.29 24.304 524.941 24.3159C525.604 24.3159 525.935 24.5645 525.935 25.0617V25.257C525.935 25.5411 526.024 25.8075 526.201 26.0561C526.379 26.3047 526.693 26.429 527.143 26.429H529.487C529.936 26.429 530.25 26.3047 530.428 26.0561C530.605 25.8075 530.694 25.5411 530.694 25.257V24.7598C530.694 24.6059 530.67 24.4579 530.623 24.3159C530.587 24.1738 530.522 24.0495 530.428 23.943C530.333 23.8246 530.209 23.7299 530.055 23.6588C529.901 23.5878 529.711 23.5523 529.487 23.5523H526.894C526.29 23.5523 525.657 23.3392 524.994 22.913C524.367 22.5105 524.053 21.818 524.053 20.8354V20.2317C524.053 19.7582 524.136 19.3438 524.301 18.9887C524.467 18.6217 524.704 18.3258 525.012 18.1008H524.994C525.29 17.8996 525.604 17.7338 525.935 17.6036C526.267 17.4734 526.586 17.4083 526.894 17.4083H529.735C530.043 17.4083 530.357 17.4734 530.676 17.6036C531.008 17.7338 531.327 17.8996 531.635 18.1008H531.617C531.925 18.3258 532.162 18.6217 532.328 18.9887C532.493 19.3438 532.576 19.7582 532.576 20.2317V20.3915C532.576 20.6401 532.493 20.8236 532.328 20.942C532.162 21.0485 531.919 21.1077 531.6 21.1196C530.949 21.1314 530.623 20.8887 530.623 20.3915V20.2494C530.623 19.9535 530.528 19.6871 530.339 19.4504C530.161 19.2018 529.854 19.0775 529.415 19.0775H527.214C526.776 19.0775 526.462 19.2018 526.272 19.4504C526.095 19.6871 526.006 19.9535 526.006 20.2494V20.6756C526.006 20.9834 526.095 21.2616 526.272 21.5102C526.462 21.7588 526.776 21.8831 527.214 21.8831H529.824Z" fill="white"/>
<rect x="447.659" y="1.38728" width="114.416" height="41.422" rx="20.711" stroke="url(#paint3_linear_63_1630)" stroke-width="2.77457"/>
<path d="M621.332 22.8775C621.131 22.8775 620.971 22.8006 620.853 22.6467C620.747 22.4809 620.693 22.2619 620.693 21.9897C620.693 21.3859 620.942 21.084 621.439 21.084H623.321C623.759 21.084 624.067 20.9597 624.245 20.7111C624.434 20.4625 624.529 20.1903 624.529 19.8943V16.9821C624.529 16.6862 624.434 16.4139 624.245 16.1653C624.067 15.9167 623.759 15.7924 623.321 15.7924H619.592V27.3879C619.592 27.9561 619.237 28.2402 618.527 28.2402C617.84 28.2402 617.497 27.9561 617.497 27.3879V15.0643C617.497 14.6382 617.603 14.3541 617.817 14.212C618.03 14.0699 618.29 13.9989 618.598 13.9989H623.783C624.079 13.9989 624.393 14.064 624.724 14.1942C625.056 14.3245 625.375 14.4902 625.683 14.6914H625.665C625.973 14.9164 626.21 15.2123 626.376 15.5793C626.541 15.9344 626.624 16.3488 626.624 16.8223V20.0364C626.624 20.9953 626.305 21.7115 625.665 22.185C625.357 22.4099 625.044 22.5816 624.724 22.6999C624.404 22.8183 624.091 22.8775 623.783 22.8775H621.332ZM631.117 27.3523C631.117 27.9206 630.791 28.2047 630.14 28.2047C629.489 28.2047 629.163 27.9206 629.163 27.3523V14.7447C629.163 14.1765 629.489 13.8924 630.14 13.8924C630.791 13.8924 631.117 14.1765 631.117 14.7447V17.4083H634.863C635.467 17.4083 636.095 17.6332 636.746 18.0831C637.385 18.5329 637.705 19.2432 637.705 20.2139V27.3523C637.705 27.9206 637.379 28.2047 636.728 28.2047C636.077 28.2047 635.751 27.9206 635.751 27.3523V20.3738C635.751 20.066 635.657 19.77 635.467 19.4859L635.485 19.5036C635.331 19.2195 635.017 19.0775 634.544 19.0775H631.117V27.3523ZM645.736 17.4083C646.044 17.4083 646.357 17.4734 646.677 17.6036C647.008 17.7338 647.328 17.8996 647.636 18.1008H647.618C647.926 18.3258 648.163 18.6217 648.328 18.9887C648.494 19.3438 648.577 19.7582 648.577 20.2317V25.2747C648.577 26.2455 648.257 26.9617 647.618 27.4234C646.991 27.8732 646.363 28.0981 645.736 28.0981H642.895C642.587 28.0981 642.273 28.0449 641.953 27.9383C641.634 27.8318 641.32 27.6601 641.012 27.4234C640.373 26.9735 640.053 26.2573 640.053 25.2747V20.2317C640.053 19.7582 640.136 19.3438 640.302 18.9887C640.468 18.6217 640.705 18.3258 641.012 18.1008H640.995C641.291 17.8996 641.604 17.7338 641.936 17.6036C642.267 17.4734 642.587 17.4083 642.895 17.4083H645.736ZM645.416 26.429C645.854 26.429 646.162 26.3047 646.34 26.0561C646.529 25.8075 646.624 25.5411 646.624 25.257V20.2494C646.624 19.9535 646.529 19.6871 646.34 19.4504C646.162 19.2018 645.854 19.0775 645.416 19.0775H643.214C642.776 19.0775 642.463 19.2018 642.273 19.4504C642.096 19.6871 642.007 19.9535 642.007 20.2494V25.257C642.007 25.5411 642.096 25.8075 642.273 26.0561C642.463 26.3047 642.776 26.429 643.214 26.429H645.416ZM653.148 19.0775V25.5411C653.148 25.8489 653.214 26.0857 653.344 26.2514C653.474 26.4171 653.752 26.5 654.178 26.5H654.64C655.102 26.5 655.321 26.7723 655.297 27.3168C655.297 27.8732 655.078 28.1514 654.64 28.1514H654.054C653.675 28.1514 653.32 28.1041 652.989 28.0094C652.657 27.9028 652.338 27.7548 652.03 27.5654V27.5832C651.45 27.2044 651.16 26.5296 651.16 25.5589V19.0775H650.467C650.041 19.0775 649.816 18.7993 649.792 18.2429C649.792 17.6865 650.017 17.4083 650.467 17.4083H651.16V15.5083C651.16 14.94 651.497 14.6559 652.172 14.6559C652.823 14.6559 653.148 14.94 653.148 15.5083V17.4083H654.622C655.084 17.4083 655.303 17.6865 655.279 18.2429C655.279 18.7993 655.06 19.0775 654.622 19.0775H653.148ZM662.522 17.4083C662.83 17.4083 663.143 17.4734 663.463 17.6036C663.795 17.7338 664.114 17.8996 664.422 18.1008H664.404C664.712 18.3258 664.949 18.6217 665.114 18.9887C665.28 19.3438 665.363 19.7582 665.363 20.2317V25.2747C665.363 26.2455 665.043 26.9617 664.404 27.4234C663.777 27.8732 663.149 28.0981 662.522 28.0981H659.681C659.373 28.0981 659.059 28.0449 658.74 27.9383C658.42 27.8318 658.106 27.6601 657.798 27.4234C657.159 26.9735 656.84 26.2573 656.84 25.2747V20.2317C656.84 19.7582 656.922 19.3438 657.088 18.9887C657.254 18.6217 657.491 18.3258 657.798 18.1008H657.781C658.077 17.8996 658.39 17.7338 658.722 17.6036C659.053 17.4734 659.373 17.4083 659.681 17.4083H662.522ZM662.202 26.429C662.64 26.429 662.948 26.3047 663.126 26.0561C663.315 25.8075 663.41 25.5411 663.41 25.257V20.2494C663.41 19.9535 663.315 19.6871 663.126 19.4504C662.948 19.2018 662.64 19.0775 662.202 19.0775H660C659.562 19.0775 659.249 19.2018 659.059 19.4504C658.882 19.6871 658.793 19.9535 658.793 20.2494V25.257C658.793 25.5411 658.882 25.8075 659.059 26.0561C659.249 26.3047 659.562 26.429 660 26.429H662.202ZM670.467 26.8551C670.159 26.8551 669.84 26.8019 669.508 26.6953C669.189 26.5888 668.875 26.4349 668.567 26.2336C667.928 25.8193 667.608 25.1208 667.608 24.1383V20.1251C667.608 19.6279 667.691 19.2018 667.857 18.8466C668.035 18.4915 668.271 18.2133 668.567 18.012C668.875 17.8226 669.189 17.6747 669.508 17.5681C669.828 17.4616 670.142 17.4083 670.45 17.4083H673.433C673.729 17.4083 674.036 17.4734 674.356 17.6036C674.676 17.7338 674.972 17.8996 675.244 18.1008C675.516 18.3258 675.735 18.6217 675.901 18.9887C676.067 19.3557 676.15 19.77 676.15 20.2317V27.7608C676.15 28.258 676.067 28.6782 675.901 29.0215C675.747 29.3767 675.528 29.6726 675.244 29.9094C674.972 30.1343 674.676 30.306 674.356 30.4243C674.048 30.5546 673.741 30.6197 673.433 30.6197H670.45C669.822 30.6197 669.189 30.4362 668.55 30.0692C668.218 29.8798 667.975 29.6371 667.821 29.3412C667.679 29.0452 667.608 28.7019 667.608 28.3112V28.0981C667.608 27.8614 667.685 27.672 667.839 27.5299C667.993 27.3879 668.236 27.3168 668.567 27.3168C669.23 27.3879 669.562 27.6483 669.562 28.0981V28.2935C669.562 28.4237 669.65 28.5658 669.828 28.7196C670.017 28.8735 670.331 28.9505 670.769 28.9505H672.989C673.427 28.9505 673.735 28.8262 673.912 28.5776C674.102 28.329 674.196 28.0508 674.196 27.743V20.2494C674.196 19.9535 674.102 19.6871 673.912 19.4504C673.735 19.2018 673.427 19.0775 672.989 19.0775H670.769C670.331 19.0775 670.017 19.2018 669.828 19.4504C669.65 19.6871 669.562 19.9535 669.562 20.2494V23.9962C669.562 24.2922 669.65 24.5704 669.828 24.8308C670.017 25.0794 670.331 25.2037 670.769 25.2037H672.616C673.042 25.2037 673.255 25.476 673.255 26.0205C673.255 26.2692 673.202 26.4704 673.095 26.6243C673.001 26.7782 672.841 26.8551 672.616 26.8551H670.467ZM680.451 27.3523C680.451 27.9206 680.125 28.2047 679.474 28.2047C678.8 28.2047 678.462 27.9206 678.462 27.3523V20.0008C678.462 19.0301 678.752 18.3553 679.332 17.9765C679.912 17.5977 680.581 17.4083 681.339 17.4083H683.363C683.801 17.4083 684.02 17.6865 684.02 18.2429C684.044 18.7993 683.825 19.0775 683.363 19.0775H681.481C681.055 19.0775 680.777 19.1603 680.646 19.3261C680.516 19.4918 680.451 19.7227 680.451 20.0186V27.3523ZM688.203 28.0981C687.836 28.0981 687.487 28.0508 687.155 27.9561C686.824 27.8495 686.504 27.7016 686.196 27.5122V27.5299C685.616 27.1629 685.326 26.4882 685.326 25.5056V24.6355C685.326 24.1501 685.409 23.7299 685.575 23.3747C685.753 23.0077 685.995 22.7177 686.303 22.5046H686.285C686.581 22.3034 686.895 22.1554 687.226 22.0607C687.558 21.9541 687.877 21.9009 688.185 21.9009H692.11V20.2494C692.11 19.9535 692.015 19.6871 691.825 19.4504C691.648 19.2018 691.34 19.0775 690.902 19.0775H688.825C688.375 19.0775 688.061 19.1899 687.883 19.4149C687.718 19.6279 687.635 19.8825 687.635 20.1784V20.3205C687.635 20.9361 687.303 21.2439 686.64 21.2439C685.977 21.2439 685.646 20.9361 685.646 20.3205V20.1607C685.646 19.6753 685.729 19.2669 685.895 18.9354C686.072 18.6039 686.309 18.3258 686.605 18.1008H686.587C686.895 17.8996 687.215 17.7338 687.546 17.6036C687.889 17.4734 688.215 17.4083 688.523 17.4083H691.222C691.518 17.4083 691.831 17.4734 692.163 17.6036C692.506 17.7338 692.826 17.8996 693.122 18.1008H693.104C693.412 18.3258 693.649 18.6217 693.814 18.9887C693.98 19.3438 694.063 19.7582 694.063 20.2317V27.3523C694.063 27.9206 693.737 28.2047 693.086 28.2047C692.956 28.2047 692.832 28.1988 692.713 28.1869C692.607 28.1751 692.506 28.1455 692.411 28.0981C692.329 28.039 692.258 27.962 692.198 27.8673C692.151 27.7608 692.127 27.6246 692.127 27.4589L692.11 23.5701H688.523C688.262 23.5701 688.061 23.5996 687.919 23.6588C687.777 23.718 687.664 23.8127 687.582 23.943C687.487 24.1442 687.416 24.304 687.368 24.4224C687.333 24.5289 687.315 24.6532 687.315 24.7953V25.4878C687.315 25.7956 687.404 26.0324 687.582 26.1981C687.771 26.352 688.091 26.429 688.54 26.429H690.529C690.967 26.429 691.186 26.7072 691.186 27.2636C691.186 27.5003 691.133 27.7016 691.026 27.8673C690.92 28.0212 690.754 28.0981 690.529 28.0981H688.203ZM699.947 28.0981C699.521 28.0981 699.296 27.8199 699.272 27.2636C699.272 26.7072 699.497 26.429 699.947 26.429H701.74C702.178 26.429 702.486 26.3047 702.664 26.0561C702.853 25.8075 702.948 25.5411 702.948 25.257V20.2494C702.948 19.9535 702.853 19.6812 702.664 19.4326C702.486 19.1722 702.172 19.0538 701.723 19.0775H698.313V29.7496C698.313 30.306 697.988 30.5842 697.336 30.5842C696.685 30.5842 696.36 30.3 696.36 29.7318V18.456C696.36 18.0416 696.466 17.7634 696.679 17.6214C696.893 17.4793 697.153 17.4083 697.461 17.4083H702.06C702.368 17.4083 702.675 17.4616 702.983 17.5681C703.303 17.6747 703.628 17.8226 703.96 18.012C704.244 18.2133 704.469 18.4974 704.635 18.8644C704.812 19.2195 704.901 19.6398 704.901 20.1251V25.3813C704.901 26.352 704.587 27.0445 703.96 27.4589C703.297 27.8851 702.664 28.0981 702.06 28.0981H699.947ZM709.082 27.3523C709.082 27.9206 708.756 28.2047 708.105 28.2047C707.454 28.2047 707.129 27.9206 707.129 27.3523V14.7447C707.129 14.1765 707.454 13.8924 708.105 13.8924C708.756 13.8924 709.082 14.1765 709.082 14.7447V17.4083H712.829C713.432 17.4083 714.06 17.6332 714.711 18.0831C715.35 18.5329 715.67 19.2432 715.67 20.2139V27.3523C715.67 27.9206 715.344 28.2047 714.693 28.2047C714.042 28.2047 713.717 27.9206 713.717 27.3523V20.3738C713.717 20.066 713.622 19.77 713.432 19.4859L713.45 19.5036C713.296 19.2195 712.983 19.0775 712.509 19.0775H709.082V27.3523ZM718.587 30.5842C718.173 30.5842 717.954 30.306 717.93 29.7496C717.93 29.1932 718.149 28.915 718.587 28.915H719.368C719.783 28.915 720.055 28.7907 720.185 28.5421L720.434 27.8851L720.523 27.6009L717.06 18.527V18.5448C716.965 18.2606 716.983 18.018 717.113 17.8167C717.255 17.6155 717.468 17.4675 717.752 17.3728C717.966 17.3136 718.137 17.284 718.267 17.284C718.611 17.284 718.824 17.4852 718.907 17.8877L720.309 21.3859L721.499 24.2981L723.399 17.9233C723.506 17.4971 723.754 17.284 724.145 17.284C724.24 17.284 724.394 17.3136 724.607 17.3728C724.891 17.4556 725.092 17.5918 725.21 17.7812C725.341 17.9706 725.37 18.1955 725.299 18.456C724.767 20.2672 724.222 22.0903 723.666 23.9252C723.121 25.7601 722.582 27.5773 722.05 29.3767C721.99 29.5069 721.896 29.6371 721.766 29.7673C721.647 29.9094 721.487 30.0396 721.286 30.158C721.085 30.2882 720.836 30.3888 720.54 30.4599C720.244 30.5427 719.901 30.5842 719.51 30.5842H718.587Z" fill="white"/>
<rect x="587.85" y="1.38728" width="166.416" height="41.422" rx="20.711" stroke="url(#paint4_linear_63_1630)" stroke-width="2.77457"/>
<path d="M817.555 13.9101C817.934 13.9101 818.348 13.9989 818.798 14.1765C819.212 14.3422 819.419 14.6559 819.419 15.1176V27.3523C819.419 27.9206 819.07 28.2047 818.372 28.2047C817.673 28.2047 817.324 27.9206 817.324 27.3523V18.2251L816.809 18.1719L816.099 20.4803L813.968 27.5832C813.838 27.9975 813.518 28.1988 813.009 28.1869C812.784 28.1751 812.589 28.1159 812.423 28.0094C812.257 27.9028 812.145 27.7489 812.086 27.5477L810.807 23.4102C810.547 22.5934 810.286 21.7647 810.026 20.9242C809.765 20.0719 809.481 19.1307 809.173 18.1008L808.658 18.1719V27.3523C808.658 27.9206 808.309 28.2047 807.611 28.2047C806.912 28.2047 806.563 27.9206 806.563 27.3523V15.1176C806.563 14.6678 806.77 14.3541 807.185 14.1765C807.623 13.9989 808.043 13.916 808.445 13.9279C808.623 13.9279 808.806 13.9516 808.996 13.9989C809.185 14.0463 809.363 14.1173 809.529 14.212C809.694 14.2949 809.842 14.4073 809.972 14.5494C810.103 14.6796 810.203 14.8335 810.274 15.0111L813.062 24.5112C813.263 23.8127 813.477 23.0551 813.701 22.2383C813.926 21.4214 814.157 20.5928 814.394 19.7522C814.631 18.9117 814.862 18.0831 815.087 17.2662C815.323 16.4376 815.542 15.6681 815.744 14.9578C815.815 14.7921 815.915 14.6441 816.045 14.5139C816.176 14.3836 816.324 14.2771 816.489 14.1942C816.655 14.0995 816.827 14.0285 817.004 13.9811C817.194 13.9338 817.377 13.9101 817.555 13.9101ZM830.311 25.2747C830.311 25.7483 830.228 26.1685 830.063 26.5355C829.897 26.9025 829.66 27.1984 829.352 27.4234H829.37C829.074 27.6246 828.76 27.7904 828.429 27.9206C828.097 28.039 827.778 28.0981 827.47 28.0981H824.611C824.315 28.0981 823.995 28.039 823.652 27.9206C823.321 27.7904 823.007 27.6246 822.711 27.4234H822.729C822.421 27.1984 822.184 26.9025 822.019 26.5355C821.853 26.1685 821.77 25.7483 821.77 25.2747V18.1541C821.77 17.5859 822.095 17.3017 822.747 17.3017C823.398 17.3017 823.723 17.5859 823.723 18.1541V25.1327C823.723 25.4642 823.806 25.7542 823.972 26.0028C824.126 26.2869 824.445 26.429 824.931 26.429H827.15C827.624 26.429 827.938 26.2869 828.091 26.0028L828.074 26.0205C828.263 25.7364 828.358 25.4405 828.358 25.1327V18.1541C828.358 17.5859 828.683 17.3017 829.334 17.3017C829.986 17.3017 830.311 17.5859 830.311 18.1541V25.2747ZM838.31 21.8831C838.606 21.8831 838.919 21.9541 839.251 22.0962C839.594 22.2264 839.914 22.3922 840.21 22.5934H840.192C840.5 22.8183 840.737 23.1084 840.902 23.4635C841.068 23.8187 841.151 24.2448 841.151 24.742V25.2747C841.151 26.2455 840.831 26.9617 840.192 27.4234C839.884 27.6601 839.571 27.8318 839.251 27.9383C838.931 28.0449 838.618 28.0981 838.31 28.0981H835.291C834.983 28.0981 834.67 28.0449 834.35 27.9383C834.03 27.8318 833.717 27.6601 833.409 27.4234C832.77 26.9735 832.45 26.2573 832.45 25.2747V25.0617C832.45 24.5526 832.775 24.304 833.427 24.3159C834.089 24.3159 834.421 24.5645 834.421 25.0617V25.257C834.421 25.5411 834.51 25.8075 834.687 26.0561C834.865 26.3047 835.179 26.429 835.628 26.429H837.972C838.422 26.429 838.736 26.3047 838.914 26.0561C839.091 25.8075 839.18 25.5411 839.18 25.257V24.7598C839.18 24.6059 839.156 24.4579 839.109 24.3159C839.073 24.1738 839.008 24.0495 838.914 23.943C838.819 23.8246 838.695 23.7299 838.541 23.6588C838.387 23.5878 838.197 23.5523 837.972 23.5523H835.38C834.776 23.5523 834.143 23.3392 833.48 22.913C832.852 22.5105 832.539 21.818 832.539 20.8354V20.2317C832.539 19.7582 832.622 19.3438 832.787 18.9887C832.953 18.6217 833.19 18.3258 833.498 18.1008H833.48C833.776 17.8996 834.089 17.7338 834.421 17.6036C834.752 17.4734 835.072 17.4083 835.38 17.4083H838.221C838.529 17.4083 838.843 17.4734 839.162 17.6036C839.494 17.7338 839.813 17.8996 840.121 18.1008H840.103C840.411 18.3258 840.648 18.6217 840.814 18.9887C840.979 19.3438 841.062 19.7582 841.062 20.2317V20.3915C841.062 20.6401 840.979 20.8236 840.814 20.942C840.648 21.0485 840.405 21.1077 840.086 21.1196C839.434 21.1314 839.109 20.8887 839.109 20.3915V20.2494C839.109 19.9535 839.014 19.6871 838.825 19.4504C838.647 19.2018 838.339 19.0775 837.901 19.0775H835.699C835.261 19.0775 834.948 19.2018 834.758 19.4504C834.581 19.6871 834.492 19.9535 834.492 20.2494V20.6756C834.492 20.9834 834.581 21.2616 834.758 21.5102C834.948 21.7588 835.261 21.8831 835.699 21.8831H838.31ZM845.47 27.3523C845.47 27.9206 845.145 28.2047 844.493 28.2047C843.831 28.2047 843.499 27.9206 843.499 27.3523V18.1896C843.499 17.6214 843.831 17.3373 844.493 17.3373C845.145 17.3373 845.47 17.6214 845.47 18.1896V27.3523ZM845.843 15.0999C845.843 15.4787 845.713 15.7983 845.452 16.0587C845.192 16.3192 844.872 16.4494 844.493 16.4494C844.115 16.4494 843.789 16.3192 843.517 16.0587C843.256 15.7983 843.126 15.4787 843.126 15.0999C843.126 14.7092 843.256 14.3836 843.517 14.1232C843.789 13.8628 844.115 13.7325 844.493 13.7325C844.872 13.7325 845.192 13.8628 845.452 14.1232C845.713 14.3836 845.843 14.7092 845.843 15.0999ZM856.479 25.2747C856.479 26.2455 856.159 26.9617 855.52 27.4234C854.892 27.8732 854.265 28.0981 853.638 28.0981H850.654C850.027 28.0981 849.417 27.8732 848.825 27.4234C848.541 27.1866 848.322 26.8907 848.168 26.5355C848.014 26.1685 847.938 25.7483 847.938 25.2747V20.2139C847.938 19.255 848.233 18.5448 848.825 18.0831C849.121 17.87 849.423 17.7042 849.731 17.5859C850.051 17.4556 850.358 17.3905 850.654 17.3905H853.638C853.922 17.3905 854.235 17.4497 854.579 17.5681C854.922 17.6747 855.242 17.8226 855.538 18.012C855.822 18.2133 856.047 18.4915 856.212 18.8466C856.39 19.2018 856.479 19.622 856.479 20.1074V20.9953C856.479 21.5635 856.153 21.8476 855.502 21.8476C854.851 21.8476 854.525 21.5635 854.525 20.9953V20.2317C854.525 19.9357 854.431 19.6694 854.241 19.4326C854.064 19.184 853.756 19.0597 853.318 19.0597H851.098C850.66 19.0597 850.347 19.184 850.157 19.4326C849.98 19.6694 849.891 19.9357 849.891 20.2317V25.257C849.891 25.5411 849.98 25.8075 850.157 26.0561C850.347 26.3047 850.66 26.429 851.098 26.429H853.318C853.756 26.429 854.064 26.3047 854.241 26.0561C854.431 25.8075 854.525 25.5411 854.525 25.257V24.4402C854.525 23.8838 854.851 23.6056 855.502 23.6056C856.153 23.6056 856.479 23.8838 856.479 24.4402V25.2747Z" fill="white"/>
<rect x="777.041" y="1.38728" width="109.416" height="41.422" rx="20.711" stroke="url(#paint5_linear_63_1630)" stroke-width="2.77457"/>
<path d="M947.033 28.1869C946.796 28.1869 946.542 28.1514 946.269 28.0804C946.009 27.9975 945.82 27.8495 945.701 27.6365C945.429 26.7131 945.145 25.766 944.849 24.7953C944.553 23.8246 944.257 22.8716 943.961 21.9364C943.63 20.8354 943.274 19.6931 942.896 18.5092C942.517 17.3136 942.162 16.1712 941.83 15.0821C941.759 14.8217 941.801 14.5967 941.954 14.4073C942.108 14.2061 942.327 14.0581 942.611 13.9634C942.789 13.916 942.943 13.8924 943.073 13.8924C943.476 13.8924 943.736 14.0936 943.854 14.4961L945.168 18.7046C945.287 19.1307 945.423 19.5984 945.577 20.1074C945.743 20.6164 945.908 21.1373 946.074 21.67C946.24 22.2027 946.406 22.7355 946.571 23.2682C946.737 23.7891 946.891 24.2744 947.033 24.7243C947.258 23.9785 947.501 23.1735 947.761 22.3093C948.033 21.4333 948.306 20.5454 948.578 19.6457C948.862 18.746 949.14 17.8581 949.412 16.9821C949.685 16.0943 949.939 15.2656 950.176 14.4961C950.306 14.0936 950.561 13.8924 950.94 13.8924C951.082 13.8924 951.247 13.916 951.437 13.9634C952.088 14.141 952.342 14.5139 952.2 15.0821C951.561 17.1538 950.916 19.2432 950.265 21.3504C949.614 23.4576 948.969 25.5529 948.329 27.6365C948.235 27.8732 948.057 28.0271 947.797 28.0981C947.548 28.1573 947.293 28.1869 947.033 28.1869ZM955.736 27.3523C955.736 27.9206 955.41 28.2047 954.759 28.2047C954.096 28.2047 953.765 27.9206 953.765 27.3523V18.1896C953.765 17.6214 954.096 17.3373 954.759 17.3373C955.41 17.3373 955.736 17.6214 955.736 18.1896V27.3523ZM956.109 15.0999C956.109 15.4787 955.978 15.7983 955.718 16.0587C955.457 16.3192 955.138 16.4494 954.759 16.4494C954.38 16.4494 954.055 16.3192 953.782 16.0587C953.522 15.7983 953.392 15.4787 953.392 15.0999C953.392 14.7092 953.522 14.3836 953.782 14.1232C954.055 13.8628 954.38 13.7325 954.759 13.7325C955.138 13.7325 955.457 13.8628 955.718 14.1232C955.978 14.3836 956.109 14.7092 956.109 15.0999ZM960.121 27.3523C960.121 27.9206 959.795 28.2047 959.144 28.2047C958.469 28.2047 958.132 27.9206 958.132 27.3523V20.0008C958.132 19.0301 958.422 18.3553 959.002 17.9765C959.582 17.5977 960.251 17.4083 961.009 17.4083H963.033C963.471 17.4083 963.69 17.6865 963.69 18.2429C963.714 18.7993 963.495 19.0775 963.033 19.0775H961.151C960.725 19.0775 960.446 19.1603 960.316 19.3261C960.186 19.4918 960.121 19.7227 960.121 20.0186V27.3523ZM967.518 19.0775V25.5411C967.518 25.8489 967.583 26.0857 967.713 26.2514C967.843 26.4171 968.121 26.5 968.548 26.5H969.009C969.471 26.5 969.69 26.7723 969.666 27.3168C969.666 27.8732 969.447 28.1514 969.009 28.1514H968.423C968.045 28.1514 967.689 28.1041 967.358 28.0094C967.026 27.9028 966.707 27.7548 966.399 27.5654V27.5832C965.819 27.2044 965.529 26.5296 965.529 25.5589V19.0775H964.836C964.41 19.0775 964.185 18.7993 964.162 18.2429C964.162 17.6865 964.387 17.4083 964.836 17.4083H965.529V15.5083C965.529 14.94 965.866 14.6559 966.541 14.6559C967.192 14.6559 967.518 14.94 967.518 15.5083V17.4083H968.992C969.453 17.4083 969.672 17.6865 969.649 18.2429C969.649 18.7993 969.43 19.0775 968.992 19.0775H967.518ZM979.75 25.2747C979.75 25.7483 979.667 26.1685 979.502 26.5355C979.336 26.9025 979.099 27.1984 978.791 27.4234H978.809C978.513 27.6246 978.199 27.7904 977.868 27.9206C977.536 28.039 977.217 28.0981 976.909 28.0981H974.05C973.754 28.0981 973.434 28.039 973.091 27.9206C972.76 27.7904 972.446 27.6246 972.15 27.4234H972.168C971.86 27.1984 971.623 26.9025 971.457 26.5355C971.292 26.1685 971.209 25.7483 971.209 25.2747V18.1541C971.209 17.5859 971.534 17.3017 972.186 17.3017C972.837 17.3017 973.162 17.5859 973.162 18.1541V25.1327C973.162 25.4642 973.245 25.7542 973.411 26.0028C973.565 26.2869 973.884 26.429 974.37 26.429H976.589C977.063 26.429 977.377 26.2869 977.53 26.0028L977.513 26.0205C977.702 25.7364 977.797 25.4405 977.797 25.1327V18.1541C977.797 17.5859 978.122 17.3017 978.773 17.3017C979.425 17.3017 979.75 17.5859 979.75 18.1541V25.2747ZM984.659 28.0981C984.292 28.0981 983.943 28.0508 983.611 27.9561C983.28 27.8495 982.96 27.7016 982.652 27.5122V27.5299C982.072 27.1629 981.782 26.4882 981.782 25.5056V24.6355C981.782 24.1501 981.865 23.7299 982.031 23.3747C982.209 23.0077 982.451 22.7177 982.759 22.5046H982.741C983.037 22.3034 983.351 22.1554 983.682 22.0607C984.014 21.9541 984.333 21.9009 984.641 21.9009H988.566V20.2494C988.566 19.9535 988.471 19.6871 988.281 19.4504C988.104 19.2018 987.796 19.0775 987.358 19.0775H985.281C984.831 19.0775 984.517 19.1899 984.339 19.4149C984.174 19.6279 984.091 19.8825 984.091 20.1784V20.3205C984.091 20.9361 983.759 21.2439 983.096 21.2439C982.433 21.2439 982.102 20.9361 982.102 20.3205V20.1607C982.102 19.6753 982.185 19.2669 982.351 18.9354C982.528 18.6039 982.765 18.3258 983.061 18.1008H983.043C983.351 17.8996 983.671 17.7338 984.002 17.6036C984.345 17.4734 984.671 17.4083 984.979 17.4083H987.678C987.974 17.4083 988.287 17.4734 988.619 17.6036C988.962 17.7338 989.282 17.8996 989.578 18.1008H989.56C989.868 18.3258 990.105 18.6217 990.27 18.9887C990.436 19.3438 990.519 19.7582 990.519 20.2317V27.3523C990.519 27.9206 990.193 28.2047 989.542 28.2047C989.412 28.2047 989.288 28.1988 989.169 28.1869C989.063 28.1751 988.962 28.1455 988.867 28.0981C988.785 28.039 988.714 27.962 988.654 27.8673C988.607 27.7608 988.583 27.6246 988.583 27.4589L988.566 23.5701H984.979C984.718 23.5701 984.517 23.5996 984.375 23.6588C984.233 23.718 984.12 23.8127 984.038 23.943C983.943 24.1442 983.872 24.304 983.824 24.4224C983.789 24.5289 983.771 24.6532 983.771 24.7953V25.4878C983.771 25.7956 983.86 26.0324 984.038 26.1981C984.227 26.352 984.547 26.429 984.996 26.429H986.985C987.423 26.429 987.642 26.7072 987.642 27.2636C987.642 27.5003 987.589 27.7016 987.482 27.8673C987.376 28.0212 987.21 28.0981 986.985 28.0981H984.659ZM994.84 27.4056C994.84 27.962 994.515 28.2402 993.864 28.2402C993.201 28.2402 992.869 27.962 992.869 27.4056V14.6737C992.869 14.1173 993.201 13.8391 993.864 13.8391C994.515 13.8391 994.84 14.1173 994.84 14.6737V27.4056ZM1015.42 14.5849L1015.4 14.6027C1015.47 14.3422 1015.61 14.1528 1015.81 14.0344C1016.02 13.916 1016.3 13.8864 1016.64 13.9456C1016.99 14.0048 1017.23 14.1114 1017.37 14.2653C1017.52 14.4192 1017.56 14.6322 1017.48 14.9045L1014.28 27.6365V27.6187C1014.22 27.8199 1014.08 27.9738 1013.87 28.0804C1013.67 28.1869 1013.46 28.2402 1013.23 28.2402C1012.97 28.2402 1012.72 28.1988 1012.49 28.1159C1012.26 28.0449 1012.12 27.891 1012.06 27.6542L1012.08 27.672L1009.89 19.0064H1009.41L1007.25 27.6542C1007.19 27.8555 1007.04 28.0034 1006.8 28.0981C1006.57 28.1928 1006.32 28.2402 1006.08 28.2402C1005.77 28.2402 1005.52 28.1928 1005.33 28.0981C1005.15 28.0153 1005.03 27.8614 1004.98 27.6365L1004.99 27.6542L1001.8 14.9045C1001.74 14.6678 1001.79 14.4665 1001.96 14.3008C1002.12 14.1232 1002.36 14.0048 1002.67 13.9456C1003.33 13.8391 1003.73 14.0581 1003.87 14.6027L1003.86 14.5849L1004.66 17.799C1004.76 18.2251 1004.87 18.6631 1004.98 19.113C1005.08 19.551 1005.2 20.0245 1005.33 20.5336C1005.46 21.0308 1005.6 21.5753 1005.76 22.1672C1005.91 22.7591 1006.08 23.4221 1006.27 24.156L1008.54 14.5671C1008.6 14.3067 1008.74 14.135 1008.95 14.0522C1009.17 13.9693 1009.4 13.9279 1009.66 13.9279C1009.9 13.9279 1010.13 13.9752 1010.36 14.0699C1010.58 14.1528 1010.72 14.3304 1010.78 14.6027L1013.13 24.1028L1015.42 14.5849ZM1024.61 17.4083C1024.92 17.4083 1025.24 17.4734 1025.55 17.6036C1025.89 17.7338 1026.21 17.8996 1026.51 18.1008H1026.5C1026.8 18.3258 1027.04 18.6217 1027.21 18.9887C1027.37 19.3438 1027.45 19.7582 1027.45 20.2317V25.2747C1027.45 26.2455 1027.14 26.9617 1026.5 27.4234C1025.87 27.8732 1025.24 28.0981 1024.61 28.0981H1021.77C1021.46 28.0981 1021.15 28.0449 1020.83 27.9383C1020.51 27.8318 1020.2 27.6601 1019.89 27.4234C1019.25 26.9735 1018.93 26.2573 1018.93 25.2747V20.2317C1018.93 19.7582 1019.01 19.3438 1019.18 18.9887C1019.35 18.6217 1019.58 18.3258 1019.89 18.1008H1019.87C1020.17 17.8996 1020.48 17.7338 1020.81 17.6036C1021.15 17.4734 1021.46 17.4083 1021.77 17.4083H1024.61ZM1024.29 26.429C1024.73 26.429 1025.04 26.3047 1025.22 26.0561C1025.41 25.8075 1025.5 25.5411 1025.5 25.257V20.2494C1025.5 19.9535 1025.41 19.6871 1025.22 19.4504C1025.04 19.2018 1024.73 19.0775 1024.29 19.0775H1022.09C1021.65 19.0775 1021.34 19.2018 1021.15 19.4504C1020.97 19.6871 1020.88 19.9535 1020.88 20.2494V25.257C1020.88 25.5411 1020.97 25.8075 1021.15 26.0561C1021.34 26.3047 1021.65 26.429 1022.09 26.429H1024.29ZM1031.62 27.3523C1031.62 27.9206 1031.29 28.2047 1030.64 28.2047C1029.97 28.2047 1029.63 27.9206 1029.63 27.3523V20.0008C1029.63 19.0301 1029.92 18.3553 1030.5 17.9765C1031.08 17.5977 1031.75 17.4083 1032.51 17.4083H1034.53C1034.97 17.4083 1035.19 17.6865 1035.19 18.2429C1035.21 18.7993 1034.99 19.0775 1034.53 19.0775H1032.65C1032.22 19.0775 1031.94 19.1603 1031.81 19.3261C1031.68 19.4918 1031.62 19.7227 1031.62 20.0186V27.3523ZM1038.71 27.4056C1038.71 27.962 1038.39 28.2402 1037.74 28.2402C1037.07 28.2402 1036.74 27.962 1036.74 27.4056V14.6737C1036.74 14.1173 1037.07 13.8391 1037.74 13.8391C1038.39 13.8391 1038.71 14.1173 1038.71 14.6737V27.4056ZM1047.75 19.0775H1044.32C1043.84 19.0775 1043.52 19.2195 1043.36 19.5036C1043.2 19.7522 1043.12 20.0423 1043.12 20.3738V25.4878C1043.12 25.7956 1043.21 26.0324 1043.4 26.1981C1043.59 26.352 1043.9 26.429 1044.34 26.429H1046.17C1046.6 26.429 1046.81 26.7072 1046.81 27.2636C1046.81 27.5003 1046.76 27.7016 1046.65 27.8673C1046.55 28.0212 1046.4 28.0981 1046.17 28.0981H1044.02C1043.28 28.0981 1042.61 27.9087 1042.03 27.5299C1041.45 27.1748 1041.16 26.5 1041.16 25.5056V20.2139C1041.16 19.7286 1041.24 19.3083 1041.39 18.9532C1041.55 18.598 1041.79 18.308 1042.12 18.0831C1042.75 17.6332 1043.38 17.4083 1044 17.4083H1047.75V14.7447C1047.75 14.1765 1048.08 13.8924 1048.73 13.8924C1049.38 13.8924 1049.7 14.1765 1049.7 14.7447V27.3523C1049.7 27.9206 1049.38 28.2047 1048.73 28.2047C1048.48 28.2047 1048.25 28.1633 1048.05 28.0804C1047.85 27.9857 1047.75 27.7844 1047.75 27.4766V19.0775ZM1057.82 21.8831C1058.12 21.8831 1058.43 21.9541 1058.77 22.0962C1059.11 22.2264 1059.43 22.3922 1059.72 22.5934H1059.71C1060.01 22.8183 1060.25 23.1084 1060.42 23.4635C1060.58 23.8187 1060.67 24.2448 1060.67 24.742V25.2747C1060.67 26.2455 1060.35 26.9617 1059.71 27.4234C1059.4 27.6601 1059.08 27.8318 1058.77 27.9383C1058.45 28.0449 1058.13 28.0981 1057.82 28.0981H1054.81C1054.5 28.0981 1054.18 28.0449 1053.86 27.9383C1053.54 27.8318 1053.23 27.6601 1052.92 27.4234C1052.28 26.9735 1051.96 26.2573 1051.96 25.2747V25.0617C1051.96 24.5526 1052.29 24.304 1052.94 24.3159C1053.6 24.3159 1053.94 24.5645 1053.94 25.0617V25.257C1053.94 25.5411 1054.02 25.8075 1054.2 26.0561C1054.38 26.3047 1054.69 26.429 1055.14 26.429H1057.49C1057.94 26.429 1058.25 26.3047 1058.43 26.0561C1058.61 25.8075 1058.69 25.5411 1058.69 25.257V24.7598C1058.69 24.6059 1058.67 24.4579 1058.62 24.3159C1058.59 24.1738 1058.52 24.0495 1058.43 23.943C1058.33 23.8246 1058.21 23.7299 1058.05 23.6588C1057.9 23.5878 1057.71 23.5523 1057.49 23.5523H1054.89C1054.29 23.5523 1053.66 23.3392 1052.99 22.913C1052.37 22.5105 1052.05 21.818 1052.05 20.8354V20.2317C1052.05 19.7582 1052.14 19.3438 1052.3 18.9887C1052.47 18.6217 1052.7 18.3258 1053.01 18.1008H1052.99C1053.29 17.8996 1053.6 17.7338 1053.94 17.6036C1054.27 17.4734 1054.59 17.4083 1054.89 17.4083H1057.74C1058.04 17.4083 1058.36 17.4734 1058.68 17.6036C1059.01 17.7338 1059.33 17.8996 1059.64 18.1008H1059.62C1059.93 18.3258 1060.16 18.6217 1060.33 18.9887C1060.49 19.3438 1060.58 19.7582 1060.58 20.2317V20.3915C1060.58 20.6401 1060.49 20.8236 1060.33 20.942C1060.16 21.0485 1059.92 21.1077 1059.6 21.1196C1058.95 21.1314 1058.62 20.8887 1058.62 20.3915V20.2494C1058.62 19.9535 1058.53 19.6871 1058.34 19.4504C1058.16 19.2018 1057.85 19.0775 1057.42 19.0775H1055.21C1054.78 19.0775 1054.46 19.2018 1054.27 19.4504C1054.09 19.6871 1054.01 19.9535 1054.01 20.2494V20.6756C1054.01 20.9834 1054.09 21.2616 1054.27 21.5102C1054.46 21.7588 1054.78 21.8831 1055.21 21.8831H1057.82Z" fill="white"/>
<rect x="913.231" y="1.38728" width="177.416" height="41.422" rx="20.711" stroke="url(#paint6_linear_63_1630)" stroke-width="2.77457"/>
<path d="M1147.79 27.3879C1147.79 27.9561 1147.44 28.2402 1146.73 28.2402C1146.03 28.2402 1145.68 27.9561 1145.68 27.3879V15.7924H1142.57C1142.15 15.7924 1141.92 15.4905 1141.9 14.8868C1141.9 14.2949 1142.12 13.9989 1142.57 13.9989H1150.9C1151.35 13.9989 1151.56 14.2949 1151.54 14.8868C1151.54 15.4905 1151.33 15.7924 1150.9 15.7924H1147.79V27.3879ZM1154.88 27.3523C1154.88 27.9206 1154.56 28.2047 1153.91 28.2047C1153.23 28.2047 1152.9 27.9206 1152.9 27.3523V20.0008C1152.9 19.0301 1153.19 18.3553 1153.77 17.9765C1154.35 17.5977 1155.01 17.4083 1155.77 17.4083H1157.8C1158.23 17.4083 1158.45 17.6865 1158.45 18.2429C1158.48 18.7993 1158.26 19.0775 1157.8 19.0775H1155.91C1155.49 19.0775 1155.21 19.1603 1155.08 19.3261C1154.95 19.4918 1154.88 19.7227 1154.88 20.0186V27.3523ZM1162.64 28.0981C1162.27 28.0981 1161.92 28.0508 1161.59 27.9561C1161.26 27.8495 1160.94 27.7016 1160.63 27.5122V27.5299C1160.05 27.1629 1159.76 26.4882 1159.76 25.5056V24.6355C1159.76 24.1501 1159.84 23.7299 1160.01 23.3747C1160.19 23.0077 1160.43 22.7177 1160.74 22.5046H1160.72C1161.01 22.3034 1161.33 22.1554 1161.66 22.0607C1161.99 21.9541 1162.31 21.9009 1162.62 21.9009H1166.54V20.2494C1166.54 19.9535 1166.45 19.6871 1166.26 19.4504C1166.08 19.2018 1165.77 19.0775 1165.34 19.0775H1163.26C1162.81 19.0775 1162.49 19.1899 1162.32 19.4149C1162.15 19.6279 1162.07 19.8825 1162.07 20.1784V20.3205C1162.07 20.9361 1161.74 21.2439 1161.07 21.2439C1160.41 21.2439 1160.08 20.9361 1160.08 20.3205V20.1607C1160.08 19.6753 1160.16 19.2669 1160.33 18.9354C1160.51 18.6039 1160.74 18.3258 1161.04 18.1008H1161.02C1161.33 17.8996 1161.65 17.7338 1161.98 17.6036C1162.32 17.4734 1162.65 17.4083 1162.96 17.4083H1165.66C1165.95 17.4083 1166.26 17.4734 1166.6 17.6036C1166.94 17.7338 1167.26 17.8996 1167.56 18.1008H1167.54C1167.85 18.3258 1168.08 18.6217 1168.25 18.9887C1168.41 19.3438 1168.5 19.7582 1168.5 20.2317V27.3523C1168.5 27.9206 1168.17 28.2047 1167.52 28.2047C1167.39 28.2047 1167.27 28.1988 1167.15 28.1869C1167.04 28.1751 1166.94 28.1455 1166.85 28.0981C1166.76 28.039 1166.69 27.962 1166.63 27.8673C1166.58 27.7608 1166.56 27.6246 1166.56 27.4589L1166.54 23.5701H1162.96C1162.7 23.5701 1162.49 23.5996 1162.35 23.6588C1162.21 23.718 1162.1 23.8127 1162.02 23.943C1161.92 24.1442 1161.85 24.304 1161.8 24.4224C1161.77 24.5289 1161.75 24.6532 1161.75 24.7953V25.4878C1161.75 25.7956 1161.84 26.0324 1162.02 26.1981C1162.2 26.352 1162.52 26.429 1162.97 26.429H1164.96C1165.4 26.429 1165.62 26.7072 1165.62 27.2636C1165.62 27.5003 1165.57 27.7016 1165.46 27.8673C1165.35 28.0212 1165.19 28.0981 1164.96 28.0981H1162.64ZM1177.38 19.0775H1173.95C1173.47 19.0775 1173.15 19.2195 1173 19.5036C1172.83 19.7522 1172.75 20.0423 1172.75 20.3738V25.4878C1172.75 25.7956 1172.84 26.0324 1173.03 26.1981C1173.22 26.352 1173.53 26.429 1173.97 26.429H1175.8C1176.23 26.429 1176.44 26.7072 1176.44 27.2636C1176.44 27.5003 1176.39 27.7016 1176.28 27.8673C1176.19 28.0212 1176.03 28.0981 1175.8 28.0981H1173.65C1172.91 28.0981 1172.24 27.9087 1171.66 27.5299C1171.08 27.1748 1170.79 26.5 1170.79 25.5056V20.2139C1170.79 19.7286 1170.87 19.3083 1171.02 18.9532C1171.18 18.598 1171.42 18.308 1171.75 18.0831C1172.38 17.6332 1173.01 17.4083 1173.63 17.4083H1177.38V14.7447C1177.38 14.1765 1177.71 13.8924 1178.36 13.8924C1179.01 13.8924 1179.33 14.1765 1179.33 14.7447V27.3523C1179.33 27.9206 1179.01 28.2047 1178.36 28.2047C1178.11 28.2047 1177.88 28.1633 1177.68 28.0804C1177.48 27.9857 1177.38 27.7844 1177.38 27.4766V19.0775ZM1183.69 27.3523C1183.69 27.9206 1183.36 28.2047 1182.71 28.2047C1182.05 28.2047 1181.72 27.9206 1181.72 27.3523V18.1896C1181.72 17.6214 1182.05 17.3373 1182.71 17.3373C1183.36 17.3373 1183.69 17.6214 1183.69 18.1896V27.3523ZM1184.06 15.0999C1184.06 15.4787 1183.93 15.7983 1183.67 16.0587C1183.41 16.3192 1183.09 16.4494 1182.71 16.4494C1182.33 16.4494 1182.01 16.3192 1181.74 16.0587C1181.48 15.7983 1181.35 15.4787 1181.35 15.0999C1181.35 14.7092 1181.48 14.3836 1181.74 14.1232C1182.01 13.8628 1182.33 13.7325 1182.71 13.7325C1183.09 13.7325 1183.41 13.8628 1183.67 14.1232C1183.93 14.3836 1184.06 14.7092 1184.06 15.0999ZM1188.11 27.3523C1188.11 27.9206 1187.79 28.2047 1187.13 28.2047C1186.48 28.2047 1186.16 27.9206 1186.16 27.3523V20.2139C1186.16 19.7286 1186.23 19.3083 1186.39 18.9532C1186.54 18.598 1186.78 18.308 1187.12 18.0831C1187.74 17.6332 1188.37 17.4083 1189 17.4083H1191.86C1192.46 17.4083 1193.09 17.6332 1193.74 18.0831C1194.38 18.5329 1194.7 19.2432 1194.7 20.2139V27.3523C1194.7 27.9206 1194.37 28.2047 1193.72 28.2047C1193.07 28.2047 1192.75 27.9206 1192.75 27.3523V20.3738C1192.75 20.066 1192.65 19.77 1192.46 19.4859L1192.48 19.5036C1192.33 19.2195 1192.01 19.0775 1191.54 19.0775H1189.32C1188.83 19.0775 1188.51 19.2195 1188.36 19.5036C1188.19 19.7522 1188.11 20.0423 1188.11 20.3738V27.3523ZM1199.85 26.8551C1199.55 26.8551 1199.23 26.8019 1198.9 26.6953C1198.58 26.5888 1198.26 26.4349 1197.95 26.2336C1197.32 25.8193 1197 25.1208 1197 24.1383V20.1251C1197 19.6279 1197.08 19.2018 1197.24 18.8466C1197.42 18.4915 1197.66 18.2133 1197.95 18.012C1198.26 17.8226 1198.58 17.6747 1198.9 17.5681C1199.22 17.4616 1199.53 17.4083 1199.84 17.4083H1202.82C1203.12 17.4083 1203.42 17.4734 1203.74 17.6036C1204.06 17.7338 1204.36 17.8996 1204.63 18.1008C1204.9 18.3258 1205.12 18.6217 1205.29 18.9887C1205.45 19.3557 1205.54 19.77 1205.54 20.2317V27.7608C1205.54 28.258 1205.45 28.6782 1205.29 29.0215C1205.13 29.3767 1204.92 29.6726 1204.63 29.9094C1204.36 30.1343 1204.06 30.306 1203.74 30.4243C1203.44 30.5546 1203.13 30.6197 1202.82 30.6197H1199.84C1199.21 30.6197 1198.58 30.4362 1197.94 30.0692C1197.61 29.8798 1197.36 29.6371 1197.21 29.3412C1197.07 29.0452 1197 28.7019 1197 28.3112V28.0981C1197 27.8614 1197.07 27.672 1197.23 27.5299C1197.38 27.3879 1197.62 27.3168 1197.95 27.3168C1198.62 27.3879 1198.95 27.6483 1198.95 28.0981V28.2935C1198.95 28.4237 1199.04 28.5658 1199.22 28.7196C1199.4 28.8735 1199.72 28.9505 1200.16 28.9505H1202.38C1202.81 28.9505 1203.12 28.8262 1203.3 28.5776C1203.49 28.329 1203.58 28.0508 1203.58 27.743V20.2494C1203.58 19.9535 1203.49 19.6871 1203.3 19.4504C1203.12 19.2018 1202.81 19.0775 1202.38 19.0775H1200.16C1199.72 19.0775 1199.4 19.2018 1199.22 19.4504C1199.04 19.6871 1198.95 19.9535 1198.95 20.2494V23.9962C1198.95 24.2922 1199.04 24.5704 1199.22 24.8308C1199.4 25.0794 1199.72 25.2037 1200.16 25.2037H1202C1202.43 25.2037 1202.64 25.476 1202.64 26.0205C1202.64 26.2692 1202.59 26.4704 1202.48 26.6243C1202.39 26.7782 1202.23 26.8551 1202 26.8551H1199.85ZM1222.98 25.257C1222.98 26.2159 1222.66 26.9321 1222.02 27.4056C1221.71 27.6305 1221.39 27.8081 1221.06 27.9383C1220.74 28.0567 1220.42 28.1159 1220.12 28.1159H1216.25C1215.94 28.1159 1215.62 28.0567 1215.29 27.9383C1214.97 27.8081 1214.65 27.6305 1214.35 27.4056C1214.04 27.1688 1213.8 26.8788 1213.63 26.5355C1213.47 26.1804 1213.39 25.7542 1213.39 25.257V16.8223C1213.39 16.3488 1213.47 15.9344 1213.63 15.5793C1213.8 15.2123 1214.04 14.9164 1214.35 14.6914H1214.33C1214.64 14.4902 1214.95 14.3245 1215.29 14.1942C1215.62 14.064 1215.94 13.9989 1216.25 13.9989H1220.12C1220.42 13.9989 1220.74 14.064 1221.08 14.1942C1221.41 14.3245 1221.73 14.4902 1222.03 14.6914H1222.02C1222.32 14.9164 1222.56 15.2123 1222.73 15.5793C1222.89 15.9344 1222.98 16.3488 1222.98 16.8223V18.0476C1222.98 18.6158 1222.62 18.8999 1221.91 18.8999C1221.21 18.8999 1220.86 18.6158 1220.86 18.0476V16.9821C1220.86 16.6862 1220.77 16.4139 1220.6 16.1653C1220.42 15.9167 1220.11 15.7924 1219.67 15.7924H1216.69C1216.25 15.7924 1215.94 15.9167 1215.77 16.1653C1215.59 16.4139 1215.5 16.6862 1215.5 16.9821V25.1149C1215.5 25.4227 1215.59 25.7009 1215.77 25.9495C1215.94 26.1981 1216.25 26.3224 1216.69 26.3224H1219.67C1220.11 26.3224 1220.42 26.1981 1220.6 25.9495C1220.77 25.7009 1220.86 25.4227 1220.86 25.1149V24.085C1220.86 23.5286 1221.21 23.2504 1221.91 23.2504C1222.62 23.2504 1222.98 23.5286 1222.98 24.085V25.257ZM1228.06 28.0981C1227.7 28.0981 1227.35 28.0508 1227.02 27.9561C1226.69 27.8495 1226.37 27.7016 1226.06 27.5122V27.5299C1225.48 27.1629 1225.19 26.4882 1225.19 25.5056V24.6355C1225.19 24.1501 1225.27 23.7299 1225.44 23.3747C1225.61 23.0077 1225.86 22.7177 1226.16 22.5046H1226.15C1226.44 22.3034 1226.76 22.1554 1227.09 22.0607C1227.42 21.9541 1227.74 21.9009 1228.05 21.9009H1231.97V20.2494C1231.97 19.9535 1231.88 19.6871 1231.69 19.4504C1231.51 19.2018 1231.2 19.0775 1230.76 19.0775H1228.69C1228.24 19.0775 1227.92 19.1899 1227.74 19.4149C1227.58 19.6279 1227.5 19.8825 1227.5 20.1784V20.3205C1227.5 20.9361 1227.16 21.2439 1226.5 21.2439C1225.84 21.2439 1225.51 20.9361 1225.51 20.3205V20.1607C1225.51 19.6753 1225.59 19.2669 1225.76 18.9354C1225.93 18.6039 1226.17 18.3258 1226.47 18.1008H1226.45C1226.76 17.8996 1227.08 17.7338 1227.41 17.6036C1227.75 17.4734 1228.08 17.4083 1228.38 17.4083H1231.08C1231.38 17.4083 1231.69 17.4734 1232.02 17.6036C1232.37 17.7338 1232.69 17.8996 1232.98 18.1008H1232.97C1233.27 18.3258 1233.51 18.6217 1233.68 18.9887C1233.84 19.3438 1233.92 19.7582 1233.92 20.2317V27.3523C1233.92 27.9206 1233.6 28.2047 1232.95 28.2047C1232.82 28.2047 1232.69 28.1988 1232.57 28.1869C1232.47 28.1751 1232.37 28.1455 1232.27 28.0981C1232.19 28.039 1232.12 27.962 1232.06 27.8673C1232.01 27.7608 1231.99 27.6246 1231.99 27.4589L1231.97 23.5701H1228.38C1228.12 23.5701 1227.92 23.5996 1227.78 23.6588C1227.64 23.718 1227.53 23.8127 1227.44 23.943C1227.35 24.1442 1227.28 24.304 1227.23 24.4224C1227.19 24.5289 1227.18 24.6532 1227.18 24.7953V25.4878C1227.18 25.7956 1227.27 26.0324 1227.44 26.1981C1227.63 26.352 1227.95 26.429 1228.4 26.429H1230.39C1230.83 26.429 1231.05 26.7072 1231.05 27.2636C1231.05 27.5003 1230.99 27.7016 1230.89 27.8673C1230.78 28.0212 1230.62 28.0981 1230.39 28.0981H1228.06ZM1238.14 27.3523C1238.14 27.9206 1237.81 28.2047 1237.16 28.2047C1236.49 28.2047 1236.15 27.9206 1236.15 27.3523V20.0008C1236.15 19.0301 1236.44 18.3553 1237.02 17.9765C1237.6 17.5977 1238.27 17.4083 1239.03 17.4083H1241.05C1241.49 17.4083 1241.71 17.6865 1241.71 18.2429C1241.73 18.7993 1241.51 19.0775 1241.05 19.0775H1239.17C1238.74 19.0775 1238.46 19.1603 1238.33 19.3261C1238.2 19.4918 1238.14 19.7227 1238.14 20.0186V27.3523ZM1249.8 19.0775H1246.37C1245.88 19.0775 1245.57 19.2195 1245.41 19.5036C1245.25 19.7522 1245.16 20.0423 1245.16 20.3738V25.4878C1245.16 25.7956 1245.26 26.0324 1245.45 26.1981C1245.64 26.352 1245.95 26.429 1246.39 26.429H1248.22C1248.64 26.429 1248.86 26.7072 1248.86 27.2636C1248.86 27.5003 1248.8 27.7016 1248.7 27.8673C1248.6 28.0212 1248.44 28.0981 1248.22 28.0981H1246.07C1245.32 28.0981 1244.66 27.9087 1244.08 27.5299C1243.5 27.1748 1243.21 26.5 1243.21 25.5056V20.2139C1243.21 19.7286 1243.29 19.3083 1243.44 18.9532C1243.59 18.598 1243.84 18.308 1244.17 18.0831C1244.8 17.6332 1245.42 17.4083 1246.05 17.4083H1249.8V14.7447C1249.8 14.1765 1250.12 13.8924 1250.77 13.8924C1251.43 13.8924 1251.75 14.1765 1251.75 14.7447V27.3523C1251.75 27.9206 1251.43 28.2047 1250.77 28.2047C1250.53 28.2047 1250.3 28.1633 1250.1 28.0804C1249.9 27.9857 1249.8 27.7844 1249.8 27.4766V19.0775ZM1259.87 21.8831C1260.17 21.8831 1260.48 21.9541 1260.81 22.0962C1261.16 22.2264 1261.47 22.3922 1261.77 22.5934H1261.75C1262.06 22.8183 1262.3 23.1084 1262.46 23.4635C1262.63 23.8187 1262.71 24.2448 1262.71 24.742V25.2747C1262.71 26.2455 1262.39 26.9617 1261.75 27.4234C1261.45 27.6601 1261.13 27.8318 1260.81 27.9383C1260.49 28.0449 1260.18 28.0981 1259.87 28.0981H1256.85C1256.54 28.0981 1256.23 28.0449 1255.91 27.9383C1255.59 27.8318 1255.28 27.6601 1254.97 27.4234C1254.33 26.9735 1254.01 26.2573 1254.01 25.2747V25.0617C1254.01 24.5526 1254.34 24.304 1254.99 24.3159C1255.65 24.3159 1255.98 24.5645 1255.98 25.0617V25.257C1255.98 25.5411 1256.07 25.8075 1256.25 26.0561C1256.43 26.3047 1256.74 26.429 1257.19 26.429H1259.53C1259.98 26.429 1260.3 26.3047 1260.47 26.0561C1260.65 25.8075 1260.74 25.5411 1260.74 25.257V24.7598C1260.74 24.6059 1260.72 24.4579 1260.67 24.3159C1260.63 24.1738 1260.57 24.0495 1260.47 23.943C1260.38 23.8246 1260.26 23.7299 1260.1 23.6588C1259.95 23.5878 1259.76 23.5523 1259.53 23.5523H1256.94C1256.34 23.5523 1255.7 23.3392 1255.04 22.913C1254.41 22.5105 1254.1 21.818 1254.1 20.8354V20.2317C1254.1 19.7582 1254.18 19.3438 1254.35 18.9887C1254.51 18.6217 1254.75 18.3258 1255.06 18.1008H1255.04C1255.34 17.8996 1255.65 17.7338 1255.98 17.6036C1256.31 17.4734 1256.63 17.4083 1256.94 17.4083H1259.78C1260.09 17.4083 1260.4 17.4734 1260.72 17.6036C1261.05 17.7338 1261.37 17.8996 1261.68 18.1008H1261.66C1261.97 18.3258 1262.21 18.6217 1262.37 18.9887C1262.54 19.3438 1262.62 19.7582 1262.62 20.2317V20.3915C1262.62 20.6401 1262.54 20.8236 1262.37 20.942C1262.21 21.0485 1261.97 21.1077 1261.65 21.1196C1261 21.1314 1260.67 20.8887 1260.67 20.3915V20.2494C1260.67 19.9535 1260.58 19.6871 1260.39 19.4504C1260.21 19.2018 1259.9 19.0775 1259.46 19.0775H1257.26C1256.82 19.0775 1256.51 19.2018 1256.32 19.4504C1256.14 19.6871 1256.05 19.9535 1256.05 20.2494V20.6756C1256.05 20.9834 1256.14 21.2616 1256.32 21.5102C1256.51 21.7588 1256.82 21.8831 1257.26 21.8831H1259.87Z" fill="white"/>
<rect x="1113.42" y="1.38728" width="179.416" height="41.422" rx="20.711" stroke="url(#paint7_linear_63_1630)" stroke-width="2.77457"/>
<defs>
<linearGradient id="paint0_linear_63_1630" x1="-44.446" y1="-51.0269" x2="116.339" y2="29.3826" gradientUnits="userSpaceOnUse">
<stop stop-color="#D0D0D0"/>
<stop offset="1" stop-color="#8F00FF"/>
</linearGradient>
<linearGradient id="paint1_linear_63_1630" x1="156.527" y1="-51.0269" x2="260.086" y2="-22.2883" gradientUnits="userSpaceOnUse">
<stop stop-color="#D0D0D0"/>
<stop offset="1" stop-color="#8F00FF" stop-opacity="0.5"/>
</linearGradient>
<linearGradient id="paint2_linear_63_1630" x1="262.624" y1="-51.0269" x2="398.088" y2="1.49464" gradientUnits="userSpaceOnUse">
<stop stop-color="#D0D0D0"/>
<stop offset="1" stop-color="#8F00FF"/>
</linearGradient>
<linearGradient id="paint3_linear_63_1630" x1="413.756" y1="-51.0269" x2="543.441" y2="-3.57998" gradientUnits="userSpaceOnUse">
<stop stop-color="#D0D0D0"/>
<stop offset="1" stop-color="#8F00FF"/>
</linearGradient>
<linearGradient id="paint4_linear_63_1630" x1="539.52" y1="-51.0269" x2="705.502" y2="36.6454" gradientUnits="userSpaceOnUse">
<stop stop-color="#D0D0D0"/>
<stop offset="1" stop-color="#8F00FF"/>
</linearGradient>
<linearGradient id="paint5_linear_63_1630" x1="744.525" y1="-51.0269" x2="869.914" y2="-7.10934" gradientUnits="userSpaceOnUse">
<stop stop-color="#D0D0D0"/>
<stop offset="1" stop-color="#8F00FF"/>
</linearGradient>
<linearGradient id="paint6_linear_63_1630" x1="861.849" y1="-51.0269" x2="1033.59" y2="45.5866" gradientUnits="userSpaceOnUse">
<stop stop-color="#D0D0D0"/>
<stop offset="1" stop-color="#8F00FF"/>
</linearGradient>
<linearGradient id="paint7_linear_63_1630" x1="1061.49" y1="-51.0269" x2="1234.21" y2="47.216" gradientUnits="userSpaceOnUse">
<stop stop-color="#D0D0D0"/>
<stop offset="1" stop-color="#8F00FF"/>
</linearGradient>
</defs>
</svg>
